<svg width="206" height="57" viewBox="0 0 206 57" fill="none" xmlns="http://www.w3.org/2000/svg">
<rect y="0.5" width="206" height="26.5" fill="black"/>
<rect y="30.5" width="184" height="26.5" fill="black"/>
<path d="M29.55 16.5996C29.55 19.1496 27.2 21.3496 18.4 21.3496H17.3C9.95 21.3996 6 19.4496 6 15.7996V15.4996H12.75C12.8 16.9496 14.4 17.6996 18.1 17.6996C21.5 17.6996 22.8 17.1996 22.8 16.3996V16.3496C22.8 15.5496 21.6 15.1996 19.1 15.1996H14.1V11.7996H19.1C21.4 11.7996 22.45 11.5496 22.45 10.8496V10.7496C22.45 10.0496 21.1 9.64961 18 9.64961C15 9.64961 12.9 10.1496 12.8 11.6496H6.05V11.3496C6.05 8.49961 9.45 6.09961 17.25 6.09961H18.3C26.7 6.09961 29 7.89961 29 9.89961V10.0996C29 11.5996 27.55 12.8496 24.8 13.0996C27.85 13.3496 29.55 14.6996 29.55 16.4496V16.5996Z" fill="white"/>
<path d="M43.95 6C54.95 6 56.35 10.6 56.35 13.4V14C56.35 16.8 54.95 21.45 43.95 21.45H42.9C31.9 21.45 30.5 16.75 30.5 14V13.4C30.5 10.6 31.9 6 42.95 6H43.95ZM49.65 13.5C49.65 11.9 48.5 10 43.45 10C38.3 10 37.25 11.95 37.25 13.5V13.75C37.25 15.3 38.4 17.4 43.45 17.4C48.5 17.4 49.65 15.4 49.65 13.8V13.5Z" fill="white"/>
<path d="M57.9004 6.2998H73.9504C78.9004 6.2998 80.2504 7.9998 80.2504 9.6998V9.8998C80.2504 11.7498 78.4504 12.5998 77.3004 12.7998C78.8004 13.0998 81.2004 13.9998 81.2004 16.5998V16.8498C81.2004 19.1998 79.5504 21.1498 74.0004 21.1498H57.9004V6.2998ZM64.4004 9.6498V11.7498H71.9504C73.3004 11.7498 73.7004 11.2498 73.7004 10.6998C73.7004 10.0998 73.3004 9.6998 71.9504 9.6998H64.4004V9.6498ZM64.4004 15.0998V17.6498H72.3504C74.0504 17.6498 74.3504 16.9498 74.3504 16.3498V16.2998C74.3504 15.6498 74.0004 15.0998 72.3504 15.0998H64.4004Z" fill="white"/>
<path d="M82.3496 6.2998H88.8496V11.5498H99.4996V6.2998H106V21.1998H99.4996V15.4998H88.8496V21.1498H82.3496V6.2998Z" fill="white"/>
<path d="M114.6 21.1498H108.1V6.2998H114.6V21.1498Z" fill="white"/>
<path d="M116.6 6.2998H123.25V17.1998H129.85V6.2998H136.5V17.1998H143.1V6.2998H149.75V21.1998H116.65V6.2998H116.6Z" fill="white"/>
<path d="M151.8 6.2998H158.3V11.5498H168.95V6.2998H175.45V21.1998H168.95V15.4998H158.3V21.1498H151.8V6.2998Z" fill="white"/>
<path d="M190.3 16.3998L184.5 21.1998H176.5L183 16.0998C178.85 15.5998 177.15 13.7998 177.15 11.4998V11.1998C177.15 8.6998 179 6.2998 184.9 6.2998H199.9V21.1998H193.4V16.3998H190.3ZM193.3 9.9998H185.9C184.4 9.9998 183.85 10.6498 183.85 11.3998V11.4498C183.85 12.2498 184.45 12.8498 185.95 12.8498H193.35V9.9998H193.3Z" fill="white"/>
<path d="M12.5 46.4998V51.1498H6V36.2998H20.2C26.5 36.2998 28.3 38.4998 28.3 41.1998V41.4998C28.3 44.1998 26.45 46.4998 20.2 46.4998H12.5ZM12.5 42.7998H19.4C20.9 42.7998 21.55 42.2498 21.55 41.4498V41.3998C21.55 40.5498 20.95 40.0498 19.4 40.0498H12.5V42.7998Z" fill="white"/>
<path d="M48.4496 36.2998V39.9498H36.0496V41.7998H48.2496V45.3998H36.0496V47.4498H48.6496V51.1498H29.5996V36.2998H48.4496Z" fill="white"/>
<path d="M56.7998 44.4998V51.1498H50.2998V36.2998H56.7998V42.1998L65.1998 36.2998H73.2998L63.3998 43.0498L73.6498 51.1498H65.1998L56.7998 44.4998Z" fill="white"/>
<path d="M89.6004 40.0998H82.5504C82.5504 45.9998 82.1004 47.8998 81.2004 49.1998C80.3004 50.5498 78.8504 51.1998 75.7504 51.1998H73.6504V46.9498H74.0004C74.9004 46.9498 75.4504 46.8498 75.8504 46.3998C76.5004 45.6998 76.7004 44.0498 76.7004 36.2998H96.1504V51.1998H89.6504V40.0998H89.6004Z" fill="white"/>
<path d="M114.4 48.75H104.65L103.35 51.15H96.75L105.2 36.25H113.95L122.85 51.15H115.75L114.4 48.75ZM109.45 39.9L106.65 45H112.3L109.45 39.9Z" fill="white"/>
<path d="M123.45 36.2998H132.4L137.6 44.6498L142.9 36.2998H151.45V51.1998H145V41.8998L139 51.1998H135.7L129.75 41.8998V51.1998H123.45V36.2998Z" fill="white"/>
<path d="M169.7 48.75H159.95L158.65 51.15H152.05L160.5 36.25H169.25L178.15 51.15H171.05L169.7 48.75ZM164.75 39.9L161.95 45.05H167.6L164.75 39.9Z" fill="white"/>
</svg>
