<svg width="479" height="113" viewBox="0 0 479 113" fill="none" xmlns="http://www.w3.org/2000/svg">
<rect width="479" height="53" fill="black"/>
<path d="M37.88 41.32H52.68L34.8 25.08L52.12 11.56H38L23.36 23.32V11.56H12V41.32H23.36V28L37.88 41.32Z" fill="white"/>
<path d="M78.7122 29.08H68.8322L73.7122 18.84L78.7122 29.08ZM84.6722 41.32H97.1122L81.5522 11.56H66.2722L51.5522 41.32H63.0722L65.3522 36.52H82.3522L84.6722 41.32Z" fill="white"/>
<path d="M124.976 41.32H136.336V11.56H102.336C102.336 27.04 101.936 30.32 100.816 31.76C100.136 32.68 99.2156 32.84 97.6156 32.84H97.0156V41.32H100.696C106.136 41.32 108.656 40.04 110.256 37.36C111.856 34.8 112.656 31.04 112.656 19.2H124.976V41.32Z" fill="white"/>
<path d="M151.29 20.32V11.56H139.93V41.32H163.81C175.85 41.32 178.85 36.64 178.85 31.08V30.44C178.85 24.88 175.81 20.32 163.81 20.32H151.29ZM151.29 33.92V27.72H162.37C166.05 27.72 167.09 29.04 167.09 30.72V30.84C167.09 32.44 166.05 33.92 162.37 33.92H151.29Z" fill="white"/>
<path d="M207.06 41.32H221.86L203.98 25.08L221.3 11.56H207.18L192.54 23.32V11.56H181.18V41.32H192.54V28L207.06 41.32Z" fill="white"/>
<path d="M260.994 11.56H249.434L241.514 24.48L232.754 11.56H219.594L234.234 31.4C234.594 31.84 234.754 32.28 234.754 32.64V32.68C234.754 33.12 234.514 33.36 233.714 33.36H228.474V41.32H234.434C241.034 41.32 242.394 39.68 245.794 34.56L260.994 11.56Z" fill="white"/>
<path d="M285.444 41.32H296.804V11.56H262.804C262.804 27.04 262.404 30.32 261.284 31.76C260.604 32.68 259.684 32.84 258.084 32.84H257.484V41.32H261.164C266.604 41.32 269.124 40.04 270.724 37.36C272.324 34.8 273.124 31.04 273.124 19.2H285.444V41.32Z" fill="white"/>
<path d="M327.998 31.76V41.32H339.358V11.56H313.198C302.918 11.56 299.678 16.32 299.678 21.32V21.96C299.678 26.52 302.678 30.16 309.918 31.12L298.598 41.32H312.598L322.758 31.76H327.998ZM327.998 24.64H315.078C312.478 24.64 311.438 23.4 311.438 21.84V21.76C311.438 20.28 312.438 19 315.038 19H327.998V24.64Z" fill="white"/>
<path d="M355.017 41.32H366.377V19.68H379.217V11.56H342.177V19.68H355.017V41.32Z" fill="white"/>
<path d="M401.59 11C382.31 11 379.87 20.16 379.87 25.76V26.96C379.87 32.52 382.31 41.88 401.59 41.88H403.39C422.63 41.88 425.07 32.52 425.07 26.96V25.76C425.07 20.16 422.59 11 403.39 11H401.59ZM413.31 26.6C413.31 29.8 411.27 33.84 402.47 33.84C393.67 33.84 391.63 29.64 391.63 26.52V26.04C391.63 22.88 393.51 19 402.47 19C411.27 19 413.31 22.88 413.31 26.04V26.6Z" fill="white"/>
<path d="M452.467 32C463.347 32 466.587 27.44 466.587 22.04V21.4C466.587 15.92 463.467 11.56 452.467 11.56H427.667V41.32H439.027V32H452.467ZM439.027 19H451.107C453.787 19 454.867 20 454.867 21.72V21.84C454.867 23.48 453.707 24.56 451.107 24.56H439.027V19Z" fill="white"/>
<rect y="60" width="272" height="53" fill="black"/>
<path d="M12 101.32H23.36V79.48H40.6V101.32H51.92V71.56H12V101.32Z" fill="white"/>
<path d="M76.3556 71C57.0756 71 54.6356 80.16 54.6356 85.76V86.96C54.6356 92.52 57.0756 101.88 76.3556 101.88H78.1556C97.3956 101.88 99.8356 92.52 99.8356 86.96V85.76C99.8356 80.16 97.3556 71 78.1556 71H76.3556ZM88.0756 86.6C88.0756 89.8 86.0356 93.84 77.2356 93.84C68.4356 93.84 66.3956 89.64 66.3956 86.52V86.04C66.3956 82.88 68.2756 79 77.2356 79C86.0356 79 88.0756 82.88 88.0756 86.04V86.6Z" fill="white"/>
<path d="M124.032 101.88C141.952 101.88 144.753 93.48 144.753 89.6V88.96H132.993C132.832 89.64 131.952 93.84 123.192 93.84C115.192 93.84 113.192 89.64 113.192 86.44V85.96C113.192 82.64 114.952 79 123.152 79C131.792 79 132.713 82.76 132.952 83.56H144.753V83.04C144.753 79.2 142.113 71 124.032 71H122.472C103.912 71 101.432 80.08 101.432 85.76V86.92C101.432 92.56 104.192 101.88 122.472 101.88H124.032Z" fill="white"/>
<path d="M173.022 101.32H184.382V71.56H150.382C150.382 87.04 149.982 90.32 148.863 91.76C148.183 92.68 147.262 92.84 145.662 92.84H145.062V101.32H148.742C154.182 101.32 156.702 100.04 158.302 97.36C159.902 94.8 160.702 91.04 160.702 79.2H173.022V101.32Z" fill="white"/>
<path d="M226.737 71.56H215.177L207.257 84.48L198.497 71.56H185.337L199.977 91.4C200.337 91.84 200.497 92.28 200.497 92.64V92.68C200.497 93.12 200.257 93.36 199.457 93.36H194.217V101.32H200.177C206.777 101.32 208.137 99.68 211.537 94.56L226.737 71.56Z" fill="white"/>
<path d="M227.703 101.32H239.063V79.48H259.143V71.56H227.703V101.32Z" fill="white"/>
</svg>
