<svg width="551" height="430" viewBox="0 0 551 430" fill="none" xmlns="http://www.w3.org/2000/svg">
<circle cx="2" cy="142" r="2" fill="#5CCCB6"/>
<circle cx="2" cy="156" r="2" fill="#5CCCB6"/>
<circle cx="2" cy="170" r="2" fill="#5CCCB6"/>
<circle cx="2" cy="184" r="2" fill="#5CCCB6"/>
<circle cx="2" cy="198" r="2" fill="#5CCCB6"/>
<circle cx="2" cy="212" r="2" fill="#5CCCB6"/>
<circle cx="2" cy="226" r="2" fill="#5CCCB6"/>
<circle cx="2" cy="240" r="2" fill="#5CCCB6"/>
<circle cx="2" cy="254" r="2" fill="#5CCCB6"/>
<circle cx="2" cy="268" r="2" fill="#5CCCB6"/>
<circle cx="16" cy="142" r="2" fill="#5CCCB6"/>
<circle cx="16" cy="156" r="2" fill="#5CCCB6"/>
<circle cx="16" cy="170" r="2" fill="#5CCCB6"/>
<circle cx="16" cy="184" r="2" fill="#5CCCB6"/>
<circle cx="16" cy="198" r="2" fill="#5CCCB6"/>
<circle cx="16" cy="212" r="2" fill="#5CCCB6"/>
<circle cx="16" cy="226" r="2" fill="#5CCCB6"/>
<circle cx="16" cy="240" r="2" fill="#5CCCB6"/>
<circle cx="16" cy="254" r="2" fill="#5CCCB6"/>
<circle cx="16" cy="268" r="2" fill="#5CCCB6"/>
<circle cx="30" cy="142" r="2" fill="#5CCCB6"/>
<circle cx="30" cy="156" r="2" fill="#5CCCB6"/>
<circle cx="30" cy="170" r="2" fill="#5CCCB6"/>
<circle cx="30" cy="184" r="2" fill="#5CCCB6"/>
<circle cx="30" cy="198" r="2" fill="#5CCCB6"/>
<circle cx="30" cy="212" r="2" fill="#5CCCB6"/>
<circle cx="30" cy="226" r="2" fill="#5CCCB6"/>
<circle cx="30" cy="240" r="2" fill="#5CCCB6"/>
<circle cx="30" cy="254" r="2" fill="#5CCCB6"/>
<circle cx="30" cy="268" r="2" fill="#5CCCB6"/>
<circle cx="44" cy="156" r="2" fill="#5CCCB6"/>
<circle cx="44" cy="170" r="2" fill="#5CCCB6"/>
<circle cx="44" cy="184" r="2" fill="#5CCCB6"/>
<circle cx="44" cy="198" r="2" fill="#5CCCB6"/>
<circle cx="44" cy="212" r="2" fill="#5CCCB6"/>
<circle cx="44" cy="226" r="2" fill="#5CCCB6"/>
<circle cx="44" cy="240" r="2" fill="#5CCCB6"/>
<circle cx="44" cy="254" r="2" fill="#5CCCB6"/>
<circle cx="44" cy="268" r="2" fill="#5CCCB6"/>
<circle cx="58" cy="156" r="2" fill="#5CCCB6"/>
<circle cx="58" cy="170" r="2" fill="#5CCCB6"/>
<circle cx="58" cy="184" r="2" fill="#5CCCB6"/>
<circle cx="58" cy="198" r="2" fill="#5CCCB6"/>
<circle cx="58" cy="212" r="2" fill="#5CCCB6"/>
<circle cx="58" cy="226" r="2" fill="#5CCCB6"/>
<circle cx="58" cy="240" r="2" fill="#5CCCB6"/>
<circle cx="58" cy="254" r="2" fill="#5CCCB6"/>
<circle cx="58" cy="268" r="2" fill="#5CCCB6"/>
<circle cx="72" cy="156" r="2" fill="#5CCCB6"/>
<circle cx="72" cy="170" r="2" fill="#5CCCB6"/>
<circle cx="72" cy="184" r="2" fill="#5CCCB6"/>
<circle cx="72" cy="198" r="2" fill="#5CCCB6"/>
<circle cx="72" cy="212" r="2" fill="#5CCCB6"/>
<circle cx="72" cy="226" r="2" fill="#5CCCB6"/>
<circle cx="72" cy="240" r="2" fill="#5CCCB6"/>
<circle cx="72" cy="254" r="2" fill="#5CCCB6"/>
<circle cx="72" cy="268" r="2" fill="#5CCCB6"/>
<circle cx="86" cy="156" r="2" fill="#5CCCB6"/>
<circle cx="86" cy="170" r="2" fill="#5CCCB6"/>
<circle cx="86" cy="184" r="2" fill="#5CCCB6"/>
<circle cx="86" cy="198" r="2" fill="#5CCCB6"/>
<circle cx="86" cy="212" r="2" fill="#5CCCB6"/>
<circle cx="86" cy="226" r="2" fill="#5CCCB6"/>
<circle cx="86" cy="240" r="2" fill="#5CCCB6"/>
<circle cx="86" cy="254" r="2" fill="#5CCCB6"/>
<circle cx="86" cy="268" r="2" fill="#5CCCB6"/>
<circle cx="100" cy="156" r="2" fill="#5CCCB6"/>
<circle cx="100" cy="170" r="2" fill="#5CCCB6"/>
<circle cx="100" cy="184" r="2" fill="#5CCCB6"/>
<circle cx="100" cy="198" r="2" fill="#5CCCB6"/>
<circle cx="100" cy="212" r="2" fill="#5CCCB6"/>
<circle cx="100" cy="226" r="2" fill="#5CCCB6"/>
<circle cx="100" cy="240" r="2" fill="#5CCCB6"/>
<circle cx="100" cy="254" r="2" fill="#5CCCB6"/>
<circle cx="100" cy="268" r="2" fill="#5CCCB6"/>
<circle cx="114" cy="156" r="2" fill="#5CCCB6"/>
<circle cx="114" cy="170" r="2" fill="#5CCCB6"/>
<circle cx="114" cy="184" r="2" fill="#5CCCB6"/>
<circle cx="114" cy="198" r="2" fill="#5CCCB6"/>
<circle cx="114" cy="212" r="2" fill="#5CCCB6"/>
<circle cx="114" cy="226" r="2" fill="#5CCCB6"/>
<circle cx="114" cy="240" r="2" fill="#5CCCB6"/>
<circle cx="114" cy="254" r="2" fill="#5CCCB6"/>
<circle cx="114" cy="268" r="2" fill="#5CCCB6"/>
<circle cx="128" cy="212" r="2" fill="#5CCCB6"/>
<circle cx="128" cy="226" r="2" fill="#5CCCB6"/>
<circle cx="128" cy="240" r="2" fill="#5CCCB6"/>
<circle cx="128" cy="254" r="2" fill="#5CCCB6"/>
<circle cx="128" cy="268" r="2" fill="#5CCCB6"/>
<circle cx="142" cy="212" r="2" fill="#5CCCB6"/>
<circle cx="142" cy="226" r="2" fill="#5CCCB6"/>
<circle cx="142" cy="240" r="2" fill="#5CCCB6"/>
<circle cx="142" cy="254" r="2" fill="#5CCCB6"/>
<circle cx="142" cy="268" r="2" fill="#5CCCB6"/>
<circle cx="156" cy="212" r="2" fill="#5CCCB6"/>
<circle cx="156" cy="226" r="2" fill="#5CCCB6"/>
<circle cx="156" cy="240" r="2" fill="#5CCCB6"/>
<circle cx="156" cy="254" r="2" fill="#5CCCB6"/>
<circle cx="156" cy="268" r="2" fill="#5CCCB6"/>
<circle cx="170" cy="142" r="2" fill="#5CCCB6"/>
<circle cx="170" cy="156" r="2" fill="#5CCCB6"/>
<circle cx="170" cy="170" r="2" fill="#5CCCB6"/>
<circle cx="170" cy="184" r="2" fill="#5CCCB6"/>
<circle cx="170" cy="198" r="2" fill="#5CCCB6"/>
<circle cx="170" cy="212" r="2" fill="#5CCCB6"/>
<circle cx="170" cy="226" r="2" fill="#5CCCB6"/>
<circle cx="170" cy="240" r="2" fill="#5CCCB6"/>
<circle cx="170" cy="254" r="2" fill="#5CCCB6"/>
<circle cx="170" cy="268" r="2" fill="#5CCCB6"/>
<circle cx="184" cy="142" r="2" fill="#5CCCB6"/>
<circle cx="184" cy="156" r="2" fill="#5CCCB6"/>
<circle cx="184" cy="170" r="2" fill="#5CCCB6"/>
<circle cx="184" cy="184" r="2" fill="#5CCCB6"/>
<circle cx="184" cy="198" r="2" fill="#5CCCB6"/>
<circle cx="184" cy="212" r="2" fill="#5CCCB6"/>
<circle cx="184" cy="226" r="2" fill="#5CCCB6"/>
<circle cx="184" cy="240" r="2" fill="#5CCCB6"/>
<circle cx="184" cy="254" r="2" fill="#5CCCB6"/>
<circle cx="184" cy="268" r="2" fill="#5CCCB6"/>
<circle cx="198" cy="142" r="2" fill="#5CCCB6"/>
<circle cx="198" cy="156" r="2" fill="#5CCCB6"/>
<circle cx="198" cy="170" r="2" fill="#5CCCB6"/>
<circle cx="198" cy="184" r="2" fill="#5CCCB6"/>
<circle cx="198" cy="198" r="2" fill="#5CCCB6"/>
<circle cx="198" cy="212" r="2" fill="#5CCCB6"/>
<circle cx="198" cy="226" r="2" fill="#5CCCB6"/>
<circle cx="198" cy="240" r="2" fill="#5CCCB6"/>
<circle cx="198" cy="254" r="2" fill="#5CCCB6"/>
<circle cx="198" cy="268" r="2" fill="#5CCCB6"/>
<circle cx="212" cy="142" r="2" fill="#5CCCB6"/>
<circle cx="212" cy="156" r="2" fill="#5CCCB6"/>
<circle cx="212" cy="170" r="2" fill="#5CCCB6"/>
<circle cx="212" cy="184" r="2" fill="#5CCCB6"/>
<circle cx="212" cy="198" r="2" fill="#5CCCB6"/>
<circle cx="212" cy="212" r="2" fill="#5CCCB6"/>
<circle cx="212" cy="226" r="2" fill="#5CCCB6"/>
<circle cx="212" cy="240" r="2" fill="#5CCCB6"/>
<circle cx="212" cy="254" r="2" fill="#5CCCB6"/>
<circle cx="212" cy="268" r="2" fill="#5CCCB6"/>
<circle cx="226" cy="142" r="2" fill="#5CCCB6"/>
<circle cx="226" cy="156" r="2" fill="#5CCCB6"/>
<circle cx="226" cy="170" r="2" fill="#5CCCB6"/>
<circle cx="226" cy="184" r="2" fill="#5CCCB6"/>
<circle cx="226" cy="198" r="2" fill="#5CCCB6"/>
<circle cx="226" cy="212" r="2" fill="#5CCCB6"/>
<circle cx="226" cy="226" r="2" fill="#5CCCB6"/>
<circle cx="226" cy="240" r="2" fill="#5CCCB6"/>
<circle cx="226" cy="254" r="2" fill="#5CCCB6"/>
<circle cx="226" cy="268" r="2" fill="#5CCCB6"/>
<circle cx="240" cy="142" r="2" fill="#5CCCB6"/>
<circle cx="240" cy="156" r="2" fill="#5CCCB6"/>
<circle cx="240" cy="170" r="2" fill="#5CCCB6"/>
<circle cx="240" cy="184" r="2" fill="#5CCCB6"/>
<circle cx="240" cy="198" r="2" fill="#5CCCB6"/>
<circle cx="240" cy="212" r="2" fill="#5CCCB6"/>
<circle cx="240" cy="226" r="2" fill="#5CCCB6"/>
<circle cx="240" cy="240" r="2" fill="#5CCCB6"/>
<circle cx="240" cy="254" r="2" fill="#5CCCB6"/>
<circle cx="240" cy="268" r="2" fill="#5CCCB6"/>
<circle cx="254" cy="142" r="2" fill="#5CCCB6"/>
<circle cx="254" cy="156" r="2" fill="#5CCCB6"/>
<circle cx="254" cy="170" r="2" fill="#5CCCB6"/>
<circle cx="254" cy="184" r="2" fill="#5CCCB6"/>
<circle cx="254" cy="198" r="2" fill="#5CCCB6"/>
<circle cx="254" cy="212" r="2" fill="#5CCCB6"/>
<circle cx="254" cy="226" r="2" fill="#5CCCB6"/>
<circle cx="254" cy="240" r="2" fill="#5CCCB6"/>
<circle cx="254" cy="254" r="2" fill="#5CCCB6"/>
<circle cx="254" cy="268" r="2" fill="#5CCCB6"/>
<circle cx="268" cy="142" r="2" fill="#5CCCB6"/>
<circle cx="268" cy="156" r="2" fill="#5CCCB6"/>
<circle cx="268" cy="170" r="2" fill="#5CCCB6"/>
<circle cx="268" cy="184" r="2" fill="#5CCCB6"/>
<circle cx="268" cy="198" r="2" fill="#5CCCB6"/>
<circle cx="268" cy="212" r="2" fill="#5CCCB6"/>
<circle cx="268" cy="226" r="2" fill="#5CCCB6"/>
<circle cx="268" cy="240" r="2" fill="#5CCCB6"/>
<circle cx="268" cy="254" r="2" fill="#5CCCB6"/>
<circle cx="268" cy="268" r="2" fill="#5CCCB6"/>
<circle cx="283" cy="2" r="2" fill="#5CCCB6"/>
<circle cx="283" cy="16" r="2" fill="#5CCCB6"/>
<circle cx="283" cy="30" r="2" fill="#5CCCB6"/>
<circle cx="283" cy="44" r="2" fill="#5CCCB6"/>
<circle cx="283" cy="58" r="2" fill="#5CCCB6"/>
<circle cx="283" cy="72" r="2" fill="#5CCCB6"/>
<circle cx="283" cy="86" r="2" fill="#5CCCB6"/>
<circle cx="283" cy="100" r="2" fill="#5CCCB6"/>
<circle cx="283" cy="114" r="2" fill="#5CCCB6"/>
<circle cx="283" cy="128" r="2" fill="#5CCCB6"/>
<circle cx="297" cy="2" r="2" fill="#5CCCB6"/>
<circle cx="297" cy="16" r="2" fill="#5CCCB6"/>
<circle cx="297" cy="30" r="2" fill="#5CCCB6"/>
<circle cx="297" cy="44" r="2" fill="#5CCCB6"/>
<circle cx="297" cy="58" r="2" fill="#5CCCB6"/>
<circle cx="297" cy="72" r="2" fill="#5CCCB6"/>
<circle cx="297" cy="86" r="2" fill="#5CCCB6"/>
<circle cx="297" cy="100" r="2" fill="#5CCCB6"/>
<circle cx="297" cy="114" r="2" fill="#5CCCB6"/>
<circle cx="297" cy="128" r="2" fill="#5CCCB6"/>
<circle cx="311" cy="44" r="2" fill="#5CCCB6"/>
<circle cx="311" cy="58" r="2" fill="#5CCCB6"/>
<circle cx="311" cy="72" r="2" fill="#5CCCB6"/>
<circle cx="311" cy="86" r="2" fill="#5CCCB6"/>
<circle cx="311" cy="100" r="2" fill="#5CCCB6"/>
<circle cx="311" cy="114" r="2" fill="#5CCCB6"/>
<circle cx="311" cy="128" r="2" fill="#5CCCB6"/>
<circle cx="325" cy="44" r="2" fill="#5CCCB6"/>
<circle cx="325" cy="58" r="2" fill="#5CCCB6"/>
<circle cx="325" cy="72" r="2" fill="#5CCCB6"/>
<circle cx="325" cy="86" r="2" fill="#5CCCB6"/>
<circle cx="325" cy="100" r="2" fill="#5CCCB6"/>
<circle cx="325" cy="114" r="2" fill="#5CCCB6"/>
<circle cx="325" cy="128" r="2" fill="#5CCCB6"/>
<circle cx="339" cy="44" r="2" fill="#5CCCB6"/>
<circle cx="339" cy="58" r="2" fill="#5CCCB6"/>
<circle cx="339" cy="72" r="2" fill="#5CCCB6"/>
<circle cx="339" cy="86" r="2" fill="#5CCCB6"/>
<circle cx="339" cy="100" r="2" fill="#5CCCB6"/>
<circle cx="339" cy="114" r="2" fill="#5CCCB6"/>
<circle cx="339" cy="128" r="2" fill="#5CCCB6"/>
<circle cx="353" cy="44" r="2" fill="#5CCCB6"/>
<circle cx="353" cy="58" r="2" fill="#5CCCB6"/>
<circle cx="353" cy="72" r="2" fill="#5CCCB6"/>
<circle cx="353" cy="86" r="2" fill="#5CCCB6"/>
<circle cx="353" cy="100" r="2" fill="#5CCCB6"/>
<circle cx="353" cy="114" r="2" fill="#5CCCB6"/>
<circle cx="353" cy="128" r="2" fill="#5CCCB6"/>
<circle cx="367" cy="44" r="2" fill="#5CCCB6"/>
<circle cx="367" cy="58" r="2" fill="#5CCCB6"/>
<circle cx="367" cy="72" r="2" fill="#5CCCB6"/>
<circle cx="367" cy="86" r="2" fill="#5CCCB6"/>
<circle cx="367" cy="100" r="2" fill="#5CCCB6"/>
<circle cx="367" cy="114" r="2" fill="#5CCCB6"/>
<circle cx="367" cy="128" r="2" fill="#5CCCB6"/>
<circle cx="381" cy="44" r="2" fill="#5CCCB6"/>
<circle cx="381" cy="58" r="2" fill="#5CCCB6"/>
<circle cx="381" cy="72" r="2" fill="#5CCCB6"/>
<circle cx="381" cy="86" r="2" fill="#5CCCB6"/>
<circle cx="381" cy="100" r="2" fill="#5CCCB6"/>
<circle cx="381" cy="114" r="2" fill="#5CCCB6"/>
<circle cx="381" cy="128" r="2" fill="#5CCCB6"/>
<circle cx="395" cy="2" r="2" fill="#5CCCB6"/>
<circle cx="395" cy="16" r="2" fill="#5CCCB6"/>
<circle cx="395" cy="30" r="2" fill="#5CCCB6"/>
<circle cx="395" cy="44" r="2" fill="#5CCCB6"/>
<circle cx="395" cy="58" r="2" fill="#5CCCB6"/>
<circle cx="395" cy="72" r="2" fill="#5CCCB6"/>
<circle cx="395" cy="86" r="2" fill="#5CCCB6"/>
<circle cx="395" cy="100" r="2" fill="#5CCCB6"/>
<circle cx="395" cy="114" r="2" fill="#5CCCB6"/>
<circle cx="395" cy="128" r="2" fill="#5CCCB6"/>
<circle cx="409" cy="2" r="2" fill="#5CCCB6"/>
<circle cx="409" cy="16" r="2" fill="#5CCCB6"/>
<circle cx="409" cy="30" r="2" fill="#5CCCB6"/>
<circle cx="409" cy="44" r="2" fill="#5CCCB6"/>
<circle cx="409" cy="58" r="2" fill="#5CCCB6"/>
<circle cx="409" cy="72" r="2" fill="#5CCCB6"/>
<circle cx="409" cy="86" r="2" fill="#5CCCB6"/>
<circle cx="409" cy="100" r="2" fill="#5CCCB6"/>
<circle cx="409" cy="114" r="2" fill="#5CCCB6"/>
<circle cx="409" cy="128" r="2" fill="#5CCCB6"/>
<circle cx="423" cy="2" r="2" fill="#5CCCB6"/>
<circle cx="423" cy="16" r="2" fill="#5CCCB6"/>
<circle cx="423" cy="30" r="2" fill="#5CCCB6"/>
<circle cx="423" cy="44" r="2" fill="#5CCCB6"/>
<circle cx="423" cy="58" r="2" fill="#5CCCB6"/>
<circle cx="423" cy="72" r="2" fill="#5CCCB6"/>
<circle cx="423" cy="86" r="2" fill="#5CCCB6"/>
<circle cx="423" cy="100" r="2" fill="#5CCCB6"/>
<circle cx="423" cy="114" r="2" fill="#5CCCB6"/>
<circle cx="423" cy="128" r="2" fill="#5CCCB6"/>
<circle cx="437" cy="2" r="2" fill="#5CCCB6"/>
<circle cx="437" cy="16" r="2" fill="#5CCCB6"/>
<circle cx="437" cy="30" r="2" fill="#5CCCB6"/>
<circle cx="437" cy="44" r="2" fill="#5CCCB6"/>
<circle cx="437" cy="58" r="2" fill="#5CCCB6"/>
<circle cx="437" cy="72" r="2" fill="#5CCCB6"/>
<circle cx="437" cy="86" r="2" fill="#5CCCB6"/>
<circle cx="437" cy="100" r="2" fill="#5CCCB6"/>
<circle cx="437" cy="114" r="2" fill="#5CCCB6"/>
<circle cx="437" cy="128" r="2" fill="#5CCCB6"/>
<circle cx="451" cy="2" r="2" fill="#5CCCB6"/>
<circle cx="451" cy="16" r="2" fill="#5CCCB6"/>
<circle cx="451" cy="30" r="2" fill="#5CCCB6"/>
<circle cx="451" cy="44" r="2" fill="#5CCCB6"/>
<circle cx="451" cy="58" r="2" fill="#5CCCB6"/>
<circle cx="451" cy="72" r="2" fill="#5CCCB6"/>
<circle cx="451" cy="86" r="2" fill="#5CCCB6"/>
<circle cx="451" cy="100" r="2" fill="#5CCCB6"/>
<circle cx="451" cy="114" r="2" fill="#5CCCB6"/>
<circle cx="451" cy="128" r="2" fill="#5CCCB6"/>
<circle cx="465" cy="2" r="2" fill="#5CCCB6"/>
<circle cx="465" cy="16" r="2" fill="#5CCCB6"/>
<circle cx="465" cy="30" r="2" fill="#5CCCB6"/>
<circle cx="465" cy="44" r="2" fill="#5CCCB6"/>
<circle cx="465" cy="58" r="2" fill="#5CCCB6"/>
<circle cx="465" cy="72" r="2" fill="#5CCCB6"/>
<circle cx="465" cy="86" r="2" fill="#5CCCB6"/>
<circle cx="465" cy="100" r="2" fill="#5CCCB6"/>
<circle cx="465" cy="114" r="2" fill="#5CCCB6"/>
<circle cx="465" cy="128" r="2" fill="#5CCCB6"/>
<circle cx="479" cy="2" r="2" fill="#5CCCB6"/>
<circle cx="479" cy="16" r="2" fill="#5CCCB6"/>
<circle cx="479" cy="30" r="2" fill="#5CCCB6"/>
<circle cx="479" cy="44" r="2" fill="#5CCCB6"/>
<circle cx="479" cy="58" r="2" fill="#5CCCB6"/>
<circle cx="479" cy="72" r="2" fill="#5CCCB6"/>
<circle cx="479" cy="86" r="2" fill="#5CCCB6"/>
<circle cx="479" cy="100" r="2" fill="#5CCCB6"/>
<circle cx="479" cy="114" r="2" fill="#5CCCB6"/>
<circle cx="479" cy="128" r="2" fill="#5CCCB6"/>
<circle cx="493" cy="2" r="2" fill="#5CCCB6"/>
<circle cx="493" cy="16" r="2" fill="#5CCCB6"/>
<circle cx="493" cy="30" r="2" fill="#5CCCB6"/>
<circle cx="493" cy="44" r="2" fill="#5CCCB6"/>
<circle cx="493" cy="58" r="2" fill="#5CCCB6"/>
<circle cx="493" cy="72" r="2" fill="#5CCCB6"/>
<circle cx="493" cy="86" r="2" fill="#5CCCB6"/>
<circle cx="493" cy="100" r="2" fill="#5CCCB6"/>
<circle cx="493" cy="114" r="2" fill="#5CCCB6"/>
<circle cx="493" cy="128" r="2" fill="#5CCCB6"/>
<circle cx="507" cy="2" r="2" fill="#5CCCB6"/>
<circle cx="507" cy="16" r="2" fill="#5CCCB6"/>
<circle cx="507" cy="30" r="2" fill="#5CCCB6"/>
<circle cx="507" cy="44" r="2" fill="#5CCCB6"/>
<circle cx="507" cy="58" r="2" fill="#5CCCB6"/>
<circle cx="507" cy="72" r="2" fill="#5CCCB6"/>
<circle cx="507" cy="86" r="2" fill="#5CCCB6"/>
<circle cx="507" cy="100" r="2" fill="#5CCCB6"/>
<circle cx="507" cy="114" r="2" fill="#5CCCB6"/>
<circle cx="507" cy="128" r="2" fill="#5CCCB6"/>
<circle cx="521" cy="2" r="2" fill="#5CCCB6"/>
<circle cx="521" cy="16" r="2" fill="#5CCCB6"/>
<circle cx="521" cy="30" r="2" fill="#5CCCB6"/>
<circle cx="521" cy="44" r="2" fill="#5CCCB6"/>
<circle cx="521" cy="58" r="2" fill="#5CCCB6"/>
<circle cx="521" cy="72" r="2" fill="#5CCCB6"/>
<circle cx="521" cy="86" r="2" fill="#5CCCB6"/>
<circle cx="521" cy="100" r="2" fill="#5CCCB6"/>
<circle cx="521" cy="114" r="2" fill="#5CCCB6"/>
<circle cx="521" cy="128" r="2" fill="#5CCCB6"/>
<circle cx="535" cy="2" r="2" fill="#5CCCB6"/>
<circle cx="535" cy="16" r="2" fill="#5CCCB6"/>
<circle cx="535" cy="30" r="2" fill="#5CCCB6"/>
<circle cx="535" cy="44" r="2" fill="#5CCCB6"/>
<circle cx="535" cy="58" r="2" fill="#5CCCB6"/>
<circle cx="535" cy="72" r="2" fill="#5CCCB6"/>
<circle cx="535" cy="86" r="2" fill="#5CCCB6"/>
<circle cx="535" cy="100" r="2" fill="#5CCCB6"/>
<circle cx="535" cy="114" r="2" fill="#5CCCB6"/>
<circle cx="535" cy="128" r="2" fill="#5CCCB6"/>
<circle cx="549" cy="2" r="2" fill="#5CCCB6"/>
<circle cx="549" cy="16" r="2" fill="#5CCCB6"/>
<circle cx="549" cy="30" r="2" fill="#5CCCB6"/>
<circle cx="549" cy="44" r="2" fill="#5CCCB6"/>
<circle cx="549" cy="58" r="2" fill="#5CCCB6"/>
<circle cx="549" cy="72" r="2" fill="#5CCCB6"/>
<circle cx="549" cy="86" r="2" fill="#5CCCB6"/>
<circle cx="549" cy="100" r="2" fill="#5CCCB6"/>
<circle cx="549" cy="114" r="2" fill="#5CCCB6"/>
<circle cx="549" cy="128" r="2" fill="#5CCCB6"/>
<circle cx="505" cy="428" r="2" transform="rotate(-180 505 428)" fill="#5CCCB6"/>
<circle cx="505" cy="414" r="2" transform="rotate(-180 505 414)" fill="#5CCCB6"/>
<circle cx="505" cy="400" r="2" transform="rotate(-180 505 400)" fill="#5CCCB6"/>
<circle cx="505" cy="386" r="2" transform="rotate(-180 505 386)" fill="#5CCCB6"/>
<circle cx="505" cy="372" r="2" transform="rotate(-180 505 372)" fill="#5CCCB6"/>
<circle cx="505" cy="358" r="2" transform="rotate(-180 505 358)" fill="#5CCCB6"/>
<circle cx="505" cy="344" r="2" transform="rotate(-180 505 344)" fill="#5CCCB6"/>
<circle cx="505" cy="330" r="2" transform="rotate(-180 505 330)" fill="#5CCCB6"/>
<circle cx="505" cy="316" r="2" transform="rotate(-180 505 316)" fill="#5CCCB6"/>
<circle cx="505" cy="302" r="2" transform="rotate(-180 505 302)" fill="#5CCCB6"/>
<circle cx="491" cy="428" r="2" transform="rotate(-180 491 428)" fill="#5CCCB6"/>
<circle cx="491" cy="414" r="2" transform="rotate(-180 491 414)" fill="#5CCCB6"/>
<circle cx="491" cy="400" r="2" transform="rotate(-180 491 400)" fill="#5CCCB6"/>
<circle cx="491" cy="386" r="2" transform="rotate(-180 491 386)" fill="#5CCCB6"/>
<circle cx="491" cy="372" r="2" transform="rotate(-180 491 372)" fill="#5CCCB6"/>
<circle cx="491" cy="358" r="2" transform="rotate(-180 491 358)" fill="#5CCCB6"/>
<circle cx="491" cy="344" r="2" transform="rotate(-180 491 344)" fill="#5CCCB6"/>
<circle cx="491" cy="330" r="2" transform="rotate(-180 491 330)" fill="#5CCCB6"/>
<circle cx="491" cy="316" r="2" transform="rotate(-180 491 316)" fill="#5CCCB6"/>
<circle cx="491" cy="302" r="2" transform="rotate(-180 491 302)" fill="#5CCCB6"/>
<circle cx="477" cy="386" r="2" transform="rotate(-180 477 386)" fill="#5CCCB6"/>
<circle cx="477" cy="372" r="2" transform="rotate(-180 477 372)" fill="#5CCCB6"/>
<circle cx="477" cy="358" r="2" transform="rotate(-180 477 358)" fill="#5CCCB6"/>
<circle cx="477" cy="344" r="2" transform="rotate(-180 477 344)" fill="#5CCCB6"/>
<circle cx="477" cy="330" r="2" transform="rotate(-180 477 330)" fill="#5CCCB6"/>
<circle cx="477" cy="316" r="2" transform="rotate(-180 477 316)" fill="#5CCCB6"/>
<circle cx="477" cy="302" r="2" transform="rotate(-180 477 302)" fill="#5CCCB6"/>
<circle cx="463" cy="386" r="2" transform="rotate(-180 463 386)" fill="#5CCCB6"/>
<circle cx="463" cy="372" r="2" transform="rotate(-180 463 372)" fill="#5CCCB6"/>
<circle cx="463" cy="358" r="2" transform="rotate(-180 463 358)" fill="#5CCCB6"/>
<circle cx="463" cy="344" r="2" transform="rotate(-180 463 344)" fill="#5CCCB6"/>
<circle cx="463" cy="330" r="2" transform="rotate(-180 463 330)" fill="#5CCCB6"/>
<circle cx="463" cy="316" r="2" transform="rotate(-180 463 316)" fill="#5CCCB6"/>
<circle cx="463" cy="302" r="2" transform="rotate(-180 463 302)" fill="#5CCCB6"/>
<circle cx="449" cy="386" r="2" transform="rotate(-180 449 386)" fill="#5CCCB6"/>
<circle cx="449" cy="372" r="2" transform="rotate(-180 449 372)" fill="#5CCCB6"/>
<circle cx="449" cy="358" r="2" transform="rotate(-180 449 358)" fill="#5CCCB6"/>
<circle cx="449" cy="344" r="2" transform="rotate(-180 449 344)" fill="#5CCCB6"/>
<circle cx="449" cy="330" r="2" transform="rotate(-180 449 330)" fill="#5CCCB6"/>
<circle cx="449" cy="316" r="2" transform="rotate(-180 449 316)" fill="#5CCCB6"/>
<circle cx="449" cy="302" r="2" transform="rotate(-180 449 302)" fill="#5CCCB6"/>
<circle cx="435" cy="386" r="2" transform="rotate(-180 435 386)" fill="#5CCCB6"/>
<circle cx="435" cy="372" r="2" transform="rotate(-180 435 372)" fill="#5CCCB6"/>
<circle cx="435" cy="358" r="2" transform="rotate(-180 435 358)" fill="#5CCCB6"/>
<circle cx="435" cy="344" r="2" transform="rotate(-180 435 344)" fill="#5CCCB6"/>
<circle cx="435" cy="330" r="2" transform="rotate(-180 435 330)" fill="#5CCCB6"/>
<circle cx="435" cy="316" r="2" transform="rotate(-180 435 316)" fill="#5CCCB6"/>
<circle cx="435" cy="302" r="2" transform="rotate(-180 435 302)" fill="#5CCCB6"/>
<circle cx="421" cy="386" r="2" transform="rotate(-180 421 386)" fill="#5CCCB6"/>
<circle cx="421" cy="372" r="2" transform="rotate(-180 421 372)" fill="#5CCCB6"/>
<circle cx="421" cy="358" r="2" transform="rotate(-180 421 358)" fill="#5CCCB6"/>
<circle cx="421" cy="344" r="2" transform="rotate(-180 421 344)" fill="#5CCCB6"/>
<circle cx="421" cy="330" r="2" transform="rotate(-180 421 330)" fill="#5CCCB6"/>
<circle cx="421" cy="316" r="2" transform="rotate(-180 421 316)" fill="#5CCCB6"/>
<circle cx="421" cy="302" r="2" transform="rotate(-180 421 302)" fill="#5CCCB6"/>
<circle cx="407" cy="386" r="2" transform="rotate(-180 407 386)" fill="#5CCCB6"/>
<circle cx="407" cy="372" r="2" transform="rotate(-180 407 372)" fill="#5CCCB6"/>
<circle cx="407" cy="358" r="2" transform="rotate(-180 407 358)" fill="#5CCCB6"/>
<circle cx="407" cy="344" r="2" transform="rotate(-180 407 344)" fill="#5CCCB6"/>
<circle cx="407" cy="330" r="2" transform="rotate(-180 407 330)" fill="#5CCCB6"/>
<circle cx="407" cy="316" r="2" transform="rotate(-180 407 316)" fill="#5CCCB6"/>
<circle cx="407" cy="302" r="2" transform="rotate(-180 407 302)" fill="#5CCCB6"/>
<circle cx="393" cy="428" r="2" transform="rotate(-180 393 428)" fill="#5CCCB6"/>
<circle cx="393" cy="414" r="2" transform="rotate(-180 393 414)" fill="#5CCCB6"/>
<circle cx="393" cy="400" r="2" transform="rotate(-180 393 400)" fill="#5CCCB6"/>
<circle cx="393" cy="386" r="2" transform="rotate(-180 393 386)" fill="#5CCCB6"/>
<circle cx="393" cy="372" r="2" transform="rotate(-180 393 372)" fill="#5CCCB6"/>
<circle cx="393" cy="358" r="2" transform="rotate(-180 393 358)" fill="#5CCCB6"/>
<circle cx="393" cy="344" r="2" transform="rotate(-180 393 344)" fill="#5CCCB6"/>
<circle cx="393" cy="330" r="2" transform="rotate(-180 393 330)" fill="#5CCCB6"/>
<circle cx="393" cy="316" r="2" transform="rotate(-180 393 316)" fill="#5CCCB6"/>
<circle cx="393" cy="302" r="2" transform="rotate(-180 393 302)" fill="#5CCCB6"/>
<circle cx="379" cy="428" r="2" transform="rotate(-180 379 428)" fill="#5CCCB6"/>
<circle cx="379" cy="414" r="2" transform="rotate(-180 379 414)" fill="#5CCCB6"/>
<circle cx="379" cy="400" r="2" transform="rotate(-180 379 400)" fill="#5CCCB6"/>
<circle cx="379" cy="386" r="2" transform="rotate(-180 379 386)" fill="#5CCCB6"/>
<circle cx="379" cy="372" r="2" transform="rotate(-180 379 372)" fill="#5CCCB6"/>
<circle cx="379" cy="358" r="2" transform="rotate(-180 379 358)" fill="#5CCCB6"/>
<circle cx="379" cy="344" r="2" transform="rotate(-180 379 344)" fill="#5CCCB6"/>
<circle cx="379" cy="330" r="2" transform="rotate(-180 379 330)" fill="#5CCCB6"/>
<circle cx="379" cy="316" r="2" transform="rotate(-180 379 316)" fill="#5CCCB6"/>
<circle cx="379" cy="302" r="2" transform="rotate(-180 379 302)" fill="#5CCCB6"/>
<circle cx="365" cy="428" r="2" transform="rotate(-180 365 428)" fill="#5CCCB6"/>
<circle cx="365" cy="414" r="2" transform="rotate(-180 365 414)" fill="#5CCCB6"/>
<circle cx="365" cy="400" r="2" transform="rotate(-180 365 400)" fill="#5CCCB6"/>
<circle cx="365" cy="386" r="2" transform="rotate(-180 365 386)" fill="#5CCCB6"/>
<circle cx="365" cy="372" r="2" transform="rotate(-180 365 372)" fill="#5CCCB6"/>
<circle cx="365" cy="358" r="2" transform="rotate(-180 365 358)" fill="#5CCCB6"/>
<circle cx="365" cy="344" r="2" transform="rotate(-180 365 344)" fill="#5CCCB6"/>
<circle cx="365" cy="330" r="2" transform="rotate(-180 365 330)" fill="#5CCCB6"/>
<circle cx="365" cy="316" r="2" transform="rotate(-180 365 316)" fill="#5CCCB6"/>
<circle cx="365" cy="302" r="2" transform="rotate(-180 365 302)" fill="#5CCCB6"/>
<circle cx="351" cy="428" r="2" transform="rotate(-180 351 428)" fill="#5CCCB6"/>
<circle cx="351" cy="414" r="2" transform="rotate(-180 351 414)" fill="#5CCCB6"/>
<circle cx="351" cy="400" r="2" transform="rotate(-180 351 400)" fill="#5CCCB6"/>
<circle cx="351" cy="386" r="2" transform="rotate(-180 351 386)" fill="#5CCCB6"/>
<circle cx="351" cy="372" r="2" transform="rotate(-180 351 372)" fill="#5CCCB6"/>
<circle cx="351" cy="358" r="2" transform="rotate(-180 351 358)" fill="#5CCCB6"/>
<circle cx="351" cy="344" r="2" transform="rotate(-180 351 344)" fill="#5CCCB6"/>
<circle cx="351" cy="330" r="2" transform="rotate(-180 351 330)" fill="#5CCCB6"/>
<circle cx="351" cy="316" r="2" transform="rotate(-180 351 316)" fill="#5CCCB6"/>
<circle cx="351" cy="302" r="2" transform="rotate(-180 351 302)" fill="#5CCCB6"/>
<circle cx="337" cy="428" r="2" transform="rotate(-180 337 428)" fill="#5CCCB6"/>
<circle cx="337" cy="414" r="2" transform="rotate(-180 337 414)" fill="#5CCCB6"/>
<circle cx="337" cy="400" r="2" transform="rotate(-180 337 400)" fill="#5CCCB6"/>
<circle cx="337" cy="386" r="2" transform="rotate(-180 337 386)" fill="#5CCCB6"/>
<circle cx="337" cy="372" r="2" transform="rotate(-180 337 372)" fill="#5CCCB6"/>
<circle cx="337" cy="358" r="2" transform="rotate(-180 337 358)" fill="#5CCCB6"/>
<circle cx="337" cy="344" r="2" transform="rotate(-180 337 344)" fill="#5CCCB6"/>
<circle cx="337" cy="330" r="2" transform="rotate(-180 337 330)" fill="#5CCCB6"/>
<circle cx="337" cy="316" r="2" transform="rotate(-180 337 316)" fill="#5CCCB6"/>
<circle cx="337" cy="302" r="2" transform="rotate(-180 337 302)" fill="#5CCCB6"/>
<circle cx="323" cy="428" r="2" transform="rotate(-180 323 428)" fill="#5CCCB6"/>
<circle cx="323" cy="414" r="2" transform="rotate(-180 323 414)" fill="#5CCCB6"/>
<circle cx="323" cy="400" r="2" transform="rotate(-180 323 400)" fill="#5CCCB6"/>
<circle cx="323" cy="386" r="2" transform="rotate(-180 323 386)" fill="#5CCCB6"/>
<circle cx="323" cy="372" r="2" transform="rotate(-180 323 372)" fill="#5CCCB6"/>
<circle cx="323" cy="358" r="2" transform="rotate(-180 323 358)" fill="#5CCCB6"/>
<circle cx="323" cy="344" r="2" transform="rotate(-180 323 344)" fill="#5CCCB6"/>
<circle cx="323" cy="330" r="2" transform="rotate(-180 323 330)" fill="#5CCCB6"/>
<circle cx="323" cy="316" r="2" transform="rotate(-180 323 316)" fill="#5CCCB6"/>
<circle cx="323" cy="302" r="2" transform="rotate(-180 323 302)" fill="#5CCCB6"/>
<circle cx="309" cy="428" r="2" transform="rotate(-180 309 428)" fill="#5CCCB6"/>
<circle cx="309" cy="414" r="2" transform="rotate(-180 309 414)" fill="#5CCCB6"/>
<circle cx="309" cy="400" r="2" transform="rotate(-180 309 400)" fill="#5CCCB6"/>
<circle cx="309" cy="386" r="2" transform="rotate(-180 309 386)" fill="#5CCCB6"/>
<circle cx="309" cy="372" r="2" transform="rotate(-180 309 372)" fill="#5CCCB6"/>
<circle cx="309" cy="358" r="2" transform="rotate(-180 309 358)" fill="#5CCCB6"/>
<circle cx="309" cy="344" r="2" transform="rotate(-180 309 344)" fill="#5CCCB6"/>
<circle cx="309" cy="330" r="2" transform="rotate(-180 309 330)" fill="#5CCCB6"/>
<circle cx="309" cy="316" r="2" transform="rotate(-180 309 316)" fill="#5CCCB6"/>
<circle cx="309" cy="302" r="2" transform="rotate(-180 309 302)" fill="#5CCCB6"/>
<circle cx="295" cy="428" r="2" transform="rotate(-180 295 428)" fill="#5CCCB6"/>
<circle cx="295" cy="414" r="2" transform="rotate(-180 295 414)" fill="#5CCCB6"/>
<circle cx="295" cy="400" r="2" transform="rotate(-180 295 400)" fill="#5CCCB6"/>
<circle cx="295" cy="386" r="2" transform="rotate(-180 295 386)" fill="#5CCCB6"/>
<circle cx="295" cy="372" r="2" transform="rotate(-180 295 372)" fill="#5CCCB6"/>
<circle cx="295" cy="358" r="2" transform="rotate(-180 295 358)" fill="#5CCCB6"/>
<circle cx="295" cy="344" r="2" transform="rotate(-180 295 344)" fill="#5CCCB6"/>
<circle cx="295" cy="330" r="2" transform="rotate(-180 295 330)" fill="#5CCCB6"/>
<circle cx="295" cy="316" r="2" transform="rotate(-180 295 316)" fill="#5CCCB6"/>
<circle cx="295" cy="302" r="2" transform="rotate(-180 295 302)" fill="#5CCCB6"/>
<circle cx="281" cy="428" r="2" transform="rotate(-180 281 428)" fill="#5CCCB6"/>
<circle cx="281" cy="414" r="2" transform="rotate(-180 281 414)" fill="#5CCCB6"/>
<circle cx="281" cy="400" r="2" transform="rotate(-180 281 400)" fill="#5CCCB6"/>
<circle cx="281" cy="386" r="2" transform="rotate(-180 281 386)" fill="#5CCCB6"/>
<circle cx="281" cy="372" r="2" transform="rotate(-180 281 372)" fill="#5CCCB6"/>
<circle cx="281" cy="358" r="2" transform="rotate(-180 281 358)" fill="#5CCCB6"/>
<circle cx="281" cy="344" r="2" transform="rotate(-180 281 344)" fill="#5CCCB6"/>
<circle cx="281" cy="330" r="2" transform="rotate(-180 281 330)" fill="#5CCCB6"/>
<circle cx="281" cy="316" r="2" transform="rotate(-180 281 316)" fill="#5CCCB6"/>
<circle cx="281" cy="302" r="2" transform="rotate(-180 281 302)" fill="#5CCCB6"/>
<circle cx="267" cy="428" r="2" transform="rotate(-180 267 428)" fill="#5CCCB6"/>
<circle cx="267" cy="414" r="2" transform="rotate(-180 267 414)" fill="#5CCCB6"/>
<circle cx="267" cy="400" r="2" transform="rotate(-180 267 400)" fill="#5CCCB6"/>
<circle cx="267" cy="386" r="2" transform="rotate(-180 267 386)" fill="#5CCCB6"/>
<circle cx="267" cy="372" r="2" transform="rotate(-180 267 372)" fill="#5CCCB6"/>
<circle cx="267" cy="358" r="2" transform="rotate(-180 267 358)" fill="#5CCCB6"/>
<circle cx="267" cy="344" r="2" transform="rotate(-180 267 344)" fill="#5CCCB6"/>
<circle cx="267" cy="330" r="2" transform="rotate(-180 267 330)" fill="#5CCCB6"/>
<circle cx="267" cy="316" r="2" transform="rotate(-180 267 316)" fill="#5CCCB6"/>
<circle cx="267" cy="302" r="2" transform="rotate(-180 267 302)" fill="#5CCCB6"/>
<circle cx="253" cy="428" r="2" transform="rotate(-180 253 428)" fill="#5CCCB6"/>
<circle cx="253" cy="414" r="2" transform="rotate(-180 253 414)" fill="#5CCCB6"/>
<circle cx="253" cy="400" r="2" transform="rotate(-180 253 400)" fill="#5CCCB6"/>
<circle cx="253" cy="386" r="2" transform="rotate(-180 253 386)" fill="#5CCCB6"/>
<circle cx="253" cy="372" r="2" transform="rotate(-180 253 372)" fill="#5CCCB6"/>
<circle cx="253" cy="358" r="2" transform="rotate(-180 253 358)" fill="#5CCCB6"/>
<circle cx="253" cy="344" r="2" transform="rotate(-180 253 344)" fill="#5CCCB6"/>
<circle cx="253" cy="330" r="2" transform="rotate(-180 253 330)" fill="#5CCCB6"/>
<circle cx="253" cy="316" r="2" transform="rotate(-180 253 316)" fill="#5CCCB6"/>
<circle cx="253" cy="302" r="2" transform="rotate(-180 253 302)" fill="#5CCCB6"/>
<circle cx="239" cy="428" r="2" transform="rotate(-180 239 428)" fill="#5CCCB6"/>
<circle cx="239" cy="414" r="2" transform="rotate(-180 239 414)" fill="#5CCCB6"/>
<circle cx="239" cy="400" r="2" transform="rotate(-180 239 400)" fill="#5CCCB6"/>
<circle cx="239" cy="386" r="2" transform="rotate(-180 239 386)" fill="#5CCCB6"/>
<circle cx="239" cy="372" r="2" transform="rotate(-180 239 372)" fill="#5CCCB6"/>
<circle cx="239" cy="358" r="2" transform="rotate(-180 239 358)" fill="#5CCCB6"/>
<circle cx="239" cy="344" r="2" transform="rotate(-180 239 344)" fill="#5CCCB6"/>
<circle cx="239" cy="330" r="2" transform="rotate(-180 239 330)" fill="#5CCCB6"/>
<circle cx="239" cy="316" r="2" transform="rotate(-180 239 316)" fill="#5CCCB6"/>
<circle cx="239" cy="302" r="2" transform="rotate(-180 239 302)" fill="#5CCCB6"/>
<circle cx="2" cy="72" r="2" fill="#5CCCB6"/>
<circle cx="2" cy="86" r="2" fill="#5CCCB6"/>
<circle cx="2" cy="100" r="2" fill="#5CCCB6"/>
<circle cx="2" cy="114" r="2" fill="#5CCCB6"/>
<circle cx="2" cy="128" r="2" fill="#5CCCB6"/>
<circle cx="16" cy="72" r="2" fill="#5CCCB6"/>
<circle cx="16" cy="86" r="2" fill="#5CCCB6"/>
<circle cx="16" cy="100" r="2" fill="#5CCCB6"/>
<circle cx="16" cy="114" r="2" fill="#5CCCB6"/>
<circle cx="16" cy="128" r="2" fill="#5CCCB6"/>
<circle cx="30" cy="72" r="2" fill="#5CCCB6"/>
<circle cx="30" cy="86" r="2" fill="#5CCCB6"/>
<circle cx="30" cy="100" r="2" fill="#5CCCB6"/>
<circle cx="30" cy="114" r="2" fill="#5CCCB6"/>
<circle cx="30" cy="128" r="2" fill="#5CCCB6"/>
<circle cx="44" cy="72" r="2" fill="#5CCCB6"/>
<circle cx="44" cy="86" r="2" fill="#5CCCB6"/>
<circle cx="44" cy="100" r="2" fill="#5CCCB6"/>
<circle cx="44" cy="114" r="2" fill="#5CCCB6"/>
<circle cx="58" cy="72" r="2" fill="#5CCCB6"/>
<circle cx="58" cy="86" r="2" fill="#5CCCB6"/>
<circle cx="58" cy="100" r="2" fill="#5CCCB6"/>
<circle cx="58" cy="114" r="2" fill="#5CCCB6"/>
<circle cx="72" cy="72" r="2" fill="#5CCCB6"/>
<circle cx="72" cy="86" r="2" fill="#5CCCB6"/>
<circle cx="72" cy="100" r="2" fill="#5CCCB6"/>
<circle cx="72" cy="114" r="2" fill="#5CCCB6"/>
<circle cx="86" cy="2" r="2" fill="#5CCCB6"/>
<circle cx="86" cy="16" r="2" fill="#5CCCB6"/>
<circle cx="86" cy="30" r="2" fill="#5CCCB6"/>
<circle cx="86" cy="44" r="2" fill="#5CCCB6"/>
<circle cx="86" cy="58" r="2" fill="#5CCCB6"/>
<circle cx="86" cy="72" r="2" fill="#5CCCB6"/>
<circle cx="86" cy="86" r="2" fill="#5CCCB6"/>
<circle cx="86" cy="100" r="2" fill="#5CCCB6"/>
<circle cx="86" cy="114" r="2" fill="#5CCCB6"/>
<circle cx="100" cy="2" r="2" fill="#5CCCB6"/>
<circle cx="100" cy="16" r="2" fill="#5CCCB6"/>
<circle cx="100" cy="30" r="2" fill="#5CCCB6"/>
<circle cx="100" cy="44" r="2" fill="#5CCCB6"/>
<circle cx="100" cy="58" r="2" fill="#5CCCB6"/>
<circle cx="100" cy="72" r="2" fill="#5CCCB6"/>
<circle cx="100" cy="86" r="2" fill="#5CCCB6"/>
<circle cx="100" cy="100" r="2" fill="#5CCCB6"/>
<circle cx="100" cy="114" r="2" fill="#5CCCB6"/>
<circle cx="114" cy="2" r="2" fill="#5CCCB6"/>
<circle cx="114" cy="16" r="2" fill="#5CCCB6"/>
<circle cx="114" cy="30" r="2" fill="#5CCCB6"/>
<circle cx="114" cy="44" r="2" fill="#5CCCB6"/>
<circle cx="114" cy="58" r="2" fill="#5CCCB6"/>
<circle cx="114" cy="72" r="2" fill="#5CCCB6"/>
<circle cx="114" cy="86" r="2" fill="#5CCCB6"/>
<circle cx="114" cy="100" r="2" fill="#5CCCB6"/>
<circle cx="114" cy="114" r="2" fill="#5CCCB6"/>
<circle cx="128" cy="2" r="2" fill="#5CCCB6"/>
<circle cx="128" cy="16" r="2" fill="#5CCCB6"/>
<circle cx="128" cy="30" r="2" fill="#5CCCB6"/>
<circle cx="128" cy="44" r="2" fill="#5CCCB6"/>
<circle cx="128" cy="58" r="2" fill="#5CCCB6"/>
<circle cx="128" cy="72" r="2" fill="#5CCCB6"/>
<circle cx="128" cy="86" r="2" fill="#5CCCB6"/>
<circle cx="128" cy="100" r="2" fill="#5CCCB6"/>
<circle cx="128" cy="114" r="2" fill="#5CCCB6"/>
<circle cx="142" cy="2" r="2" fill="#5CCCB6"/>
<circle cx="142" cy="16" r="2" fill="#5CCCB6"/>
<circle cx="142" cy="30" r="2" fill="#5CCCB6"/>
<circle cx="142" cy="44" r="2" fill="#5CCCB6"/>
<circle cx="142" cy="58" r="2" fill="#5CCCB6"/>
<circle cx="142" cy="72" r="2" fill="#5CCCB6"/>
<circle cx="142" cy="86" r="2" fill="#5CCCB6"/>
<circle cx="142" cy="100" r="2" fill="#5CCCB6"/>
<circle cx="142" cy="114" r="2" fill="#5CCCB6"/>
<circle cx="156" cy="2" r="2" fill="#5CCCB6"/>
<circle cx="156" cy="16" r="2" fill="#5CCCB6"/>
<circle cx="156" cy="30" r="2" fill="#5CCCB6"/>
<circle cx="156" cy="44" r="2" fill="#5CCCB6"/>
<circle cx="156" cy="58" r="2" fill="#5CCCB6"/>
<circle cx="156" cy="72" r="2" fill="#5CCCB6"/>
<circle cx="156" cy="86" r="2" fill="#5CCCB6"/>
<circle cx="156" cy="100" r="2" fill="#5CCCB6"/>
<circle cx="156" cy="114" r="2" fill="#5CCCB6"/>
<circle cx="170" cy="2" r="2" fill="#5CCCB6"/>
<circle cx="170" cy="16" r="2" fill="#5CCCB6"/>
<circle cx="170" cy="30" r="2" fill="#5CCCB6"/>
<circle cx="170" cy="44" r="2" fill="#5CCCB6"/>
<circle cx="170" cy="58" r="2" fill="#5CCCB6"/>
<circle cx="170" cy="72" r="2" fill="#5CCCB6"/>
<circle cx="170" cy="86" r="2" fill="#5CCCB6"/>
<circle cx="170" cy="100" r="2" fill="#5CCCB6"/>
<circle cx="170" cy="114" r="2" fill="#5CCCB6"/>
<circle cx="170" cy="128" r="2" fill="#5CCCB6"/>
<circle cx="184" cy="2" r="2" fill="#5CCCB6"/>
<circle cx="184" cy="16" r="2" fill="#5CCCB6"/>
<circle cx="184" cy="30" r="2" fill="#5CCCB6"/>
<circle cx="184" cy="44" r="2" fill="#5CCCB6"/>
<circle cx="184" cy="58" r="2" fill="#5CCCB6"/>
<circle cx="184" cy="72" r="2" fill="#5CCCB6"/>
<circle cx="184" cy="86" r="2" fill="#5CCCB6"/>
<circle cx="184" cy="100" r="2" fill="#5CCCB6"/>
<circle cx="184" cy="114" r="2" fill="#5CCCB6"/>
<circle cx="184" cy="128" r="2" fill="#5CCCB6"/>
<circle cx="198" cy="2" r="2" fill="#5CCCB6"/>
<circle cx="198" cy="16" r="2" fill="#5CCCB6"/>
<circle cx="198" cy="30" r="2" fill="#5CCCB6"/>
<circle cx="198" cy="44" r="2" fill="#5CCCB6"/>
<circle cx="198" cy="58" r="2" fill="#5CCCB6"/>
<circle cx="198" cy="72" r="2" fill="#5CCCB6"/>
<circle cx="198" cy="86" r="2" fill="#5CCCB6"/>
<circle cx="198" cy="100" r="2" fill="#5CCCB6"/>
<circle cx="198" cy="114" r="2" fill="#5CCCB6"/>
<circle cx="198" cy="128" r="2" fill="#5CCCB6"/>
<circle cx="212" cy="2" r="2" fill="#5CCCB6"/>
<circle cx="212" cy="16" r="2" fill="#5CCCB6"/>
<circle cx="212" cy="30" r="2" fill="#5CCCB6"/>
<circle cx="212" cy="44" r="2" fill="#5CCCB6"/>
<circle cx="212" cy="58" r="2" fill="#5CCCB6"/>
<circle cx="212" cy="72" r="2" fill="#5CCCB6"/>
<circle cx="212" cy="86" r="2" fill="#5CCCB6"/>
<circle cx="212" cy="100" r="2" fill="#5CCCB6"/>
<circle cx="212" cy="114" r="2" fill="#5CCCB6"/>
<circle cx="212" cy="128" r="2" fill="#5CCCB6"/>
<circle cx="226" cy="2" r="2" fill="#5CCCB6"/>
<circle cx="226" cy="16" r="2" fill="#5CCCB6"/>
<circle cx="226" cy="30" r="2" fill="#5CCCB6"/>
<circle cx="226" cy="44" r="2" fill="#5CCCB6"/>
<circle cx="226" cy="58" r="2" fill="#5CCCB6"/>
<circle cx="226" cy="72" r="2" fill="#5CCCB6"/>
<circle cx="226" cy="86" r="2" fill="#5CCCB6"/>
<circle cx="226" cy="100" r="2" fill="#5CCCB6"/>
<circle cx="226" cy="114" r="2" fill="#5CCCB6"/>
<circle cx="226" cy="128" r="2" fill="#5CCCB6"/>
<circle cx="240" cy="2" r="2" fill="#5CCCB6"/>
<circle cx="240" cy="16" r="2" fill="#5CCCB6"/>
<circle cx="240" cy="30" r="2" fill="#5CCCB6"/>
<circle cx="240" cy="44" r="2" fill="#5CCCB6"/>
<circle cx="240" cy="58" r="2" fill="#5CCCB6"/>
<circle cx="240" cy="72" r="2" fill="#5CCCB6"/>
<circle cx="240" cy="86" r="2" fill="#5CCCB6"/>
<circle cx="240" cy="100" r="2" fill="#5CCCB6"/>
<circle cx="240" cy="114" r="2" fill="#5CCCB6"/>
<circle cx="240" cy="128" r="2" fill="#5CCCB6"/>
<circle cx="254" cy="2" r="2" fill="#5CCCB6"/>
<circle cx="254" cy="16" r="2" fill="#5CCCB6"/>
<circle cx="254" cy="30" r="2" fill="#5CCCB6"/>
<circle cx="254" cy="44" r="2" fill="#5CCCB6"/>
<circle cx="254" cy="58" r="2" fill="#5CCCB6"/>
<circle cx="254" cy="72" r="2" fill="#5CCCB6"/>
<circle cx="254" cy="86" r="2" fill="#5CCCB6"/>
<circle cx="254" cy="100" r="2" fill="#5CCCB6"/>
<circle cx="254" cy="114" r="2" fill="#5CCCB6"/>
<circle cx="254" cy="128" r="2" fill="#5CCCB6"/>
<circle cx="268" cy="2" r="2" fill="#5CCCB6"/>
<circle cx="268" cy="16" r="2" fill="#5CCCB6"/>
<circle cx="268" cy="30" r="2" fill="#5CCCB6"/>
<circle cx="268" cy="44" r="2" fill="#5CCCB6"/>
<circle cx="268" cy="58" r="2" fill="#5CCCB6"/>
<circle cx="268" cy="72" r="2" fill="#5CCCB6"/>
<circle cx="268" cy="86" r="2" fill="#5CCCB6"/>
<circle cx="268" cy="100" r="2" fill="#5CCCB6"/>
<circle cx="268" cy="114" r="2" fill="#5CCCB6"/>
<circle cx="268" cy="128" r="2" fill="#5CCCB6"/>
</svg>
