<svg width="48" height="48" viewBox="0 0 48 48" fill="none" xmlns="http://www.w3.org/2000/svg">
<path d="M40.02 6.10456C34.8305 1.42138 28.2488 -0.603773 21.2873 0.155661C10.2755 1.42138 1.28888 10.2814 0.149728 21.2932C-0.609706 28.2547 1.54202 34.963 6.09863 40.0259C10.6552 45.0888 17.237 48 24.0719 48H26.9831C28.6285 48 30.1474 47.114 31.0334 45.5951C31.7928 44.0763 31.7928 42.4308 30.9068 40.9119C30.5271 40.2791 30.5271 39.5196 30.9068 38.8868C31.2865 38.2539 31.9194 37.8742 32.6788 37.8742H34.0711C41.792 37.8742 47.9941 31.6722 47.9941 23.9513C47.9941 17.2429 45.0829 10.6612 40.02 6.10456ZM34.0711 35.4693H32.4257C30.7802 35.4693 29.2614 36.3553 28.3754 37.8742C27.6159 39.3931 27.6159 41.0385 28.5019 42.5574C28.8816 43.1902 28.8816 43.9497 28.5019 44.5825C28.1222 45.2154 27.4893 45.5951 26.7299 45.5951H23.9453C17.8699 45.5951 12.0475 42.9371 7.87064 38.3805C3.82033 33.8239 1.92174 27.875 2.5546 21.673C3.69375 11.8003 11.6678 3.82626 21.5404 2.68711C22.2999 2.56054 23.1859 2.56054 23.9453 2.56054C29.2614 2.56054 34.3243 4.45912 38.248 8.00315C42.8046 12.18 45.4626 18.0024 45.4626 24.0778C45.4626 30.4064 40.3997 35.4693 34.0711 35.4693Z" fill="#5E51B0"/>
<path d="M23.9446 11.4205C26.0417 11.4205 27.7418 9.72046 27.7418 7.62334C27.7418 5.52622 26.0417 3.82617 23.9446 3.82617C21.8475 3.82617 20.1475 5.52622 20.1475 7.62334C20.1475 9.72046 21.8475 11.4205 23.9446 11.4205Z" fill="#5E51B0"/>
<path d="M32.805 15.2184C34.9021 15.2184 36.6022 13.5183 36.6022 11.4212C36.6022 9.32407 34.9021 7.62402 32.805 7.62402C30.7079 7.62402 29.0078 9.32407 29.0078 11.4212C29.0078 13.5183 30.7079 15.2184 32.805 15.2184Z" fill="#5E51B0"/>
<path d="M15.0853 15.2184C17.1824 15.2184 18.8824 13.5183 18.8824 11.4212C18.8824 9.32407 17.1824 7.62402 15.0853 7.62402C12.9881 7.62402 11.2881 9.32407 11.2881 11.4212C11.2881 13.5183 12.9881 15.2184 15.0853 15.2184Z" fill="#5E51B0"/>
<path d="M8.75713 21.5465C10.8542 21.5465 12.5543 19.8464 12.5543 17.7493C12.5543 15.6522 10.8542 13.9521 8.75713 13.9521C6.66001 13.9521 4.95996 15.6522 4.95996 17.7493C4.95996 19.8464 6.66001 21.5465 8.75713 21.5465Z" fill="#5E51B0"/>
<path d="M39.1341 21.5465C41.2312 21.5465 42.9313 19.8464 42.9313 17.7493C42.9313 15.6522 41.2312 13.9521 39.1341 13.9521C37.037 13.9521 35.3369 15.6522 35.3369 17.7493C35.3369 19.8464 37.037 21.5465 39.1341 21.5465Z" fill="#5E51B0"/>
<path d="M18.2495 30.4067C15.0852 30.4067 12.5537 32.9382 12.5537 36.1025C12.5537 39.2668 15.0852 41.7982 18.2495 41.7982C21.4138 41.7982 23.9452 39.2668 23.9452 36.1025C23.9452 32.9382 21.4138 30.4067 18.2495 30.4067ZM18.2495 39.2668C16.4775 39.2668 15.0852 37.8745 15.0852 36.1025C15.0852 34.3305 16.4775 32.9382 18.2495 32.9382C20.0215 32.9382 21.4138 34.3305 21.4138 36.1025C21.4138 37.8745 20.0215 39.2668 18.2495 39.2668Z" fill="#5E51B0"/>
</svg>
