<svg width="48" height="48" viewBox="0 0 48 48" fill="none" xmlns="http://www.w3.org/2000/svg">
<path d="M24 26.2301C27.96 26.2301 31.2 22.9901 31.2 19.0301C31.2 15.0701 27.96 11.8301 24 11.8301C20.04 11.8301 16.8 15.0701 16.8 19.0301C16.8 22.9901 20.04 26.2301 24 26.2301ZM24 14.2301C26.64 14.2301 28.8 16.3901 28.8 19.0301C28.8 21.6701 26.64 23.8301 24 23.8301C21.36 23.8301 19.2 21.6701 19.2 19.0301C19.2 16.3901 21.36 14.2301 24 14.2301Z" fill="#5E51B0"/>
<path d="M7.80015 33.4299C10.8001 33.4299 13.2001 31.0299 13.2001 28.0299C13.2001 25.0299 10.8001 22.6299 7.80015 22.6299C4.80015 22.6299 2.40015 25.0299 2.40015 28.0299C2.40015 31.0299 4.80015 33.4299 7.80015 33.4299ZM7.80015 25.0299C9.48015 25.0299 10.8001 26.3499 10.8001 28.0299C10.8001 29.7099 9.48015 31.0299 7.80015 31.0299C6.12015 31.0299 4.80015 29.7099 4.80015 28.0299C4.80015 26.3499 6.12015 25.0299 7.80015 25.0299Z" fill="#5E51B0"/>
<path d="M34.8 28.0299C34.8 31.0299 37.2 33.4299 40.2 33.4299C43.2 33.4299 45.6 31.0299 45.6 28.0299C45.6 25.0299 43.2 22.6299 40.2 22.6299C37.2 22.6299 34.8 25.0299 34.8 28.0299ZM40.2 25.0299C41.88 25.0299 43.2 26.3499 43.2 28.0299C43.2 29.7099 41.88 31.0299 40.2 31.0299C38.52 31.0299 37.2 29.7099 37.2 28.0299C37.2 26.3499 38.52 25.0299 40.2 25.0299Z" fill="#5E51B0"/>
<path d="M44.4 35.8297H34.8C34.32 35.8297 33.96 35.9497 33.6 36.0697V31.0297C33.6 28.9897 32.04 27.4297 30 27.4297H18C15.96 27.4297 14.4 28.9897 14.4 31.0297V36.0697C14.04 35.9497 13.68 35.8297 13.2 35.8297H3.6C1.56 35.8297 0 37.3897 0 39.4297V44.2297H2.4V39.4297C2.4 38.7097 2.88 38.2297 3.6 38.2297H13.2C13.92 38.2297 14.4 38.7097 14.4 39.4297V44.2297H16.8V39.4297V31.0297C16.8 30.3097 17.28 29.8297 18 29.8297H30C30.72 29.8297 31.2 30.3097 31.2 31.0297V39.4297V44.2297H33.6V39.4297C33.6 38.7097 34.08 38.2297 34.8 38.2297H44.4C45.12 38.2297 45.6 38.7097 45.6 39.4297V44.2297H48V39.4297C48 37.3897 46.44 35.8297 44.4 35.8297Z" fill="#5E51B0"/>
<path d="M24 9.42969C24.72 9.42969 25.2 8.94969 25.2 8.22969V4.62969C25.2 3.90969 24.72 3.42969 24 3.42969C23.28 3.42969 22.8 3.90969 22.8 4.62969V8.22969C22.8 8.94969 23.28 9.42969 24 9.42969Z" fill="#5E51B0"/>
<path d="M33.6001 19.0301C33.6001 19.7501 34.0801 20.2301 34.8001 20.2301H38.4001C39.1201 20.2301 39.6001 19.7501 39.6001 19.0301C39.6001 18.3101 39.1201 17.8301 38.4001 17.8301H34.8001C34.0801 17.8301 33.6001 18.3101 33.6001 19.0301Z" fill="#5E51B0"/>
<path d="M9.60015 20.2301H13.2001C13.9201 20.2301 14.4001 19.7501 14.4001 19.0301C14.4001 18.3101 13.9201 17.8301 13.2001 17.8301H9.60015C8.88015 17.8301 8.40015 18.3101 8.40015 19.0301C8.40015 19.7501 8.88015 20.2301 9.60015 20.2301Z" fill="#5E51B0"/>
<path d="M15.4799 12.1899C15.7199 12.4299 16.0799 12.5499 16.3199 12.5499C16.5599 12.5499 16.9199 12.4299 17.1599 12.1899C17.6399 11.7099 17.6399 10.9899 17.1599 10.5099L14.6399 7.98988C14.1599 7.50988 13.4399 7.50988 12.9599 7.98988C12.4799 8.46988 12.4799 9.18988 12.9599 9.66988L15.4799 12.1899Z" fill="#5E51B0"/>
<path d="M31.68 12.5499C32.04 12.5499 32.28 12.4299 32.52 12.1899L35.04 9.66988C35.52 9.18988 35.52 8.46988 35.04 7.98988C34.56 7.50988 33.84 7.50988 33.36 7.98988L30.84 10.5099C30.36 10.9899 30.36 11.7099 30.84 12.1899C31.08 12.4299 31.32 12.5499 31.68 12.5499Z" fill="#5E51B0"/>
</svg>
