<svg width="218" height="87" viewBox="0 0 218 87" fill="none" xmlns="http://www.w3.org/2000/svg">
<rect width="163.5" height="26.5" fill="black"/>
<rect y="29.5" width="214" height="26.5" fill="black"/>
<rect y="60" width="217.5" height="26.5" fill="black"/>
<path d="M8.25 16.6002C9.25 14.9502 9.45 12.2502 9.45 5.7002H29.25V16.6002H32V23.1502H25.9V20.5502H12.1V23.1502H6V16.6002H8.25ZM22.75 16.6002V9.6502H15.3C15.3 12.6502 15 15.3502 14.25 16.6002H22.75Z" fill="white"/>
<path d="M50.3504 11.2502L39.6504 20.6002H33.1504V5.7002H39.6504V15.0502L50.3504 5.7002H56.8504V20.6002H50.3504V11.2502Z" fill="white"/>
<path d="M82.0004 16.0498C82.0004 18.5998 79.6504 20.7998 70.8504 20.7998H69.7504C62.3504 20.7998 58.4004 18.8498 58.4004 15.1998V14.8998H65.1504C65.2004 16.3498 66.8004 17.0998 70.5004 17.0998C73.9004 17.0998 75.2004 16.5998 75.2004 15.7998V15.7498C75.2004 14.9498 74.0004 14.5998 71.5004 14.5998H66.5004V11.1998H71.5004C73.8004 11.1998 74.8504 10.9498 74.8504 10.2498V10.1998C74.8504 9.4998 73.5004 9.0998 70.4004 9.0998C67.4004 9.0998 65.3004 9.5998 65.2004 11.0998H58.4504V10.7998C58.4504 7.9998 61.8504 5.5498 69.6504 5.5498H70.7004C79.1504 5.5498 81.4504 7.3498 81.4504 9.3498V9.4998C81.4504 10.9998 80.0004 12.2498 77.2504 12.4998C80.3004 12.7498 82.0004 14.0998 82.0004 15.8498V16.0498Z" fill="white"/>
<path d="M99.1998 18.2002H89.4498L88.1498 20.6002H81.5498L89.9998 5.7002H98.7498L107.65 20.6002H100.5L99.1998 18.2002ZM94.2498 9.3502L91.4498 14.4502H97.0998L94.2498 9.3502Z" fill="white"/>
<path d="M125.4 11.25L114.7 20.6H108.2V5.7H114.7V15.05L125.4 5.7H131.9V20.6H125.4V11.25ZM119.7 4.95C115.25 4.95 114.5 2.6 114.5 1.55V1.5H118.7C118.7 1.75 118.9 2.5 120.15 2.5C121.4 2.5 121.55 1.75 121.55 1.5H125.65V1.55C125.65 2.6 124.6 4.95 120.55 4.95H119.7Z" fill="white"/>
<path d="M133.95 5.7002H140.45V10.9502H151.1V5.7002H157.6V20.6002H151.1V14.9002H140.45V20.5502H133.95V5.7002Z" fill="white"/>
<path d="M22.3496 39.5002H15.2996C15.2996 45.4002 14.8496 47.3002 13.9496 48.6002C13.0496 49.9502 11.5996 50.6002 8.49961 50.6002H6.34961V46.3502H6.69961C7.59961 46.3502 8.14961 46.2502 8.54961 45.8002C9.19961 45.1002 9.39961 43.4502 9.39961 35.7002H28.8496V50.6002H22.3496V39.5002Z" fill="white"/>
<path d="M43.9004 35.4004C54.9004 35.4004 56.3004 40.0004 56.3004 42.8004V43.4004C56.3004 46.2004 54.9004 50.8504 43.9004 50.8504H42.8504C31.8004 50.8504 30.4004 46.1504 30.4004 43.4004V42.8004C30.4004 40.0004 31.8004 35.4004 42.8504 35.4004H43.9004ZM49.5504 42.9504C49.5504 41.3504 48.4004 39.4504 43.3504 39.4504C38.2004 39.4504 37.1504 41.4004 37.1504 42.9504V43.2004C37.1504 44.7504 38.3004 46.8504 43.3504 46.8504C48.4004 46.8504 49.5504 44.8504 49.5504 43.2504V42.9504Z" fill="white"/>
<path d="M57.7002 35.7002H75.7002V39.6502H64.2002V50.5502H57.7002V35.7002Z" fill="white"/>
<path d="M90.0996 35.4004C101.1 35.4004 102.5 40.0004 102.5 42.8004V43.4004C102.5 46.2004 101.1 50.8504 90.0996 50.8504H89.0496C77.9996 50.8504 76.5996 46.1504 76.5996 43.4004V42.8004C76.5996 40.0004 77.9996 35.4004 89.0496 35.4004H90.0996ZM95.7496 42.9504C95.7496 41.3504 94.5996 39.4504 89.5496 39.4504C84.3996 39.4504 83.3496 41.4004 83.3496 42.9504V43.2004C83.3496 44.7504 84.4996 46.8504 89.5496 46.8504C94.5996 46.8504 95.7496 44.8504 95.7496 43.2504V42.9504Z" fill="white"/>
<path d="M110.2 39.7502H102.85V35.7002H124.05V39.7502H116.7V50.5502H110.2V39.7502Z" fill="white"/>
<path d="M142.75 41.2502L132.05 50.6002H125.55V35.7002H132.05V45.0502L142.75 35.7002H149.25V50.6002H142.75V41.2502Z" fill="white"/>
<path d="M151.35 35.7002H174.2V50.6002H167.7V39.6502H157.85V50.5502H151.35V35.7002Z" fill="white"/>
<path d="M182.8 50.6002H176.3V35.7002H182.8V50.6002Z" fill="white"/>
<path d="M184.85 35.7002H200.9C205.85 35.7002 207.2 37.4002 207.2 39.1002V39.3002C207.2 41.1502 205.4 42.0002 204.25 42.2002C205.75 42.5002 208.15 43.4002 208.15 46.0002V46.2502C208.15 48.6002 206.5 50.5502 200.95 50.5502H184.85V35.7002ZM191.35 39.1002V41.2002H198.9C200.25 41.2002 200.65 40.7002 200.65 40.1502V40.1002C200.65 39.5002 200.25 39.1002 198.9 39.1002H191.35ZM191.35 44.5002V47.0502H199.3C201 47.0502 201.3 46.3502 201.3 45.7502V45.7002C201.3 45.0502 200.95 44.5002 199.3 44.5002H191.35Z" fill="white"/>
<path d="M13.8002 69.7502H6.4502V65.7002H27.6502V69.7502H20.3002V80.5502H13.8002V69.7502Z" fill="white"/>
<path d="M41.9498 78.2002H32.1998L30.8998 80.6002H24.2998L32.7498 65.7002H41.4998L50.3998 80.6002H43.2498L41.9498 78.2002ZM36.9998 69.3502L34.1998 74.4502H39.8498L36.9998 69.3502Z" fill="white"/>
<path d="M57.9502 65.7002H66.9002L72.1002 74.0502L77.4002 65.7002H86.0002V80.6002H79.5502V71.3002L73.5502 80.6002H70.2502L64.3002 71.3002V80.6002H57.9502V65.7002Z" fill="white"/>
<path d="M104.2 78.2002H94.4996L93.1996 80.6002H86.5996L95.0496 65.7002H103.8L112.7 80.6002H105.6L104.2 78.2002ZM99.2496 69.3502L96.4496 74.4502H102.1L99.2496 69.3502Z" fill="white"/>
<path d="M119.7 73.9004V80.5504H113.2V65.6504H119.7V71.5504L128.1 65.6504H136.2L126.3 72.4004L136.55 80.5004H128L119.7 73.9004Z" fill="white"/>
<path d="M155.95 65.7004V69.3504H143.5V71.2004H155.7V74.8004H143.5V76.8504H156.1V80.5504H137.05V65.6504H155.95V65.7004Z" fill="white"/>
<path d="M164.5 69.7502H157.15V65.7002H178.35V69.7502H171V80.5502H164.5V69.7502Z" fill="white"/>
<path d="M186.4 80.6002H179.9V65.7002H186.4V80.6002Z" fill="white"/>
<path d="M188.5 65.7002H204.5C209.45 65.7002 210.8 67.4002 210.8 69.1002V69.3002C210.8 71.1502 209 72.0002 207.85 72.2002C209.35 72.5002 211.75 73.4002 211.75 76.0002V76.2502C211.75 78.6002 210.1 80.5502 204.55 80.5502H188.5V65.7002ZM195 69.1002V71.2002H202.55C203.9 71.2002 204.3 70.7002 204.3 70.1502V70.1002C204.3 69.5002 203.9 69.1002 202.55 69.1002H195ZM195 74.5002V77.0502H202.95C204.65 77.0502 204.95 76.3502 204.95 75.7502V75.7002C204.95 75.0502 204.6 74.5002 202.95 74.5002H195Z" fill="white"/>
</svg>
