<svg width="130" height="270" viewBox="0 0 130 270" fill="none" xmlns="http://www.w3.org/2000/svg">
<g fill="#5CCCB6">
  <circle cx="128" cy="2" r="2" transform="rotate(90 128 2)"/>
  <circle cx="114" cy="2" r="2" transform="rotate(90 114 2)"/>
  <circle cx="100" cy="2" r="2" transform="rotate(90 100 2)"/>
  <circle cx="86" cy="2" r="2" transform="rotate(90 86 2)"/>
  <circle cx="72" cy="2" r="2" transform="rotate(90 72 2)"/>
  <circle cx="58" cy="2" r="2" transform="rotate(90 58 2)"/>
  <circle cx="44" cy="2" r="2" transform="rotate(90 44 2)"/>
  <circle cx="30" cy="2" r="2" transform="rotate(90 30 2)"/>
  <circle cx="16" cy="2" r="2" transform="rotate(90 16 2)"/>
  <circle cx="2" cy="2" r="2" transform="rotate(90 2 2)"/>
  <circle cx="128" cy="16" r="2" transform="rotate(90 128 16)"/>
  <circle cx="114" cy="16" r="2" transform="rotate(90 114 16)"/>
  <circle cx="100" cy="16" r="2" transform="rotate(90 100 16)"/>
  <circle cx="86" cy="16" r="2" transform="rotate(90 86 16)"/>
  <circle cx="72" cy="16" r="2" transform="rotate(90 72 16)"/>
  <circle cx="58" cy="16" r="2" transform="rotate(90 58 16)"/>
  <circle cx="44" cy="16" r="2" transform="rotate(90 44 16)"/>
  <circle cx="30" cy="16" r="2" transform="rotate(90 30 16)"/>
  <circle cx="16" cy="16" r="2" transform="rotate(90 16 16)"/>
  <circle cx="2" cy="16" r="2" transform="rotate(90 2 16)"/>
  <circle cx="128" cy="30" r="2" transform="rotate(90 128 30)"/>
  <circle cx="114" cy="30" r="2" transform="rotate(90 114 30)"/>
  <circle cx="100" cy="30" r="2" transform="rotate(90 100 30)"/>
  <circle cx="86" cy="30" r="2" transform="rotate(90 86 30)"/>
  <circle cx="72" cy="30" r="2" transform="rotate(90 72 30)"/>
  <circle cx="58" cy="30" r="2" transform="rotate(90 58 30)"/>
  <circle cx="44" cy="30" r="2" transform="rotate(90 44 30)"/>
  <circle cx="30" cy="30" r="2" transform="rotate(90 30 30)"/>
  <circle cx="16" cy="30" r="2" transform="rotate(90 16 30)"/>
  <circle cx="2" cy="30" r="2" transform="rotate(90 2 30)"/>
  <circle cx="128" cy="44" r="2" transform="rotate(90 128 44)"/>
  <circle cx="114" cy="44" r="2" transform="rotate(90 114 44)"/>
  <circle cx="100" cy="44" r="2" transform="rotate(90 100 44)"/>
  <circle cx="86" cy="44" r="2" transform="rotate(90 86 44)"/>
  <circle cx="72" cy="44" r="2" transform="rotate(90 72 44)"/>
  <circle cx="58" cy="44" r="2" transform="rotate(90 58 44)"/>
  <circle cx="44" cy="44" r="2" transform="rotate(90 44 44)"/>
  <circle cx="30" cy="44" r="2" transform="rotate(90 30 44)"/>
  <circle cx="16" cy="44" r="2" transform="rotate(90 16 44)"/>
  <circle cx="2" cy="44" r="2" transform="rotate(90 2 44)"/>
  <circle cx="128" cy="58" r="2" transform="rotate(90 128 58)"/>
  <circle cx="114" cy="58" r="2" transform="rotate(90 114 58)"/>
  <circle cx="100" cy="58" r="2" transform="rotate(90 100 58)"/>
  <circle cx="86" cy="58" r="2" transform="rotate(90 86 58)"/>
  <circle cx="72" cy="58" r="2" transform="rotate(90 72 58)"/>
  <circle cx="58" cy="58" r="2" transform="rotate(90 58 58)"/>
  <circle cx="44" cy="58" r="2" transform="rotate(90 44 58)"/>
  <circle cx="30" cy="58" r="2" transform="rotate(90 30 58)"/>
  <circle cx="16" cy="58" r="2" transform="rotate(90 16 58)"/>
  <circle cx="2" cy="58" r="2" transform="rotate(90 2 58)"/>
  <circle cx="128" cy="72" r="2" transform="rotate(90 128 72)"/>
  <circle cx="114" cy="72" r="2" transform="rotate(90 114 72)"/>
  <circle cx="100" cy="72" r="2" transform="rotate(90 100 72)"/>
  <circle cx="86" cy="72" r="2" transform="rotate(90 86 72)"/>
  <circle cx="72" cy="72" r="2" transform="rotate(90 72 72)"/>
  <circle cx="58" cy="72" r="2" transform="rotate(90 58 72)"/>
  <circle cx="44" cy="72" r="2" transform="rotate(90 44 72)"/>
  <circle cx="30" cy="72" r="2" transform="rotate(90 30 72)"/>
  <circle cx="16" cy="72" r="2" transform="rotate(90 16 72)"/>
  <circle cx="2" cy="72" r="2" transform="rotate(90 2 72)"/>
  <circle cx="128" cy="86" r="2" transform="rotate(90 128 86)"/>
  <circle cx="114" cy="86" r="2" transform="rotate(90 114 86)"/>
  <circle cx="100" cy="86" r="2" transform="rotate(90 100 86)"/>
  <circle cx="86" cy="86" r="2" transform="rotate(90 86 86)"/>
  <circle cx="72" cy="86" r="2" transform="rotate(90 72 86)"/>
  <circle cx="58" cy="86" r="2" transform="rotate(90 58 86)"/>
  <circle cx="44" cy="86" r="2" transform="rotate(90 44 86)"/>
  <circle cx="30" cy="86" r="2" transform="rotate(90 30 86)"/>
  <circle cx="16" cy="86" r="2" transform="rotate(90 16 86)"/>
  <circle cx="2" cy="86" r="2" transform="rotate(90 2 86)"/>
  <circle cx="128" cy="100" r="2" transform="rotate(90 128 100)"/>
  <circle cx="114" cy="100" r="2" transform="rotate(90 114 100)"/>
  <circle cx="100" cy="100" r="2" transform="rotate(90 100 100)"/>
  <circle cx="86" cy="100" r="2" transform="rotate(90 86 100)"/>
  <circle cx="72" cy="100" r="2" transform="rotate(90 72 100)"/>
  <circle cx="58" cy="100" r="2" transform="rotate(90 58 100)"/>
  <circle cx="44" cy="100" r="2" transform="rotate(90 44 100)"/>
  <circle cx="30" cy="100" r="2" transform="rotate(90 30 100)"/>
  <circle cx="16" cy="100" r="2" transform="rotate(90 16 100)"/>
  <circle cx="2" cy="100" r="2" transform="rotate(90 2 100)"/>
  <circle cx="128" cy="114" r="2" transform="rotate(90 128 114)"/>
  <circle cx="114" cy="114" r="2" transform="rotate(90 114 114)"/>
  <circle cx="100" cy="114" r="2" transform="rotate(90 100 114)"/>
  <circle cx="86" cy="114" r="2" transform="rotate(90 86 114)"/>
  <circle cx="72" cy="114" r="2" transform="rotate(90 72 114)"/>
  <circle cx="58" cy="114" r="2" transform="rotate(90 58 114)"/>
  <circle cx="44" cy="114" r="2" transform="rotate(90 44 114)"/>
  <circle cx="30" cy="114" r="2" transform="rotate(90 30 114)"/>
  <circle cx="16" cy="114" r="2" transform="rotate(90 16 114)"/>
  <circle cx="2" cy="114" r="2" transform="rotate(90 2 114)"/>
  <circle cx="128" cy="128" r="2" transform="rotate(90 128 128)"/>
  <circle cx="114" cy="128" r="2" transform="rotate(90 114 128)"/>
  <circle cx="100" cy="128" r="2" transform="rotate(90 100 128)"/>
  <circle cx="86" cy="128" r="2" transform="rotate(90 86 128)"/>
  <circle cx="72" cy="128" r="2" transform="rotate(90 72 128)"/>
  <circle cx="58" cy="128" r="2" transform="rotate(90 58 128)"/>
  <circle cx="44" cy="128" r="2" transform="rotate(90 44 128)"/>
  <circle cx="30" cy="128" r="2" transform="rotate(90 30 128)"/>
  <circle cx="16" cy="128" r="2" transform="rotate(90 16 128)"/>
  <circle cx="2" cy="128" r="2" transform="rotate(90 2 128)"/>
  <circle cx="128" cy="142" r="2" transform="rotate(90 128 142)"/>
  <circle cx="114" cy="142" r="2" transform="rotate(90 114 142)"/>
  <circle cx="100" cy="142" r="2" transform="rotate(90 100 142)"/>
  <circle cx="86" cy="142" r="2" transform="rotate(90 86 142)"/>
  <circle cx="72" cy="142" r="2" transform="rotate(90 72 142)"/>
  <circle cx="58" cy="142" r="2" transform="rotate(90 58 142)"/>
  <circle cx="44" cy="142" r="2" transform="rotate(90 44 142)"/>
  <circle cx="30" cy="142" r="2" transform="rotate(90 30 142)"/>
  <circle cx="16" cy="142" r="2" transform="rotate(90 16 142)"/>
  <circle cx="2" cy="142" r="2" transform="rotate(90 2 142)"/>
  <circle cx="128" cy="156" r="2" transform="rotate(90 128 156)"/>
  <circle cx="114" cy="156" r="2" transform="rotate(90 114 156)"/>
  <circle cx="100" cy="156" r="2" transform="rotate(90 100 156)"/>
  <circle cx="86" cy="156" r="2" transform="rotate(90 86 156)"/>
  <circle cx="72" cy="156" r="2" transform="rotate(90 72 156)"/>
  <circle cx="58" cy="156" r="2" transform="rotate(90 58 156)"/>
  <circle cx="44" cy="156" r="2" transform="rotate(90 44 156)"/>
  <circle cx="30" cy="156" r="2" transform="rotate(90 30 156)"/>
  <circle cx="16" cy="156" r="2" transform="rotate(90 16 156)"/>
  <circle cx="2" cy="156" r="2" transform="rotate(90 2 156)"/>
  <circle cx="128" cy="170" r="2" transform="rotate(90 128 170)"/>
  <circle cx="114" cy="170" r="2" transform="rotate(90 114 170)"/>
  <circle cx="100" cy="170" r="2" transform="rotate(90 100 170)"/>
  <circle cx="86" cy="170" r="2" transform="rotate(90 86 170)"/>
  <circle cx="72" cy="170" r="2" transform="rotate(90 72 170)"/>
  <circle cx="58" cy="170" r="2" transform="rotate(90 58 170)"/>
  <circle cx="44" cy="170" r="2" transform="rotate(90 44 170)"/>
  <circle cx="30" cy="170" r="2" transform="rotate(90 30 170)"/>
  <circle cx="16" cy="170" r="2" transform="rotate(90 16 170)"/>
  <circle cx="2" cy="170" r="2" transform="rotate(90 2 170)"/>
  <circle cx="128" cy="184" r="2" transform="rotate(90 128 184)"/>
  <circle cx="114" cy="184" r="2" transform="rotate(90 114 184)"/>
  <circle cx="100" cy="184" r="2" transform="rotate(90 100 184)"/>
  <circle cx="86" cy="184" r="2" transform="rotate(90 86 184)"/>
  <circle cx="72" cy="184" r="2" transform="rotate(90 72 184)"/>
  <circle cx="58" cy="184" r="2" transform="rotate(90 58 184)"/>
  <circle cx="44" cy="184" r="2" transform="rotate(90 44 184)"/>
  <circle cx="30" cy="184" r="2" transform="rotate(90 30 184)"/>
  <circle cx="16" cy="184" r="2" transform="rotate(90 16 184)"/>
  <circle cx="2" cy="184" r="2" transform="rotate(90 2 184)"/>
  <circle cx="128" cy="198" r="2" transform="rotate(90 128 198)"/>
  <circle cx="114" cy="198" r="2" transform="rotate(90 114 198)"/>
  <circle cx="100" cy="198" r="2" transform="rotate(90 100 198)"/>
  <circle cx="86" cy="198" r="2" transform="rotate(90 86 198)"/>
  <circle cx="72" cy="198" r="2" transform="rotate(90 72 198)"/>
  <circle cx="58" cy="198" r="2" transform="rotate(90 58 198)"/>
  <circle cx="44" cy="198" r="2" transform="rotate(90 44 198)"/>
  <circle cx="30" cy="198" r="2" transform="rotate(90 30 198)"/>
  <circle cx="16" cy="198" r="2" transform="rotate(90 16 198)"/>
  <circle cx="2" cy="198" r="2" transform="rotate(90 2 198)"/>
  <circle cx="128" cy="212" r="2" transform="rotate(90 128 212)"/>
  <circle cx="114" cy="212" r="2" transform="rotate(90 114 212)"/>
  <circle cx="100" cy="212" r="2" transform="rotate(90 100 212)"/>
  <circle cx="86" cy="212" r="2" transform="rotate(90 86 212)"/>
  <circle cx="72" cy="212" r="2" transform="rotate(90 72 212)"/>
  <circle cx="58" cy="212" r="2" transform="rotate(90 58 212)"/>
  <circle cx="44" cy="212" r="2" transform="rotate(90 44 212)"/>
  <circle cx="30" cy="212" r="2" transform="rotate(90 30 212)"/>
  <circle cx="16" cy="212" r="2" transform="rotate(90 16 212)"/>
  <circle cx="2" cy="212" r="2" transform="rotate(90 2 212)"/>
  <circle cx="128" cy="226" r="2" transform="rotate(90 128 226)"/>
  <circle cx="114" cy="226" r="2" transform="rotate(90 114 226)"/>
  <circle cx="100" cy="226" r="2" transform="rotate(90 100 226)"/>
  <circle cx="86" cy="226" r="2" transform="rotate(90 86 226)"/>
  <circle cx="72" cy="226" r="2" transform="rotate(90 72 226)"/>
  <circle cx="58" cy="226" r="2" transform="rotate(90 58 226)"/>
  <circle cx="44" cy="226" r="2" transform="rotate(90 44 226)"/>
  <circle cx="30" cy="226" r="2" transform="rotate(90 30 226)"/>
  <circle cx="16" cy="226" r="2" transform="rotate(90 16 226)"/>
  <circle cx="2" cy="226" r="2" transform="rotate(90 2 226)"/>
  <circle cx="128" cy="240" r="2" transform="rotate(90 128 240)"/>
  <circle cx="114" cy="240" r="2" transform="rotate(90 114 240)"/>
  <circle cx="100" cy="240" r="2" transform="rotate(90 100 240)"/>
  <circle cx="86" cy="240" r="2" transform="rotate(90 86 240)"/>
  <circle cx="72" cy="240" r="2" transform="rotate(90 72 240)"/>
  <circle cx="58" cy="240" r="2" transform="rotate(90 58 240)"/>
  <circle cx="44" cy="240" r="2" transform="rotate(90 44 240)"/>
  <circle cx="30" cy="240" r="2" transform="rotate(90 30 240)"/>
  <circle cx="16" cy="240" r="2" transform="rotate(90 16 240)"/>
  <circle cx="2" cy="240" r="2" transform="rotate(90 2 240)"/>
  <circle cx="128" cy="254" r="2" transform="rotate(90 128 254)"/>
  <circle cx="114" cy="254" r="2" transform="rotate(90 114 254)"/>
  <circle cx="100" cy="254" r="2" transform="rotate(90 100 254)"/>
  <circle cx="86" cy="254" r="2" transform="rotate(90 86 254)"/>
  <circle cx="72" cy="254" r="2" transform="rotate(90 72 254)"/>
  <circle cx="58" cy="254" r="2" transform="rotate(90 58 254)"/>
  <circle cx="44" cy="254" r="2" transform="rotate(90 44 254)"/>
  <circle cx="30" cy="254" r="2" transform="rotate(90 30 254)"/>
  <circle cx="16" cy="254" r="2" transform="rotate(90 16 254)"/>
  <circle cx="2" cy="254" r="2" transform="rotate(90 2 254)"/>
  <circle cx="128" cy="268" r="2" transform="rotate(90 128 268)"/>
  <circle cx="114" cy="268" r="2" transform="rotate(90 114 268)"/>
  <circle cx="100" cy="268" r="2" transform="rotate(90 100 268)"/>
  <circle cx="86" cy="268" r="2" transform="rotate(90 86 268)"/>
  <circle cx="72" cy="268" r="2" transform="rotate(90 72 268)"/>
  <circle cx="58" cy="268" r="2" transform="rotate(90 58 268)"/>
  <circle cx="44" cy="268" r="2" transform="rotate(90 44 268)"/>
  <circle cx="30" cy="268" r="2" transform="rotate(90 30 268)"/>
  <circle cx="16" cy="268" r="2" transform="rotate(90 16 268)"/>
  <circle cx="2" cy="268" r="2" transform="rotate(90 2 268)"/>
</g>
</svg>
