<svg width="130" height="60" viewBox="0 0 130 60" fill="none" xmlns="http://www.w3.org/2000/svg">
<g fill="#5CCCB6">
  <circle cx="128" cy="2" r="2" transform="rotate(90 128 2)"/>
  <circle cx="114" cy="2" r="2" transform="rotate(90 114 2)"/>
  <circle cx="100" cy="2" r="2" transform="rotate(90 100 2)"/>
  <circle cx="86" cy="2" r="2" transform="rotate(90 86 2)"/>
  <circle cx="72" cy="2" r="2" transform="rotate(90 72 2)"/>
  <circle cx="58" cy="2" r="2" transform="rotate(90 58 2)"/>
  <circle cx="44" cy="2" r="2" transform="rotate(90 44 2)"/>
  <circle cx="30" cy="2" r="2" transform="rotate(90 30 2)"/>
  <circle cx="16" cy="2" r="2" transform="rotate(90 16 2)"/>
  <circle cx="2" cy="2" r="2" transform="rotate(90 2 2)"/>
  <circle cx="128" cy="16" r="2" transform="rotate(90 128 16)"/>
  <circle cx="114" cy="16" r="2" transform="rotate(90 114 16)"/>
  <circle cx="100" cy="16" r="2" transform="rotate(90 100 16)"/>
  <circle cx="86" cy="16" r="2" transform="rotate(90 86 16)"/>
  <circle cx="72" cy="16" r="2" transform="rotate(90 72 16)"/>
  <circle cx="58" cy="16" r="2" transform="rotate(90 58 16)"/>
  <circle cx="44" cy="16" r="2" transform="rotate(90 44 16)"/>
  <circle cx="30" cy="16" r="2" transform="rotate(90 30 16)"/>
  <circle cx="16" cy="16" r="2" transform="rotate(90 16 16)"/>
  <circle cx="2" cy="16" r="2" transform="rotate(90 2 16)"/>
  <circle cx="128" cy="30" r="2" transform="rotate(90 128 30)"/>
  <circle cx="114" cy="30" r="2" transform="rotate(90 114 30)"/>
  <circle cx="100" cy="30" r="2" transform="rotate(90 100 30)"/>
  <circle cx="86" cy="30" r="2" transform="rotate(90 86 30)"/>
  <circle cx="72" cy="30" r="2" transform="rotate(90 72 30)"/>
  <circle cx="58" cy="30" r="2" transform="rotate(90 58 30)"/>
  <circle cx="44" cy="30" r="2" transform="rotate(90 44 30)"/>
  <circle cx="30" cy="30" r="2" transform="rotate(90 30 30)"/>
  <circle cx="16" cy="30" r="2" transform="rotate(90 16 30)"/>
  <circle cx="2" cy="30" r="2" transform="rotate(90 2 30)"/>
  <circle cx="128" cy="44" r="2" transform="rotate(90 128 44)"/>
  <circle cx="114" cy="44" r="2" transform="rotate(90 114 44)"/>
  <circle cx="100" cy="44" r="2" transform="rotate(90 100 44)"/>
  <circle cx="86" cy="44" r="2" transform="rotate(90 86 44)"/>
  <circle cx="72" cy="44" r="2" transform="rotate(90 72 44)"/>
  <circle cx="58" cy="44" r="2" transform="rotate(90 58 44)"/>
  <circle cx="44" cy="44" r="2" transform="rotate(90 44 44)"/>
  <circle cx="30" cy="44" r="2" transform="rotate(90 30 44)"/>
  <circle cx="16" cy="44" r="2" transform="rotate(90 16 44)"/>
  <circle cx="2" cy="44" r="2" transform="rotate(90 2 44)"/>
  <circle cx="128" cy="58" r="2" transform="rotate(90 128 58)"/>
  <circle cx="114" cy="58" r="2" transform="rotate(90 114 58)"/>
  <circle cx="100" cy="58" r="2" transform="rotate(90 100 58)"/>
  <circle cx="86" cy="58" r="2" transform="rotate(90 86 58)"/>
  <circle cx="72" cy="58" r="2" transform="rotate(90 72 58)"/>
  <circle cx="58" cy="58" r="2" transform="rotate(90 58 58)"/>
  <circle cx="44" cy="58" r="2" transform="rotate(90 44 58)"/>
  <circle cx="30" cy="58" r="2" transform="rotate(90 30 58)"/>
  <circle cx="16" cy="58" r="2" transform="rotate(90 16 58)"/>
  <circle cx="2" cy="58" r="2" transform="rotate(90 2 58)"/>
</g>
</svg>
