<svg width="24" height="24" viewBox="0 0 24 24" fill="none" xmlns="http://www.w3.org/2000/svg">
<path d="M23.8475 11.1815C23.6331 10.8882 18.5245 4 11.9999 4C5.47529 4 0.366469 10.8882 0.152297 11.1813C-0.0507657 11.4595 -0.0507657 11.8369 0.152297 12.1152C0.366469 12.4085 5.47529 19.2967 11.9999 19.2967C18.5245 19.2967 23.6331 12.4084 23.8475 12.1154C24.0508 11.8372 24.0508 11.4595 23.8475 11.1815ZM11.9999 17.7143C7.19383 17.7143 3.03127 13.1424 1.79907 11.6478C3.02968 10.1519 7.18351 5.58241 11.9999 5.58241C16.8057 5.58241 20.968 10.1535 22.2007 11.6489C20.9701 13.1448 16.8163 17.7143 11.9999 17.7143Z" fill="#5CCCB6"/>
<path d="M11.9997 6.90112C9.38211 6.90112 7.25244 9.0308 7.25244 11.6484C7.25244 14.266 9.38211 16.3957 11.9997 16.3957C14.6173 16.3957 16.747 14.266 16.747 11.6484C16.747 9.0308 14.6173 6.90112 11.9997 6.90112ZM11.9997 14.8132C10.2546 14.8132 8.8349 13.3935 8.8349 11.6484C8.8349 9.90329 10.2546 8.48358 11.9997 8.48358C13.7448 8.48358 15.1645 9.90329 15.1645 11.6484C15.1645 13.3935 13.7449 14.8132 11.9997 14.8132Z" fill="#5CCCB6"/>
</svg>
