<svg width="22" height="22" viewBox="0 0 22 22" fill="none" xmlns="http://www.w3.org/2000/svg">
<path d="M11.0115 21.8228C16.93 21.8228 21.8274 16.9336 21.8274 11.0151C21.8274 5.09668 16.9217 0.20752 11.0032 0.20752C5.09305 0.20752 0.203888 5.09668 0.203888 11.0151C0.203888 16.9336 5.10135 21.8228 11.0115 21.8228ZM11.0115 20.2788C5.88162 20.2788 1.75613 16.145 1.75613 11.0151C1.75613 5.88525 5.87332 1.75146 11.0032 1.75146C16.1414 1.75146 20.2669 5.88525 20.2752 11.0151C20.2835 16.145 16.1497 20.2788 11.0115 20.2788ZM10.9368 7.05566C11.6424 7.05566 12.1902 6.49951 12.1902 5.80225C12.1902 5.09668 11.6424 4.54053 10.9368 4.54053C10.2395 4.54053 9.68338 5.09668 9.68338 5.80225C9.68338 6.49951 10.2395 7.05566 10.9368 7.05566ZM9.11063 16.8755H13.4934C13.867 16.8755 14.1658 16.5933 14.1658 16.2197C14.1658 15.8545 13.867 15.5723 13.4934 15.5723H12.0242V9.76172C12.0242 9.28027 11.7752 8.94824 11.3103 8.94824H9.26834C8.88651 8.94824 8.59598 9.23877 8.59598 9.5957C8.59598 9.96924 8.88651 10.2515 9.26834 10.2515H10.5716V15.5723H9.11063C8.72879 15.5723 8.43826 15.8545 8.43826 16.2197C8.43826 16.5933 8.72879 16.8755 9.11063 16.8755Z"/>
</svg>
