<svg width="162" height="37" viewBox="0 0 162 37" fill="none" xmlns="http://www.w3.org/2000/svg">
<path d="M30.4009 19.0894C30.0374 18.7959 29.6275 18.5656 29.1881 18.408C28.7014 18.23 28.1961 18.1082 27.6819 18.0449C28.7463 17.8902 29.541 17.5897 30.0717 17.1522C30.3421 16.9093 30.5539 16.6079 30.691 16.2707C30.8282 15.9336 30.8871 15.5695 30.8634 15.2061V14.7865C30.8728 14.2704 30.7427 13.7614 30.4868 13.3136C30.2134 12.8637 29.8335 12.4885 29.3809 12.2215C28.83 11.8967 28.2286 11.6674 27.6018 11.543C26.8132 11.377 26.0088 11.2982 25.2031 11.3079H10.9707V25.8145H25.0637C25.9133 25.8188 26.762 25.7561 27.6018 25.6271C28.3138 25.5273 29.0054 25.3143 29.6507 24.9962C30.1998 24.7226 30.6703 24.3129 31.0176 23.8059C31.3663 23.2471 31.5398 22.5961 31.5157 21.9372V21.4254C31.5261 20.9653 31.4243 20.5097 31.2192 20.0982C31.0205 19.7077 30.7416 19.3639 30.4009 19.0894ZM16.3256 14.5277H24.0763C24.4376 14.4998 24.7977 14.594 25.0993 14.7955C25.203 14.8713 25.2874 14.9707 25.3456 15.0855C25.4039 15.2003 25.4342 15.3273 25.4344 15.4561V15.6495C25.4355 15.7866 25.406 15.9222 25.348 16.0463C25.29 16.1704 25.205 16.2799 25.0993 16.3666C24.7845 16.5903 24.4014 16.6956 24.017 16.6642H16.3256V14.5277ZM26.0926 21.2052C26.1073 21.3977 26.0595 21.5898 25.9562 21.7527C25.8558 21.8967 25.7185 22.0108 25.5589 22.083C25.3704 22.1672 25.1706 22.2234 24.9659 22.2496C24.7331 22.2826 24.4982 22.2985 24.2631 22.2972H16.3256V19.8929H24.1653C24.6319 19.8743 25.097 19.9565 25.5292 20.1339C25.6925 20.1984 25.8331 20.31 25.9334 20.4546C26.0336 20.5991 26.089 20.7702 26.0926 20.9463V21.2052Z"/>
<path d="M39.664 14.9201H52.5443V11.3076H34.3535V25.8142H52.6036V22.2196H39.664V20.333H52.6036V16.7413H39.664V14.9201Z"/>
<path d="M81.6523 11.3076H75.7132L71.9683 16.5478H61.1932V11.3076H55.8235V25.8142H61.1932V20.3716H72.1996L76.241 25.8142H82.3194L76.5494 18.4374L81.6523 11.3076Z"/>
<path d="M83.5381 14.9201H90.8707V25.8142H96.2523V14.9201H103.585V11.3076H83.5381V14.9201Z"/>
<path d="M150.813 14.0127C150.482 13.4237 150.019 12.9203 149.461 12.5427C148.821 12.1157 148.111 11.8045 147.364 11.6232C146.478 11.404 145.567 11.298 144.654 11.3077H130.855V25.8143H136.192V21.9043H144.874C145.756 21.9143 146.636 21.8052 147.489 21.5799C148.217 21.3893 148.904 21.0644 149.514 20.6217C150.072 20.2102 150.523 19.6691 150.827 19.0446C151.148 18.3634 151.308 17.6168 151.293 16.8634V15.9707C151.303 15.2875 151.137 14.6133 150.813 14.0127ZM145.852 16.7682C145.859 17.0131 145.804 17.2558 145.692 17.4734C145.587 17.6657 145.437 17.8299 145.256 17.9525C145.065 18.0809 144.852 18.1737 144.628 18.2263C144.385 18.2842 144.136 18.3132 143.886 18.3126H136.216V14.9113H143.996C144.251 14.9088 144.507 14.9307 144.758 14.9768C144.969 15.0119 145.171 15.0899 145.351 15.2059C145.513 15.3173 145.642 15.4705 145.725 15.6493C145.823 15.8687 145.87 16.1081 145.861 16.3486L145.852 16.7682Z"/>
<path d="M125.544 12.7596C124.649 12.1327 123.643 11.6823 122.579 11.4325C121.271 11.1163 119.928 10.9634 118.582 10.9772H115.104C113.738 10.9582 112.375 11.1091 111.045 11.4265C109.983 11.6741 108.977 12.1203 108.08 12.7418C107.303 13.2914 106.676 14.0281 106.257 14.8843C105.827 15.8003 105.614 16.8033 105.634 17.8154V19.3032C105.613 20.3144 105.826 21.3167 106.257 22.2313C106.677 23.0852 107.304 23.8197 108.08 24.3679C108.978 24.9889 109.983 25.4351 111.045 25.6831C112.374 26.0007 113.736 26.1516 115.101 26.1325H118.562C119.912 26.1478 121.258 25.9949 122.57 25.6772C123.633 25.4204 124.638 24.9673 125.536 24.3411C126.311 23.79 126.938 23.055 127.362 22.2016C127.79 21.2979 128.003 20.3067 127.985 19.3062V17.8183C128.004 16.814 127.79 15.8189 127.362 14.9111C126.942 14.0547 126.317 13.3157 125.544 12.7596ZM122.579 19.3836C122.595 19.8933 122.471 20.3976 122.221 20.8417C121.984 21.2352 121.659 21.5675 121.272 21.8117C120.872 22.0677 120.43 22.252 119.967 22.3563C119.497 22.4671 119.015 22.524 118.532 22.5259H115.093C114.6 22.5273 114.11 22.4704 113.631 22.3563C113.17 22.2514 112.73 22.0671 112.332 21.8117C111.949 21.5637 111.631 21.2269 111.404 20.8298C111.155 20.3854 111.032 19.8812 111.048 19.3717V17.735C111.033 17.2243 111.157 16.7192 111.407 16.2739C111.64 15.8805 111.958 15.5448 112.338 15.292C112.735 15.0325 113.176 14.848 113.64 14.7474C114.12 14.6357 114.611 14.5798 115.104 14.5808H118.541C119.025 14.5806 119.507 14.6355 119.979 14.7444C120.442 14.8467 120.883 15.029 121.284 15.283C121.667 15.531 121.988 15.8652 122.221 16.2591C122.474 16.7127 122.598 17.2274 122.579 17.7469V19.3836Z"/>
<path d="M145.44 5.55268L150.961 0.0148786L162 0V11.1083L156.479 16.6313V5.55268H145.44Z" fill="#5CCCB6"/>
<path d="M5.51801 31.4443H16.557L11.039 36.997H0V25.9065L5.51801 20.3657V31.4443Z" fill="#5CCCB6"/>
</svg>
