<svg width="22" height="6" viewBox="0 0 22 6" fill="none" xmlns="http://www.w3.org/2000/svg">
<path d="M3.79995 2.99995C3.79995 3.44178 3.44178 3.79995 2.99995 3.79995C2.55812 3.79995 2.19995 3.44178 2.19995 2.99995C2.19995 2.55812 2.55812 2.19995 2.99995 2.19995C3.44178 2.19995 3.79995 2.55812 3.79995 2.99995Z"/>
<path d="M11.8 2.99995C11.8 3.44178 11.4418 3.79995 11 3.79995C10.5581 3.79995 10.2 3.44178 10.2 2.99995C10.2 2.55812 10.5581 2.19995 11 2.19995C11.4418 2.19995 11.8 2.55812 11.8 2.99995Z"/>
<path d="M19.7999 2.99995C19.7999 3.44178 19.4418 3.79995 19 3.79995C18.5581 3.79995 18.2 3.44178 18.2 2.99995C18.2 2.55812 18.5581 2.19995 19 2.19995C19.4418 2.19995 19.7999 2.55812 19.7999 2.99995Z"/>
<path d="M3.79995 2.99995C3.79995 3.44178 3.44178 3.79995 2.99995 3.79995C2.55812 3.79995 2.19995 3.44178 2.19995 2.99995C2.19995 2.55812 2.55812 2.19995 2.99995 2.19995C3.44178 2.19995 3.79995 2.55812 3.79995 2.99995Z" stroke-width="3"/>
<path d="M11.8 2.99995C11.8 3.44178 11.4418 3.79995 11 3.79995C10.5581 3.79995 10.2 3.44178 10.2 2.99995C10.2 2.55812 10.5581 2.19995 11 2.19995C11.4418 2.19995 11.8 2.55812 11.8 2.99995Z" stroke-width="3"/>
<path d="M19.7999 2.99995C19.7999 3.44178 19.4418 3.79995 19 3.79995C18.5581 3.79995 18.2 3.44178 18.2 2.99995C18.2 2.55812 18.5581 2.19995 19 2.19995C19.4418 2.19995 19.7999 2.55812 19.7999 2.99995Z" stroke-width="3"/>
</svg>
