<svg width="48" height="48" viewBox="0 0 48 48" fill="none" xmlns="http://www.w3.org/2000/svg">
<path d="M23.6552 0C13.4734 0 5.14282 8.33058 5.14282 18.5124C5.14282 33.5868 22.0684 46.8099 22.8618 47.3388L23.6552 48L24.4486 47.3388C25.242 46.8099 42.1676 33.5868 42.1676 18.5124C42.1676 8.33058 33.837 0 23.6552 0ZM23.6552 44.562C20.3494 41.7851 7.78745 30.4132 7.78745 18.5124C7.78745 9.78512 14.9279 2.64463 23.6552 2.64463C32.3825 2.64463 39.523 9.78512 39.523 18.5124C39.523 30.4132 26.961 41.7851 23.6552 44.562Z" fill="#5E51B0"/>
<path d="M24.9775 11.9014H19.6882V14.546H22.3329V27.7691H19.6882V30.4138H27.6221V27.7691H24.9775V11.9014Z" fill="#5E51B0"/>
</svg>
