<svg width="245" height="87" viewBox="0 0 245 87" fill="none" xmlns="http://www.w3.org/2000/svg">
<rect width="193" height="26.5" fill="black"/>
<rect y="29.5" width="244.5" height="26.5" fill="black"/>
<rect y="60" width="105.5" height="26.5" fill="black"/>
<path d="M7.25 76.6998C8.25 75.0498 8.45 72.3498 8.45 65.7998H28.25V76.6998H31V83.2498H24.9V80.6498H11.1V83.2498H5V76.6998H7.25ZM21.75 76.6998V69.7498H14.3C14.3 72.7498 14 75.4498 13.25 76.6998H21.75Z" fill="white"/>
<path d="M38.7002 76V80.65H32.2002V65.75H46.4002C52.7002 65.75 54.5002 67.95 54.5002 70.65V70.95C54.5002 73.65 52.6502 75.95 46.4002 75.95H38.7002V76ZM38.7002 72.3H45.6002C47.1002 72.3 47.7502 71.75 47.7502 70.95V70.9C47.7502 70.05 47.1502 69.55 45.6002 69.55H38.7002V72.3Z" fill="white"/>
<path d="M68.0996 77.2996C66.1496 79.8496 65.3496 80.6996 61.5996 80.6996H58.1996V76.6996H61.1996C61.6496 76.6996 61.7996 76.5996 61.7996 76.3496C61.7996 76.1496 61.6996 75.9496 61.4996 75.7496L53.0996 65.8496H60.6496L65.6496 72.2996L70.1996 65.8496H76.7996L68.0996 77.2996Z" fill="white"/>
<path d="M83.9004 74V80.65H77.4004V65.75H83.9004V71.65L92.3004 65.75H100.4L90.5004 72.5L100.75 80.6H92.3004L83.9004 74Z" fill="white"/>
<path d="M18.2004 35.5996H24.7004V36.9496H29.0004C34.4004 36.9496 37.7504 38.9996 37.7504 42.7496V43.0496C37.7504 46.7996 34.4004 48.9496 29.0004 48.9496H24.7004V50.8496H18.2004V48.9496H13.9004C8.50039 48.9496 5.15039 46.8496 5.15039 43.0996V42.7996C5.15039 39.0996 8.55039 36.9996 13.9004 36.9996H18.2004V35.5996ZM15.3004 40.6996C12.8504 40.6996 11.7504 41.5996 11.7504 42.8496V42.9996C11.7504 44.2996 12.8504 45.1996 15.3004 45.1996H18.3004V40.6996H15.3004ZM24.6504 45.1996H27.6504C30.1004 45.1996 31.2004 44.2496 31.2004 42.9996V42.8996C31.2004 41.6496 30.1004 40.7496 27.6504 40.7496H24.6504V45.1996Z" fill="white"/>
<path d="M52.0508 35.5C63.0508 35.5 64.4508 40.1 64.4508 42.9V43.5C64.4508 46.3 63.0508 50.95 52.0508 50.95H51.0008C39.9508 50.95 38.5508 46.25 38.5508 43.5V42.9C38.6008 40.1 39.9508 35.5 51.0008 35.5H52.0508ZM57.7008 43C57.7008 41.4 56.5508 39.5 51.5008 39.5C46.3508 39.5 45.3008 41.45 45.3008 43V43.25C45.3008 44.8 46.4508 46.9 51.5008 46.9C56.5508 46.9 57.7008 44.9 57.7008 43.3V43Z" fill="white"/>
<path d="M72.4512 45.9998V50.6498H65.9512V35.7998H80.1512C86.4512 35.7998 88.2512 37.9998 88.2512 40.6998V40.9998C88.2512 43.6998 86.4012 45.9998 80.1512 45.9998H72.4512ZM72.4512 42.2998H79.3512C80.8512 42.2998 81.5012 41.7498 81.5012 40.9498V40.8998C81.5012 40.0498 80.9012 39.5498 79.3512 39.5498H72.4512V42.2998Z" fill="white"/>
<path d="M89.55 35.7998H98.5L103.7 44.1498L109 35.7998H117.55V50.6998H111.1V41.3998L105.1 50.6998H101.8L95.85 41.3998V50.6998H89.5V35.7998H89.55Z" fill="white"/>
<path d="M135.851 48.25H126.101L124.801 50.65H118.201L126.651 35.75H135.401L144.301 50.65H137.201L135.851 48.25ZM130.901 39.4L128.101 44.5H133.751L130.901 39.4Z" fill="white"/>
<path d="M148.151 39.8498H140.801V35.7998H162.001V39.8498H154.651V50.6498H148.151V39.8498Z" fill="white"/>
<path d="M163.5 35.7998H170V41.0498H180.65V35.7998H187.15V50.6998H180.65V44.9998H170V50.6498H163.5V35.7998Z" fill="white"/>
<path d="M206.401 41.2998L195.701 50.6498H189.201V35.7998H195.701V45.1498L206.401 35.7998H212.901V50.6998H206.401V41.2998Z" fill="white"/>
<path d="M232.2 41.2998L221.5 50.6498H215V35.7998H221.5V45.1498L232.2 35.7998H238.7V50.6998H232.2V41.2998ZM226.55 34.9998C222.1 34.9998 221.35 32.6498 221.35 31.5998V31.5498H225.55C225.55 31.7998 225.75 32.5498 227 32.5498C228.25 32.5498 228.4 31.7998 228.4 31.5498H232.5V31.5998C232.5 32.6498 231.45 34.9998 227.4 34.9998H226.55Z" fill="white"/>
<path d="M6 5.7998H12.65V16.6998H19.25V5.7998H25.9V16.6998H32.5V5.7998H39.15V20.6998H6V5.7998Z" fill="white"/>
<path d="M58.4002 11.2998L47.7002 20.6498H41.2002V5.7998H47.7002V15.1498L58.4002 5.7998H64.9002V20.6998H58.4002V11.2998Z" fill="white"/>
<path d="M73.5508 15.9998V20.6498H67.0508V5.7998H81.2508C87.5508 5.7998 89.3508 7.9998 89.3508 10.6998V10.9998C89.3508 13.6998 87.5008 15.9998 81.2508 15.9998H73.5508ZM73.5508 12.2998H80.4508C81.9508 12.2998 82.6008 11.7498 82.6008 10.9498V10.8998C82.6008 10.0498 82.0008 9.5498 80.4508 9.5498H73.5508V12.2998Z" fill="white"/>
<path d="M103.551 5.5C114.551 5.5 115.951 10.1 115.951 12.9V13.5C115.951 16.3 114.551 20.95 103.551 20.95H102.501C91.4508 20.95 90.0508 16.25 90.0508 13.5V12.9C90.0508 10.1 91.4508 5.5 102.501 5.5H103.551V5.5ZM109.201 13C109.201 11.4 108.051 9.5 103.001 9.5C97.8508 9.5 96.8008 11.45 96.8008 13V13.25C96.8008 14.8 97.9508 16.9 103.001 16.9C108.051 16.9 109.201 14.9 109.201 13.3V13Z" fill="white"/>
<path d="M123.9 13.9998V20.6498H117.4V5.7998H123.9V11.6998L132.3 5.7998H140.4L130.5 12.5498L140.75 20.6498H132.3L123.9 13.9998Z" fill="white"/>
<path d="M151.7 5.5C162.7 5.5 164.1 10.1 164.1 12.9V13.5C164.1 16.3 162.7 20.95 151.7 20.95H150.65C139.6 20.95 138.2 16.25 138.2 13.5V12.9C138.2 10.1 139.6 5.5 150.65 5.5H151.7V5.5ZM157.4 13C157.4 11.4 156.25 9.5 151.2 9.5C146.05 9.5 145 11.45 145 13V13.25C145 14.8 146.15 16.9 151.2 16.9C156.25 16.9 157.4 14.9 157.4 13.3V13Z" fill="white"/>
<path d="M187.2 13.2998V16.1498H167.25V13.2998H187.2Z" fill="white"/>
</svg>
