<svg width="48" height="48" viewBox="0 0 48 48" fill="none" xmlns="http://www.w3.org/2000/svg">
<path d="M35.6172 29.7024L38.7504 28.9504V22.1828L42.8862 18.047L38.7504 12.5326V6.89295L33.1107 5.51436L28.9749 0L23.5859 2.63185L18.1969 0L14.0611 5.51436L8.54674 6.89295V12.4073L4.41097 17.9217L8.54674 22.0574V28.8251L11.6799 29.577L4.28564 39.4778L12.8078 40.6057L16.693 48L23.7112 38.6005L30.6042 48L34.4893 40.4804L43.0115 39.3525L35.6172 29.7024ZM11.0533 26.9452V21.1802L7.66946 17.7963L11.0533 13.2846V8.77285L15.565 7.77023L18.9488 3.25849L23.5859 5.63969L28.223 3.25849L31.6068 7.77023L36.1185 8.77285V13.2846L39.5024 17.7963L36.1185 21.1802V26.9452L31.6068 28.0731L28.223 32.5849L23.5859 30.2037L18.9488 32.5849L15.565 28.0731L11.0533 26.9452ZM17.0689 43.3629L14.4371 38.3499L8.79739 37.5979L14.1864 30.4543L18.1969 35.8433L20.7034 34.5901L22.2073 36.5953L17.0689 43.3629ZM32.8601 38.3499L30.2282 43.3629L22.9593 33.3368L23.5859 33.0862L28.9749 35.718L32.9854 30.329L38.3744 37.4726L32.8601 38.3499Z" fill="#5E51B0"/>
<path d="M23.5858 29.2013C29.8521 29.2013 34.8651 24.1883 34.8651 17.922C34.8651 11.6556 29.8521 6.64258 23.5858 6.64258C17.3195 6.64258 12.3064 11.6556 12.3064 17.922C12.3064 24.1883 17.4448 29.2013 23.5858 29.2013ZM23.5858 9.14911C28.4735 9.14911 32.3586 13.0342 32.3586 17.922C32.3586 22.8097 28.4735 26.6948 23.5858 26.6948C18.698 26.6948 14.8129 22.8097 14.8129 17.922C14.8129 13.0342 18.8234 9.14911 23.5858 9.14911Z" fill="#5E51B0"/>
<path d="M19.9517 22.9346L23.5861 21.0548L27.3459 22.9346L26.594 18.7989L29.6018 15.9164L25.466 15.2897L23.5861 11.6553L21.8316 15.2897L17.6958 15.9164L20.7036 18.7989L19.9517 22.9346Z" fill="#5E51B0"/>
</svg>
