<svg width="48" height="48" viewBox="0 0 56 56" fill="none" xmlns="http://www.w3.org/2000/svg">
<path d="M31.0632 15.284L27.0842 7.17871L23.1053 15.284L15 19.2629L23.1053 23.2419L27.0842 31.3471L31.0632 23.2419L39.1684 19.2629L31.0632 15.284ZM29 21.1787L27.0842 24.8629L25.1684 21.1787L21.4842 19.2629L25.1684 17.3471L27.0842 13.6629L29 17.3471L32.6842 19.2629L29 21.1787Z" fill="#5E51B0"/>
<path d="M35.9269 14.8421L37.4006 11.8947L40.348 10.4211L37.4006 8.94737L35.9269 6L34.4532 8.94737L31.5059 10.4211L34.4532 11.8947L35.9269 14.8421Z" fill="#5E51B0"/>
<path d="M56 36.3684V1H0V36.3684H23.5789V51.1053H20.6316V54.0526H23.5789H32.4211H35.3684V51.1053H32.4211V36.3684H56ZM29.4737 51.1053H26.5263V36.3684H29.4737V51.1053ZM23.5789 33.4211H2.94737V3.94737H53.0526V33.4211H32.4211H23.5789Z" fill="#5E51B0"/>
</svg>
