<svg width="48" height="48" viewBox="0 0 48 48" fill="none" xmlns="http://www.w3.org/2000/svg">
<path d="M29.1714 4.83643H7.4082V7.25456H29.1714V4.83643Z" fill="#5E51B0"/>
<path d="M29.1714 9.67285H7.4082V12.091H29.1714V9.67285Z" fill="#5E51B0"/>
<path d="M29.1714 14.5088H7.4082V16.9269H29.1714V14.5088Z" fill="#5E51B0"/>
<path d="M36.667 38.3275C37.997 36.3929 38.8433 33.9748 38.8433 31.4358C38.8433 27.4458 36.9088 23.9395 34.0071 21.7632V0H2.57129V41.1083H19.4982C21.5537 42.5592 23.9718 43.5264 26.7527 43.5264C29.5335 43.5264 31.9516 42.5592 34.0071 41.1083C34.3698 40.8665 34.7325 40.5038 35.0952 40.1411L44.0423 48L45.6141 46.1864L36.667 38.3275ZM4.98943 38.6902V2.41814H31.5889V20.3123C30.8635 19.9496 30.0171 19.7078 29.1708 19.5869V19.3451H7.40756V21.7632H19.4982C18.531 22.4887 17.8055 23.2141 17.0801 24.1814H7.40756V26.5995H15.6292C15.2665 27.3249 15.0247 28.1713 14.9038 29.0176H7.40756V31.4358H14.662C14.662 32.2821 14.7829 33.1285 14.9038 33.8539H7.40756V36.272H15.6292C15.9919 37.1184 16.4756 37.9647 17.0801 38.6902H4.98943ZM26.7527 41.1083C21.7955 41.1083 17.8055 37.3602 17.201 32.6448C17.201 32.2821 17.0801 31.7985 17.0801 31.4358C17.0801 30.8312 17.0801 30.3476 17.201 29.7431C17.9265 25.5113 21.4328 22.2469 25.7854 21.7632C26.1481 21.7632 26.3899 21.7632 26.7527 21.7632C26.9945 21.7632 27.2363 21.7632 27.599 21.7632C32.5562 22.1259 36.4252 26.3577 36.4252 31.4358C36.4252 36.7557 32.0725 41.1083 26.7527 41.1083Z" fill="#5E51B0"/>
<path d="M20.8283 37.4813H29.1709V36.2722V33.8541V32.645H18.4102C18.652 34.5795 19.4983 36.1513 20.8283 37.4813Z" fill="#5E51B0"/>
<path d="M19.1357 27.8084H29.171V26.5994V24.1812V23.3349C28.4456 23.0931 27.5992 22.9722 26.7529 22.9722C23.3675 22.9722 20.4657 24.9067 19.1357 27.8084Z" fill="#5E51B0"/>
</svg>
