<svg width="48" height="48" viewBox="0 0 48 48" fill="none" xmlns="http://www.w3.org/2000/svg">
<path d="M36.3711 0L0 36.0033L11.6289 47.5145L48 11.5112L36.3711 0ZM3.46392 36.0033L4.82474 34.6562L5.81443 35.6359L7.54639 33.9214L6.5567 32.9418L7.91753 31.5947L10.7629 34.4113L12.4948 32.6968L9.64949 29.8803L11.0103 28.5332L12 29.5129L13.732 27.7984L12.7423 26.8188L14.1031 25.4717L16.9485 28.2883L18.6804 26.5738L15.8351 23.7573L17.1959 22.4102L18.1856 23.3899L19.9175 21.6754L18.9278 20.6958L20.2887 19.3487L23.134 22.1653L24.866 20.4508L22.0206 17.6342L23.3814 16.2872L24.3711 17.2669L26.1031 15.5524L25.1134 14.5727L26.4742 13.2257L29.3196 16.0423L31.0515 14.3278L28.2062 11.5112L29.567 10.1642L30.5567 11.1439L32.2887 9.42943L31.299 8.44975L32.6598 7.10268L35.5052 9.91927L37.2371 8.20482L34.3918 5.38824L36.3711 3.42888L44.5361 11.5112L11.6289 44.0856L3.46392 36.0033Z" fill="#5E51B0"/>
<path d="M38.845 38.4526H33.8965V40.9019H41.3192V33.5542H38.845V38.4526Z" fill="#5E51B0"/>
<path d="M9.15489 9.06198H14.1033V6.61279H6.68066V13.9603H9.15489V9.06198Z" fill="#5E51B0"/>
</svg>
