<svg width="80" height="80" viewBox="0 0 80 80" fill="none" xmlns="http://www.w3.org/2000/svg">
<path d="M9.22298 14.2141L17.7778 17.7575L14.2344 9.21286L14.2445 9.20273L29.9468 15.7024L36.4566 0.010124L36.4667 0L40.0101 8.5548L43.5535 0.010124L43.5637 0.020248L50.0633 15.7226L65.7758 9.21286L65.7859 9.22298L62.2425 17.7778L70.7871 14.2344L70.7973 14.2445L64.2976 29.9468L79.9899 36.4465L80 36.4667L71.4452 40.0101L79.9899 43.5535L79.9798 43.5637L64.2774 50.0633L70.7871 65.7656L70.777 65.7757L62.2222 62.2323L65.7656 70.777L65.7555 70.7871L50.0532 64.2875L43.5535 79.9899L43.5434 80L40 71.4452L36.4566 79.9899L36.4465 79.9798L29.9468 64.2774L14.2445 70.777L14.2344 70.7669L17.7778 62.2121L9.23311 65.7555L9.22298 65.7454L15.7125 50.0532L0.0101318 43.5535L0 43.5434L8.5548 40L0.0101318 36.4566L0.0202484 36.4465L15.7226 29.9468L9.22298 14.2445V14.2141ZM13.6674 40L26.8388 45.4568L21.3819 58.6181L34.5533 53.1612L40.0101 66.3224L45.467 53.1511L58.6282 58.6079L53.1714 45.4467L66.3326 39.9899L53.1714 34.533L58.6282 21.3718L45.4467 26.8286L39.9899 13.6674L34.5432 26.8286L21.3819 21.3718L26.8388 34.5432L13.6674 40Z"/>
</svg>
