<svg width="56" height="56" viewBox="0 0 56 56" fill="none" xmlns="http://www.w3.org/2000/svg">
<path d="M40.7695 16.2695L43.2305 18.7305L22.75 39.2109L12.7695 29.2305L15.2305 26.7695L22.75 34.2891L40.7695 16.2695ZM28 0C30.5703 0 33.0495 0.328125 35.4375 0.984375C37.8255 1.64062 40.0586 2.57943 42.1367 3.80078C44.2148 5.02214 46.1016 6.48047 47.7969 8.17578C49.4922 9.87109 50.9505 11.7669 52.1719 13.8633C53.3932 15.9596 54.332 18.1927 54.9883 20.5625C55.6445 22.9323 55.9818 25.4115 56 28C56 30.5703 55.6719 33.0495 55.0156 35.4375C54.3594 37.8255 53.4206 40.0586 52.1992 42.1367C50.9779 44.2148 49.5195 46.1016 47.8242 47.7969C46.1289 49.4922 44.2331 50.9505 42.1367 52.1719C40.0404 53.3932 37.8073 54.332 35.4375 54.9883C33.0677 55.6445 30.5885 55.9818 28 56C25.4297 56 22.9505 55.6719 20.5625 55.0156C18.1745 54.3594 15.9414 53.4206 13.8633 52.1992C11.7852 50.9779 9.89844 49.5195 8.20312 47.8242C6.50781 46.1289 5.04948 44.2331 3.82812 42.1367C2.60677 40.0404 1.66797 37.8164 1.01172 35.4648C0.355469 33.1133 0.0182292 30.625 0 28C0 25.4297 0.328125 22.9505 0.984375 20.5625C1.64062 18.1745 2.57943 15.9414 3.80078 13.8633C5.02214 11.7852 6.48047 9.89844 8.17578 8.20312C9.87109 6.50781 11.7669 5.04948 13.8633 3.82812C15.9596 2.60677 18.1836 1.66797 20.5352 1.01172C22.8867 0.355469 25.375 0.0182292 28 0ZM28 52.5C30.2422 52.5 32.4023 52.2083 34.4805 51.625C36.5586 51.0417 38.5091 50.2214 40.332 49.1641C42.1549 48.1068 43.8138 46.8216 45.3086 45.3086C46.8034 43.7956 48.0794 42.1458 49.1367 40.3594C50.194 38.5729 51.0234 36.6224 51.625 34.5078C52.2266 32.3932 52.5182 30.224 52.5 28C52.5 25.7578 52.2083 23.5977 51.625 21.5195C51.0417 19.4414 50.2214 17.4909 49.1641 15.668C48.1068 13.8451 46.8216 12.1862 45.3086 10.6914C43.7956 9.19661 42.1458 7.92057 40.3594 6.86328C38.5729 5.80599 36.6224 4.97656 34.5078 4.375C32.3932 3.77344 30.224 3.48177 28 3.5C25.7578 3.5 23.5977 3.79167 21.5195 4.375C19.4414 4.95833 17.4909 5.77865 15.668 6.83594C13.8451 7.89323 12.1862 9.17839 10.6914 10.6914C9.19661 12.2044 7.92057 13.8542 6.86328 15.6406C5.80599 17.4271 4.97656 19.3776 4.375 21.4922C3.77344 23.6068 3.48177 25.776 3.5 28C3.5 30.2422 3.79167 32.4023 4.375 34.4805C4.95833 36.5586 5.77865 38.5091 6.83594 40.332C7.89323 42.1549 9.17839 43.8138 10.6914 45.3086C12.2044 46.8034 13.8542 48.0794 15.6406 49.1367C17.4271 50.194 19.3776 51.0234 21.4922 51.625C23.6068 52.2266 25.776 52.5182 28 52.5Z" fill="#5CCCB6"/>
</svg>
