<svg width="39" height="39" viewBox="0 0 39 39" fill="none" xmlns="http://www.w3.org/2000/svg">
<path d="M37.333 11.667V1.66699H27.333" stroke="#5CCCB6" stroke-width="3.33333" stroke-linecap="round" stroke-linejoin="round" fill="transparent"/>
<path d="M25.666 13.3337L37.3327 1.66699" stroke="#5CCCB6" stroke-width="3.33333" stroke-linecap="round" stroke-linejoin="round" fill="transparent"/>
<path d="M35.6664 28.2008V33.2008C35.6683 33.665 35.5732 34.1244 35.3872 34.5497C35.2013 34.975 34.9286 35.3568 34.5865 35.6706C34.2445 35.9844 33.8407 36.2233 33.401 36.372C32.9613 36.5207 32.4953 36.5759 32.0331 36.5341C26.9044 35.9769 21.9781 34.2244 17.6497 31.4175C13.6228 28.8586 10.2086 25.4444 7.64973 21.4175C4.83302 17.0695 3.08013 12.1191 2.53306 6.96748C2.49141 6.50659 2.54618 6.04208 2.69389 5.60352C2.8416 5.16496 3.07901 4.76196 3.391 4.42018C3.70299 4.0784 4.08273 3.80533 4.50604 3.61835C4.92935 3.43137 5.38696 3.33458 5.84973 3.33415H10.8497C11.6586 3.32619 12.4427 3.61261 13.056 4.14003C13.6693 4.66746 14.0699 5.39989 14.1831 6.20081C14.3941 7.80092 14.7855 9.37202 15.3497 10.8841C15.574 11.4807 15.6225 12.129 15.4896 12.7523C15.3566 13.3756 15.0478 13.9477 14.5997 14.4008L12.4831 16.5175C14.8557 20.6901 18.3105 24.1449 22.4831 26.5175L24.5997 24.4008C25.0529 23.9527 25.625 23.6439 26.2483 23.511C26.8715 23.378 27.5199 23.4266 28.1164 23.6508C29.6285 24.2151 31.1996 24.6064 32.7997 24.8175C33.6093 24.9317 34.3487 25.3395 34.8773 25.9633C35.4058 26.5871 35.6867 27.3834 35.6664 28.2008Z" stroke="#5CCCB6" stroke-width="3.33333" stroke-linecap="round" stroke-linejoin="round" fill="transparent"/>
</svg>
