<svg width="24" height="24" viewBox="0 0 24 24" fill="none" xmlns="http://www.w3.org/2000/svg">
<path d="M5.16792 14.2148C4.82417 14.2148 4.49604 14.2773 4.18354 14.4023C3.87104 14.5273 3.58979 14.7148 3.33979 14.9648L0.761669 17.543C0.519482 17.7852 0.335888 18.0625 0.210888 18.375C0.0858879 18.6875 0.0194817 19.0195 0.0116692 19.3711C0.0116692 19.7148 0.0741692 20.043 0.199169 20.3555C0.324169 20.668 0.511669 20.9492 0.761669 21.1992L0.925732 21.3633C1.34761 21.7852 1.73433 22.1602 2.08589 22.4883C2.43745 22.8164 2.80464 23.0898 3.18745 23.3086C3.57026 23.5273 3.99604 23.6992 4.46479 23.8242C4.93354 23.9492 5.49214 24.0078 6.14058 24C7.11714 24 8.12104 23.8477 9.15229 23.543C10.1835 23.2383 11.207 22.8164 12.2226 22.2773C13.2382 21.7383 14.2382 21.0977 15.2226 20.3555C16.207 19.6133 17.1328 18.8047 18 17.9297C18.8671 17.0547 19.6718 16.125 20.414 15.1406C21.1562 14.1562 21.789 13.1562 22.3125 12.1406C22.8359 11.125 23.25 10.1055 23.5546 9.08203C23.8593 8.05859 24.0078 7.07422 24 6.12891C24 5.48047 23.9453 4.92578 23.8359 4.46484C23.7265 4.00391 23.5585 3.58203 23.332 3.19922C23.1054 2.81641 22.832 2.45312 22.5117 2.10938C22.1914 1.76562 21.8164 1.37891 21.3867 0.949219L21.1992 0.761719C20.957 0.519531 20.6796 0.332031 20.3671 0.199219C20.0546 0.0664062 19.7226 0 19.371 0C19.0273 0 18.6992 0.0664062 18.3867 0.199219C18.0742 0.332031 17.7929 0.519531 17.5429 0.761719L14.9648 3.33984C14.7226 3.58203 14.539 3.85938 14.414 4.17188C14.289 4.48438 14.2226 4.81641 14.2148 5.16797C14.2148 5.51172 14.2734 5.81641 14.3906 6.08203C14.5078 6.34766 14.6523 6.59375 14.8242 6.82031C14.996 7.04688 15.1835 7.24609 15.3867 7.41797C15.5898 7.58984 15.7812 7.76562 15.9609 7.94531C16.1406 8.125 16.2851 8.29688 16.3945 8.46094C16.5039 8.625 16.5625 8.81641 16.5703 9.03516C16.5703 9.33203 16.4648 9.58594 16.2539 9.79688L9.79683 16.2539C9.58589 16.4648 9.33198 16.5703 9.03511 16.5703C8.83198 16.5703 8.64448 16.5117 8.47261 16.3945C8.30073 16.2773 8.12495 16.1328 7.94526 15.9609C7.76558 15.7891 7.58979 15.6016 7.41792 15.3984C7.24604 15.1953 7.04683 15.0039 6.82026 14.8242C6.5937 14.6445 6.35151 14.5 6.0937 14.3906C5.83589 14.2812 5.52729 14.2227 5.16792 14.2148ZM6.14058 22.5C5.57808 22.5 5.10933 22.4492 4.73433 22.3477C4.35933 22.2461 4.01558 22.0938 3.70308 21.8906C3.39058 21.6875 3.0937 21.4375 2.81245 21.1406C2.5312 20.8438 2.19917 20.5078 1.81636 20.1328C1.60542 19.9219 1.49995 19.668 1.49995 19.3711C1.49995 19.2305 1.55464 19.0664 1.66401 18.8789C1.77339 18.6914 1.92183 18.4883 2.10933 18.2695C2.29683 18.0508 2.49604 17.8359 2.70698 17.625C2.91792 17.4141 3.13667 17.2031 3.36323 16.9922C3.58979 16.7812 3.78901 16.5977 3.96089 16.4414C4.13276 16.2852 4.27729 16.1484 4.39448 16.0312C4.60542 15.8203 4.86323 15.7148 5.16792 15.7148C5.37104 15.7148 5.55854 15.7734 5.73042 15.8906C5.90229 16.0078 6.07417 16.1523 6.24604 16.3242C6.41792 16.4961 6.5937 16.6836 6.77339 16.8867C6.95308 17.0898 7.1562 17.2812 7.38276 17.4609C7.60933 17.6406 7.85151 17.7852 8.10933 17.8945C8.36714 18.0039 8.67573 18.0625 9.03511 18.0703C9.37886 18.0703 9.70698 18.0078 10.0195 17.8828C10.332 17.7578 10.6132 17.5703 10.8632 17.3203L17.3203 10.8633C17.5625 10.6211 17.746 10.3438 17.871 10.0312C17.996 9.71875 18.0625 9.38672 18.0703 9.03516C18.0703 8.69141 18.0117 8.38672 17.8945 8.12109C17.7773 7.85547 17.6328 7.60938 17.4609 7.38281C17.289 7.15625 17.1015 6.95703 16.8984 6.78516C16.6953 6.61328 16.5039 6.43359 16.3242 6.24609C16.1445 6.05859 16 5.88672 15.8906 5.73047C15.7812 5.57422 15.7226 5.38672 15.7148 5.16797C15.7148 4.86328 15.8203 4.60547 16.0312 4.39453C16.1328 4.29297 16.2656 4.15234 16.4296 3.97266C16.5937 3.79297 16.7773 3.59375 16.9804 3.375C17.1835 3.15625 17.3945 2.9375 17.6132 2.71875C17.832 2.5 18.0507 2.29688 18.2695 2.10938C18.4882 1.92188 18.6875 1.77734 18.8671 1.67578C19.0468 1.57422 19.2148 1.51562 19.371 1.5C19.6679 1.5 19.9218 1.60547 20.1328 1.81641L21.1289 2.8125C21.4179 3.10156 21.6679 3.39844 21.8789 3.70312C22.0898 4.00781 22.246 4.34766 22.3476 4.72266C22.4492 5.09766 22.5039 5.56641 22.5117 6.12891C22.5117 7.00391 22.371 7.90625 22.0898 8.83594C21.8085 9.76562 21.414 10.6953 20.9062 11.625C20.3984 12.5547 19.8007 13.4688 19.1132 14.3672C18.4257 15.2656 17.6757 16.1211 16.8632 16.9336C16.0507 17.7461 15.1953 18.4883 14.2968 19.1602C13.3984 19.832 12.4843 20.418 11.5546 20.918C10.625 21.418 9.70308 21.8047 8.78901 22.0781C7.87495 22.3516 6.99214 22.4922 6.14058 22.5Z" fill="#5CCCB6"/>
</svg>
