<svg width="475" height="67" viewBox="0 0 475 67" fill="none" xmlns="http://www.w3.org/2000/svg">
<path d="M0 1.30078H38.8065L61.3533 37.5111L84.3336 1.30078H121.406V65.9157H93.6559V25.5856L67.6403 65.9157H53.3318L27.5331 25.5856V65.9157H0V1.30078Z" fill="#E9E9E9"/>
<path d="M212.243 1.30078V17.1293H158.261V25.1519H211.159V40.7636H158.261V49.6535H212.894V65.6988H130.511V1.30078H212.243Z" fill="#E9E9E9"/>
<path d="M220.265 1.30078H248.448V24.0678H294.626V1.30078H322.809V65.9157H294.626V41.1972H248.448V65.6988H220.265V1.30078Z" fill="#E9E9E9"/>
<path d="M475 34.6926C475 46.835 468.279 67 423.836 67H420.151C383.295 67 372.239 52.9062 369.854 41.1974H359.881V65.699H331.698V1.30097H359.881V24.068H370.071C373.323 12.7929 384.162 0 419.934 0H423.619C468.279 0 474.783 19.9482 474.783 32.0906V34.6926H475ZM445.733 32.5243C445.733 25.5858 440.529 17.3463 421.885 17.3463C402.807 17.3463 398.037 25.8026 398.037 32.5243V33.6084C398.037 40.3301 403.241 49.4369 421.885 49.4369C440.746 49.4369 445.733 40.7638 445.733 33.8252V32.5243Z" fill="#E9E9E9"/>
</svg>
