<?xml version="1.0" standalone="no"?>
<!DOCTYPE svg PUBLIC "-//W3C//DTD SVG 20010904//EN"
 "http://www.w3.org/TR/2001/REC-SVG-20010904/DTD/svg10.dtd">
<svg version="1.0" xmlns="http://www.w3.org/2000/svg"
 width="512.000000pt" height="512.000000pt" viewBox="0 0 512.000000 512.000000"
 preserveAspectRatio="xMidYMid meet">
<metadata>
Created by potrace 1.11, written by Peter Selinger 2001-2013
</metadata>
<g transform="translate(0.000000,512.000000) scale(0.100000,-0.100000)"
fill="#000000" stroke="none">
<path d="M0 2560 l0 -2560 2560 0 2560 0 0 2560 0 2560 -2560 0 -2560 0 0
-2560z m3375 687 c152 -38 272 -120 313 -216 45 -104 38 -247 -17 -334 -23
-35 -44 -52 -100 -80 -39 -20 -97 -41 -128 -48 l-58 -12 80 -21 c153 -42 237
-101 287 -204 31 -63 33 -72 32 -172 -1 -82 -6 -117 -23 -161 -52 -136 -200
-223 -431 -254 -83 -12 -272 -15 -917 -15 l-813 0 0 770 0 771 853 -4 c763 -3
859 -5 922 -20z"/>
<path d="M2162 2818 l3 -113 425 -3 c234 -1 439 0 457 3 17 3 45 19 62 34 27
25 31 36 31 78 0 42 -5 54 -31 79 l-30 29 -460 3 -460 3 3 -113z"/>
<path d="M2164 2347 c-2 -7 -3 -65 -2 -128 l3 -114 459 -3 c286 -1 472 2 496
8 20 5 49 22 64 36 21 22 26 36 26 79 0 68 -24 99 -92 120 -71 21 -946 23
-954 2z"/>
</g>
</svg>
