<svg width="140" height="88" viewBox="0 0 140 88" fill="none" xmlns="http://www.w3.org/2000/svg"><path d="M88.843 32.853a62.126 62.126 0 01-9.302-30.17C79.481 1.193 78.229 0 76.739 0H64.396a2.79 2.79 0 00-2.802 2.922 58.656 58.656 0 0017.708 39.173c1.074 1.074 2.803 1.074 3.936 0a58.146 58.146 0 005.426-6.081c.715-.895.775-2.147.179-3.16z" fill="#D91F26"/><path d="M101.006 0H85.92a2.79 2.79 0 00-2.803 2.922 58.603 58.603 0 006.38 23.91c1.073 2.027 3.935 2.027 4.949 0 .06-.12.12-.24.179-.418.06-.06.06-.12.12-.179 4.054-7.87 6.26-16.814 6.26-26.235z" fill="#F6D432"/><path d="M67.317 32.853a62.125 62.125 0 01-9.301-30.17C57.956 1.193 56.704 0 55.213 0H39.95c0 10.852 2.922 21.048 8.11 29.753.119.179.238.358.297.537.06.119.18.238.239.357l.537.895c.06.06.119.179.178.238.716 1.133 1.491 2.206 2.266 3.28a58.074 58.074 0 006.201 7.095c.12.12.298.239.417.298a2.884 2.884 0 003.459-.358 58.146 58.146 0 005.426-6.081c.775-.895.835-2.147.238-3.16zM103.271 66.9l-5.307 12.82-5.008-13.774-5.247 13.773L82.7 66.9h-3.1l8.109 20.393 5.187-13.595 4.949 13.595L106.37 66.9h-3.1zm11.328-.418c-2.743 0-5.128.954-7.095 2.922-1.968 1.967-2.982 4.233-2.982 6.976 0 3.1 1.074 5.545 3.28 7.453 1.967 1.729 4.174 2.564 6.678 2.564 2.802 0 5.187-.954 7.155-2.922 1.968-1.908 2.981-4.293 2.981-7.036 0-2.742-.954-5.068-2.921-7.035-2.028-1.908-4.353-2.922-7.096-2.922zm4.949 15.145c-1.371 1.371-3.1 2.087-5.128 2.087-1.848 0-3.518-.656-4.889-2.028-1.431-1.371-2.147-3.1-2.147-5.247 0-2.027.716-3.696 2.087-5.127 1.372-1.372 3.041-2.087 5.069-2.087 2.027 0 3.696.715 5.068 2.087 1.371 1.371 2.027 3.1 2.027 5.127 0 2.028-.656 3.757-2.087 5.188zm11.747-6.082L140 66.9h-3.875l-7.513 7.632V66.9h-2.862v19.2h2.862v-7.99l.596-.596 6.917 8.586H140l-8.705-10.554z" fill="#861619"/><path d="M56.764 83.654h-6.56V67.198h-2.92v16.456h-6.56V67.198h-2.921v19.2h21.882v-19.2h-2.921v16.456zm7.631-3.458V66.9h-2.862v20.332l14.012-14.608v13.475h2.862V65.588L64.395 80.196zM26.772 77.99l-6.38-11.09h-3.34l8.05 13.952-2.981 5.247h3.339l1.312-2.326 1.67-2.921 8.108-13.953h-3.339l-6.44 11.09zm-11.806 3.637c-1.371 1.371-3.1 2.087-5.128 2.087-1.848 0-3.518-.656-4.89-2.028-1.43-1.371-2.146-3.1-2.146-5.247 0-2.027.716-3.696 2.087-5.127 1.372-1.372 3.041-2.087 5.068-2.087 2.028 0 3.697.715 5.069 2.087l.06.06 1.967-1.968c-1.968-1.908-4.293-2.922-6.976-2.922-2.743 0-5.128.954-7.096 2.922C1.014 71.37 0 73.637 0 76.38c0 3.1 1.073 5.545 3.28 7.453 1.967 1.729 4.173 2.564 6.677 2.564 2.803 0 5.188-.954 7.155-2.862l-1.967-1.968c-.12 0-.12.06-.18.06z" fill="#D91F26"/></svg>