<svg width="16" height="16" viewBox="0 0 16 16" fill="none" xmlns="http://www.w3.org/2000/svg">
<path d="M6.29004 15.4692C6.78809 15.4692 7.17822 15.27 7.45215 14.8633L15.2217 2.87695C15.4209 2.57812 15.5039 2.3042 15.5039 2.04688C15.5039 1.36621 15.0059 0.876465 14.3086 0.876465C13.8271 0.876465 13.5366 1.04248 13.2461 1.50732L6.25684 12.564L2.6875 8.06494C2.40527 7.72461 2.11475 7.56689 1.69971 7.56689C0.994141 7.56689 0.487793 8.06494 0.487793 8.75391C0.487793 9.05273 0.587402 9.33496 0.844727 9.63379L5.13623 14.9048C5.45996 15.2949 5.81689 15.4692 6.29004 15.4692Z" fill="#5CCCB6"/>
</svg>
