<svg xmlns="http://www.w3.org/2000/svg" xmlns:xlink="http://www.w3.org/1999/xlink"><defs><clipPath id="clip0"><path fill="#fff" transform="translate(64 64)" d="M0 0h627.39v154.4H0z"/></clipPath><clipPath id="clip1"><path fill="#fff" transform="translate(691)" d="M0 0h64v64H0z"/></clipPath><clipPath id="clip2"><path fill="#fff" transform="rotate(-180 32 140)" d="M0 0h64v64H0z"/></clipPath></defs><symbol id="404" viewBox="0 0 755 280"><g clip-path="url(#clip0)" fill="#000"><path d="M168 66h62.4v82.8h31v38.4h-31v28.4h-56.6v-28.4H64V155l104-89zm5.8 38.4l-52 44.4h52v-44.4zM486.801 144c0 27-12.8 74.4-104.4 74.4h-9c-91.8 0-104.6-47.4-104.6-74.4v-6c0-27.4 12.8-74 104.6-74h9c91.6 0 104.4 46.6 104.4 74v6zm-59-4.8c0-15.4-10-35.2-50-35.2-41 0-50.2 19.8-50.2 35.2v2.4c0 15.4 10 36.4 50.2 36.4 40 0 50-20.8 50-36.2v-2.6zM598 66h62.4v82.8h31v38.4h-31v28.4h-56.6v-28.4H494V155l104-89zm5.79 38.4l-52 44.4h52v-44.4z"/></g><g clip-path="url(#clip1)"><path d="M691.027 21.362h42.649v42.61l.027.028L755 42.722V0h-42.648L691 21.332l.027.03z" fill="#5CCCB6"/></g><g clip-path="url(#clip2)"><path d="M63.973 258.638H21.324v-42.611l-.027-.027L0 237.278V280h42.648L64 258.667l-.027-.029z" fill="#5CCCB6"/></g></symbol><symbol id="about-us" viewBox="0 0 20 20"><path d="M14 19.321v.5h.5v-.5H14zm-13.333 0h-.5v.5h.5v-.5zm18.666.012v.5h.5v-.5h-.5zm-8.5-14.669a3.498 3.498 0 01-3.5 3.498v1c2.486 0 4.5-2.014 4.5-4.498h-1zm-3.5 3.498a3.498 3.498 0 01-3.5-3.498h-1a4.498 4.498 0 004.5 4.498v-1zm-3.5-3.498a3.498 3.498 0 013.5-3.497v-1a4.498 4.498 0 00-4.5 4.497h1zm3.5-3.497c1.934 0 3.5 1.566 3.5 3.497h1a4.498 4.498 0 00-4.5-4.497v1zM14 18.82H.667v1H14v-1zm-12.833.5v-2.663h-1v2.664h1zm3.5-6.162H10v-1H4.667v1zm8.833 3.5v2.662h1v-2.663h-1zm-3.5-3.5a3.5 3.5 0 013.5 3.5h1a4.5 4.5 0 00-4.5-4.5v1zm-8.833 3.5a3.5 3.5 0 013.5-3.5v-1a4.5 4.5 0 00-4.5 4.5h1zm17.666.674v2h1v-2h-1zm.5 1.5H16v1h3.333v-1zM16 14.5a2.833 2.833 0 012.833 2.833h1A3.833 3.833 0 0016 13.5v1zm-.667-3.667a2.167 2.167 0 01-2.166-2.166h-1a3.167 3.167 0 003.166 3.166v-1zM17.5 8.667c0 1.196-.97 2.166-2.167 2.166v1A3.167 3.167 0 0018.5 8.667h-1zM15.333 6.5c1.197 0 2.167.97 2.167 2.167h1A3.167 3.167 0 0015.333 5.5v1zm0-1a3.167 3.167 0 00-3.166 3.167h1c0-1.197.97-2.167 2.166-2.167v-1z" stroke="transparent"/></symbol><symbol id="advertising-icon-1" viewBox="0 0 40 40"><path d="M20 0l10.017 10.006L40 19.976V40H20L9.982 29.994 0 20.024V0h20zm10.006 29.983V10.017h-20v19.977h20v-.011z"/></symbol><symbol id="advertising-icon-2" viewBox="0 0 69 69"><path d="M14.113 20.893H.5v.01l13.591 13.592L.5 48.097v.011h13.569l13.635-13.624-13.59-13.591zm54.387 0H54.92L41.296 34.517l13.591 13.591H68.5v-.011L54.898 34.495 68.5 20.904v-.011zM20.893 54.886v13.613h.01l13.592-13.59 13.59 13.59h.023V54.92L34.484 41.295 20.893 54.886zm27.215-40.773V.5h-.022L34.495 14.091 20.904.5h-.011v13.58l13.624 13.624 13.591-13.59z"/></symbol><symbol id="advertising-text" viewBox="0 0 206 57"><path fill="#000" d="M0 .5h206V27H0zm0 30h184V57H0z"/><path d="M29.55 16.6c0 2.55-2.35 4.75-11.15 4.75h-1.1C9.95 21.4 6 19.45 6 15.8v-.3h6.75c.05 1.45 1.65 2.2 5.35 2.2 3.4 0 4.7-.5 4.7-1.3v-.05c0-.8-1.2-1.15-3.7-1.15h-5v-3.4h5c2.3 0 3.35-.25 3.35-.95v-.1c0-.7-1.35-1.1-4.45-1.1-3 0-5.1.5-5.2 2H6.05v-.3c0-2.85 3.4-5.25 11.2-5.25h1.05C26.7 6.1 29 7.9 29 9.9v.2c0 1.5-1.45 2.75-4.2 3 3.05.25 4.75 1.6 4.75 3.35v.15zM43.95 6c11 0 12.4 4.6 12.4 7.4v.6c0 2.8-1.4 7.45-12.4 7.45H42.9c-11 0-12.4-4.7-12.4-7.45v-.6c0-2.8 1.4-7.4 12.45-7.4h1zm5.7 7.5c0-1.6-1.15-3.5-6.2-3.5-5.15 0-6.2 1.95-6.2 3.5v.25c0 1.55 1.15 3.65 6.2 3.65 5.05 0 6.2-2 6.2-3.6v-.3zm8.25-7.2h16.05c4.95 0 6.3 1.7 6.3 3.4v.2c0 1.85-1.8 2.7-2.95 2.9 1.5.3 3.9 1.2 3.9 3.8v.25c0 2.35-1.65 4.3-7.2 4.3H57.9V6.3zm6.5 3.35v2.1h7.55c1.35 0 1.75-.5 1.75-1.05 0-.6-.4-1-1.75-1H64.4v-.05zm0 5.45v2.55h7.95c1.7 0 2-.7 2-1.3v-.05c0-.65-.35-1.2-2-1.2H64.4zm17.95-8.8h6.5v5.25H99.5V6.3h6.5v14.9h-6.5v-5.7H88.85v5.65h-6.5V6.3zm32.25 14.85h-6.5V6.3h6.5v14.85zm2-14.85h6.65v10.9h6.6V6.3h6.65v10.9h6.6V6.3h6.65v14.9h-33.1V6.3h-.05zm35.2 0h6.5v5.25h10.65V6.3h6.5v14.9h-6.5v-5.7H158.3v5.65h-6.5V6.3zm38.5 10.1l-5.8 4.8h-8l6.5-5.1c-4.15-.5-5.85-2.3-5.85-4.6v-.3c0-2.5 1.85-4.9 7.75-4.9h15v14.9h-6.5v-4.8h-3.1zm3-6.4h-7.4c-1.5 0-2.05.65-2.05 1.4v.05c0 .8.6 1.4 2.1 1.4h7.4V10h-.05zM12.5 46.5v4.65H6V36.3h14.2c6.3 0 8.1 2.2 8.1 4.9v.3c0 2.7-1.85 5-8.1 5h-7.7zm0-3.7h6.9c1.5 0 2.15-.55 2.15-1.35v-.05c0-.85-.6-1.35-2.15-1.35h-6.9v2.75zm35.95-6.5v3.65h-12.4v1.85h12.2v3.6h-12.2v2.05h12.6v3.7H29.6V36.3h18.85zm8.35 8.2v6.65h-6.5V36.3h6.5v5.9l8.4-5.9h8.1l-9.9 6.75 10.25 8.1H65.2l-8.4-6.65zm32.8-4.4h-7.05c0 5.9-.45 7.8-1.35 9.1-.9 1.35-2.35 2-5.45 2h-2.1v-4.25H74c.9 0 1.45-.1 1.85-.55.65-.7.85-2.35.85-10.1h19.45v14.9h-6.5V40.1h-.05zm24.8 8.65h-9.75l-1.3 2.4h-6.6l8.45-14.9h8.75l8.9 14.9h-7.1l-1.35-2.4zm-4.95-8.85l-2.8 5.1h5.65l-2.85-5.1zm14-3.6h8.95l5.2 8.35 5.3-8.35h8.55v14.9H145v-9.3l-6 9.3h-3.3l-5.95-9.3v9.3h-6.3V36.3zm46.25 12.45h-9.75l-1.3 2.4h-6.6l8.45-14.9h8.75l8.9 14.9h-7.1l-1.35-2.4zm-4.95-8.85l-2.8 5.15h5.65l-2.85-5.15z" fill="#fff"/></symbol><symbol id="arrow-right" viewBox="0 0 9 16"><path d="M2 15a1 1 0 01-.77-1.64L5.71 8 1.39 2.63a1 1 0 01.15-1.41A1 1 0 013 1.37l4.83 6a1 1 0 010 1.27l-5 6A1 1 0 012 15z"/></symbol><symbol id="calc-dots" viewBox="0 0 551 430"><circle cx="2" cy="142" r="2" fill="#5CCCB6"/><circle cx="2" cy="156" r="2" fill="#5CCCB6"/><circle cx="2" cy="170" r="2" fill="#5CCCB6"/><circle cx="2" cy="184" r="2" fill="#5CCCB6"/><circle cx="2" cy="198" r="2" fill="#5CCCB6"/><circle cx="2" cy="212" r="2" fill="#5CCCB6"/><circle cx="2" cy="226" r="2" fill="#5CCCB6"/><circle cx="2" cy="240" r="2" fill="#5CCCB6"/><circle cx="2" cy="254" r="2" fill="#5CCCB6"/><circle cx="2" cy="268" r="2" fill="#5CCCB6"/><circle cx="16" cy="142" r="2" fill="#5CCCB6"/><circle cx="16" cy="156" r="2" fill="#5CCCB6"/><circle cx="16" cy="170" r="2" fill="#5CCCB6"/><circle cx="16" cy="184" r="2" fill="#5CCCB6"/><circle cx="16" cy="198" r="2" fill="#5CCCB6"/><circle cx="16" cy="212" r="2" fill="#5CCCB6"/><circle cx="16" cy="226" r="2" fill="#5CCCB6"/><circle cx="16" cy="240" r="2" fill="#5CCCB6"/><circle cx="16" cy="254" r="2" fill="#5CCCB6"/><circle cx="16" cy="268" r="2" fill="#5CCCB6"/><circle cx="30" cy="142" r="2" fill="#5CCCB6"/><circle cx="30" cy="156" r="2" fill="#5CCCB6"/><circle cx="30" cy="170" r="2" fill="#5CCCB6"/><circle cx="30" cy="184" r="2" fill="#5CCCB6"/><circle cx="30" cy="198" r="2" fill="#5CCCB6"/><circle cx="30" cy="212" r="2" fill="#5CCCB6"/><circle cx="30" cy="226" r="2" fill="#5CCCB6"/><circle cx="30" cy="240" r="2" fill="#5CCCB6"/><circle cx="30" cy="254" r="2" fill="#5CCCB6"/><circle cx="30" cy="268" r="2" fill="#5CCCB6"/><circle cx="44" cy="156" r="2" fill="#5CCCB6"/><circle cx="44" cy="170" r="2" fill="#5CCCB6"/><circle cx="44" cy="184" r="2" fill="#5CCCB6"/><circle cx="44" cy="198" r="2" fill="#5CCCB6"/><circle cx="44" cy="212" r="2" fill="#5CCCB6"/><circle cx="44" cy="226" r="2" fill="#5CCCB6"/><circle cx="44" cy="240" r="2" fill="#5CCCB6"/><circle cx="44" cy="254" r="2" fill="#5CCCB6"/><circle cx="44" cy="268" r="2" fill="#5CCCB6"/><circle cx="58" cy="156" r="2" fill="#5CCCB6"/><circle cx="58" cy="170" r="2" fill="#5CCCB6"/><circle cx="58" cy="184" r="2" fill="#5CCCB6"/><circle cx="58" cy="198" r="2" fill="#5CCCB6"/><circle cx="58" cy="212" r="2" fill="#5CCCB6"/><circle cx="58" cy="226" r="2" fill="#5CCCB6"/><circle cx="58" cy="240" r="2" fill="#5CCCB6"/><circle cx="58" cy="254" r="2" fill="#5CCCB6"/><circle cx="58" cy="268" r="2" fill="#5CCCB6"/><circle cx="72" cy="156" r="2" fill="#5CCCB6"/><circle cx="72" cy="170" r="2" fill="#5CCCB6"/><circle cx="72" cy="184" r="2" fill="#5CCCB6"/><circle cx="72" cy="198" r="2" fill="#5CCCB6"/><circle cx="72" cy="212" r="2" fill="#5CCCB6"/><circle cx="72" cy="226" r="2" fill="#5CCCB6"/><circle cx="72" cy="240" r="2" fill="#5CCCB6"/><circle cx="72" cy="254" r="2" fill="#5CCCB6"/><circle cx="72" cy="268" r="2" fill="#5CCCB6"/><circle cx="86" cy="156" r="2" fill="#5CCCB6"/><circle cx="86" cy="170" r="2" fill="#5CCCB6"/><circle cx="86" cy="184" r="2" fill="#5CCCB6"/><circle cx="86" cy="198" r="2" fill="#5CCCB6"/><circle cx="86" cy="212" r="2" fill="#5CCCB6"/><circle cx="86" cy="226" r="2" fill="#5CCCB6"/><circle cx="86" cy="240" r="2" fill="#5CCCB6"/><circle cx="86" cy="254" r="2" fill="#5CCCB6"/><circle cx="86" cy="268" r="2" fill="#5CCCB6"/><circle cx="100" cy="156" r="2" fill="#5CCCB6"/><circle cx="100" cy="170" r="2" fill="#5CCCB6"/><circle cx="100" cy="184" r="2" fill="#5CCCB6"/><circle cx="100" cy="198" r="2" fill="#5CCCB6"/><circle cx="100" cy="212" r="2" fill="#5CCCB6"/><circle cx="100" cy="226" r="2" fill="#5CCCB6"/><circle cx="100" cy="240" r="2" fill="#5CCCB6"/><circle cx="100" cy="254" r="2" fill="#5CCCB6"/><circle cx="100" cy="268" r="2" fill="#5CCCB6"/><circle cx="114" cy="156" r="2" fill="#5CCCB6"/><circle cx="114" cy="170" r="2" fill="#5CCCB6"/><circle cx="114" cy="184" r="2" fill="#5CCCB6"/><circle cx="114" cy="198" r="2" fill="#5CCCB6"/><circle cx="114" cy="212" r="2" fill="#5CCCB6"/><circle cx="114" cy="226" r="2" fill="#5CCCB6"/><circle cx="114" cy="240" r="2" fill="#5CCCB6"/><circle cx="114" cy="254" r="2" fill="#5CCCB6"/><circle cx="114" cy="268" r="2" fill="#5CCCB6"/><circle cx="128" cy="212" r="2" fill="#5CCCB6"/><circle cx="128" cy="226" r="2" fill="#5CCCB6"/><circle cx="128" cy="240" r="2" fill="#5CCCB6"/><circle cx="128" cy="254" r="2" fill="#5CCCB6"/><circle cx="128" cy="268" r="2" fill="#5CCCB6"/><circle cx="142" cy="212" r="2" fill="#5CCCB6"/><circle cx="142" cy="226" r="2" fill="#5CCCB6"/><circle cx="142" cy="240" r="2" fill="#5CCCB6"/><circle cx="142" cy="254" r="2" fill="#5CCCB6"/><circle cx="142" cy="268" r="2" fill="#5CCCB6"/><circle cx="156" cy="212" r="2" fill="#5CCCB6"/><circle cx="156" cy="226" r="2" fill="#5CCCB6"/><circle cx="156" cy="240" r="2" fill="#5CCCB6"/><circle cx="156" cy="254" r="2" fill="#5CCCB6"/><circle cx="156" cy="268" r="2" fill="#5CCCB6"/><circle cx="170" cy="142" r="2" fill="#5CCCB6"/><circle cx="170" cy="156" r="2" fill="#5CCCB6"/><circle cx="170" cy="170" r="2" fill="#5CCCB6"/><circle cx="170" cy="184" r="2" fill="#5CCCB6"/><circle cx="170" cy="198" r="2" fill="#5CCCB6"/><circle cx="170" cy="212" r="2" fill="#5CCCB6"/><circle cx="170" cy="226" r="2" fill="#5CCCB6"/><circle cx="170" cy="240" r="2" fill="#5CCCB6"/><circle cx="170" cy="254" r="2" fill="#5CCCB6"/><circle cx="170" cy="268" r="2" fill="#5CCCB6"/><circle cx="184" cy="142" r="2" fill="#5CCCB6"/><circle cx="184" cy="156" r="2" fill="#5CCCB6"/><circle cx="184" cy="170" r="2" fill="#5CCCB6"/><circle cx="184" cy="184" r="2" fill="#5CCCB6"/><circle cx="184" cy="198" r="2" fill="#5CCCB6"/><circle cx="184" cy="212" r="2" fill="#5CCCB6"/><circle cx="184" cy="226" r="2" fill="#5CCCB6"/><circle cx="184" cy="240" r="2" fill="#5CCCB6"/><circle cx="184" cy="254" r="2" fill="#5CCCB6"/><circle cx="184" cy="268" r="2" fill="#5CCCB6"/><circle cx="198" cy="142" r="2" fill="#5CCCB6"/><circle cx="198" cy="156" r="2" fill="#5CCCB6"/><circle cx="198" cy="170" r="2" fill="#5CCCB6"/><circle cx="198" cy="184" r="2" fill="#5CCCB6"/><circle cx="198" cy="198" r="2" fill="#5CCCB6"/><circle cx="198" cy="212" r="2" fill="#5CCCB6"/><circle cx="198" cy="226" r="2" fill="#5CCCB6"/><circle cx="198" cy="240" r="2" fill="#5CCCB6"/><circle cx="198" cy="254" r="2" fill="#5CCCB6"/><circle cx="198" cy="268" r="2" fill="#5CCCB6"/><circle cx="212" cy="142" r="2" fill="#5CCCB6"/><circle cx="212" cy="156" r="2" fill="#5CCCB6"/><circle cx="212" cy="170" r="2" fill="#5CCCB6"/><circle cx="212" cy="184" r="2" fill="#5CCCB6"/><circle cx="212" cy="198" r="2" fill="#5CCCB6"/><circle cx="212" cy="212" r="2" fill="#5CCCB6"/><circle cx="212" cy="226" r="2" fill="#5CCCB6"/><circle cx="212" cy="240" r="2" fill="#5CCCB6"/><circle cx="212" cy="254" r="2" fill="#5CCCB6"/><circle cx="212" cy="268" r="2" fill="#5CCCB6"/><circle cx="226" cy="142" r="2" fill="#5CCCB6"/><circle cx="226" cy="156" r="2" fill="#5CCCB6"/><circle cx="226" cy="170" r="2" fill="#5CCCB6"/><circle cx="226" cy="184" r="2" fill="#5CCCB6"/><circle cx="226" cy="198" r="2" fill="#5CCCB6"/><circle cx="226" cy="212" r="2" fill="#5CCCB6"/><circle cx="226" cy="226" r="2" fill="#5CCCB6"/><circle cx="226" cy="240" r="2" fill="#5CCCB6"/><circle cx="226" cy="254" r="2" fill="#5CCCB6"/><circle cx="226" cy="268" r="2" fill="#5CCCB6"/><circle cx="240" cy="142" r="2" fill="#5CCCB6"/><circle cx="240" cy="156" r="2" fill="#5CCCB6"/><circle cx="240" cy="170" r="2" fill="#5CCCB6"/><circle cx="240" cy="184" r="2" fill="#5CCCB6"/><circle cx="240" cy="198" r="2" fill="#5CCCB6"/><circle cx="240" cy="212" r="2" fill="#5CCCB6"/><circle cx="240" cy="226" r="2" fill="#5CCCB6"/><circle cx="240" cy="240" r="2" fill="#5CCCB6"/><circle cx="240" cy="254" r="2" fill="#5CCCB6"/><circle cx="240" cy="268" r="2" fill="#5CCCB6"/><circle cx="254" cy="142" r="2" fill="#5CCCB6"/><circle cx="254" cy="156" r="2" fill="#5CCCB6"/><circle cx="254" cy="170" r="2" fill="#5CCCB6"/><circle cx="254" cy="184" r="2" fill="#5CCCB6"/><circle cx="254" cy="198" r="2" fill="#5CCCB6"/><circle cx="254" cy="212" r="2" fill="#5CCCB6"/><circle cx="254" cy="226" r="2" fill="#5CCCB6"/><circle cx="254" cy="240" r="2" fill="#5CCCB6"/><circle cx="254" cy="254" r="2" fill="#5CCCB6"/><circle cx="254" cy="268" r="2" fill="#5CCCB6"/><circle cx="268" cy="142" r="2" fill="#5CCCB6"/><circle cx="268" cy="156" r="2" fill="#5CCCB6"/><circle cx="268" cy="170" r="2" fill="#5CCCB6"/><circle cx="268" cy="184" r="2" fill="#5CCCB6"/><circle cx="268" cy="198" r="2" fill="#5CCCB6"/><circle cx="268" cy="212" r="2" fill="#5CCCB6"/><circle cx="268" cy="226" r="2" fill="#5CCCB6"/><circle cx="268" cy="240" r="2" fill="#5CCCB6"/><circle cx="268" cy="254" r="2" fill="#5CCCB6"/><circle cx="268" cy="268" r="2" fill="#5CCCB6"/><circle cx="283" cy="2" r="2" fill="#5CCCB6"/><circle cx="283" cy="16" r="2" fill="#5CCCB6"/><circle cx="283" cy="30" r="2" fill="#5CCCB6"/><circle cx="283" cy="44" r="2" fill="#5CCCB6"/><circle cx="283" cy="58" r="2" fill="#5CCCB6"/><circle cx="283" cy="72" r="2" fill="#5CCCB6"/><circle cx="283" cy="86" r="2" fill="#5CCCB6"/><circle cx="283" cy="100" r="2" fill="#5CCCB6"/><circle cx="283" cy="114" r="2" fill="#5CCCB6"/><circle cx="283" cy="128" r="2" fill="#5CCCB6"/><circle cx="297" cy="2" r="2" fill="#5CCCB6"/><circle cx="297" cy="16" r="2" fill="#5CCCB6"/><circle cx="297" cy="30" r="2" fill="#5CCCB6"/><circle cx="297" cy="44" r="2" fill="#5CCCB6"/><circle cx="297" cy="58" r="2" fill="#5CCCB6"/><circle cx="297" cy="72" r="2" fill="#5CCCB6"/><circle cx="297" cy="86" r="2" fill="#5CCCB6"/><circle cx="297" cy="100" r="2" fill="#5CCCB6"/><circle cx="297" cy="114" r="2" fill="#5CCCB6"/><circle cx="297" cy="128" r="2" fill="#5CCCB6"/><circle cx="311" cy="44" r="2" fill="#5CCCB6"/><circle cx="311" cy="58" r="2" fill="#5CCCB6"/><circle cx="311" cy="72" r="2" fill="#5CCCB6"/><circle cx="311" cy="86" r="2" fill="#5CCCB6"/><circle cx="311" cy="100" r="2" fill="#5CCCB6"/><circle cx="311" cy="114" r="2" fill="#5CCCB6"/><circle cx="311" cy="128" r="2" fill="#5CCCB6"/><circle cx="325" cy="44" r="2" fill="#5CCCB6"/><circle cx="325" cy="58" r="2" fill="#5CCCB6"/><circle cx="325" cy="72" r="2" fill="#5CCCB6"/><circle cx="325" cy="86" r="2" fill="#5CCCB6"/><circle cx="325" cy="100" r="2" fill="#5CCCB6"/><circle cx="325" cy="114" r="2" fill="#5CCCB6"/><circle cx="325" cy="128" r="2" fill="#5CCCB6"/><circle cx="339" cy="44" r="2" fill="#5CCCB6"/><circle cx="339" cy="58" r="2" fill="#5CCCB6"/><circle cx="339" cy="72" r="2" fill="#5CCCB6"/><circle cx="339" cy="86" r="2" fill="#5CCCB6"/><circle cx="339" cy="100" r="2" fill="#5CCCB6"/><circle cx="339" cy="114" r="2" fill="#5CCCB6"/><circle cx="339" cy="128" r="2" fill="#5CCCB6"/><circle cx="353" cy="44" r="2" fill="#5CCCB6"/><circle cx="353" cy="58" r="2" fill="#5CCCB6"/><circle cx="353" cy="72" r="2" fill="#5CCCB6"/><circle cx="353" cy="86" r="2" fill="#5CCCB6"/><circle cx="353" cy="100" r="2" fill="#5CCCB6"/><circle cx="353" cy="114" r="2" fill="#5CCCB6"/><circle cx="353" cy="128" r="2" fill="#5CCCB6"/><circle cx="367" cy="44" r="2" fill="#5CCCB6"/><circle cx="367" cy="58" r="2" fill="#5CCCB6"/><circle cx="367" cy="72" r="2" fill="#5CCCB6"/><circle cx="367" cy="86" r="2" fill="#5CCCB6"/><circle cx="367" cy="100" r="2" fill="#5CCCB6"/><circle cx="367" cy="114" r="2" fill="#5CCCB6"/><circle cx="367" cy="128" r="2" fill="#5CCCB6"/><circle cx="381" cy="44" r="2" fill="#5CCCB6"/><circle cx="381" cy="58" r="2" fill="#5CCCB6"/><circle cx="381" cy="72" r="2" fill="#5CCCB6"/><circle cx="381" cy="86" r="2" fill="#5CCCB6"/><circle cx="381" cy="100" r="2" fill="#5CCCB6"/><circle cx="381" cy="114" r="2" fill="#5CCCB6"/><circle cx="381" cy="128" r="2" fill="#5CCCB6"/><circle cx="395" cy="2" r="2" fill="#5CCCB6"/><circle cx="395" cy="16" r="2" fill="#5CCCB6"/><circle cx="395" cy="30" r="2" fill="#5CCCB6"/><circle cx="395" cy="44" r="2" fill="#5CCCB6"/><circle cx="395" cy="58" r="2" fill="#5CCCB6"/><circle cx="395" cy="72" r="2" fill="#5CCCB6"/><circle cx="395" cy="86" r="2" fill="#5CCCB6"/><circle cx="395" cy="100" r="2" fill="#5CCCB6"/><circle cx="395" cy="114" r="2" fill="#5CCCB6"/><circle cx="395" cy="128" r="2" fill="#5CCCB6"/><circle cx="409" cy="2" r="2" fill="#5CCCB6"/><circle cx="409" cy="16" r="2" fill="#5CCCB6"/><circle cx="409" cy="30" r="2" fill="#5CCCB6"/><circle cx="409" cy="44" r="2" fill="#5CCCB6"/><circle cx="409" cy="58" r="2" fill="#5CCCB6"/><circle cx="409" cy="72" r="2" fill="#5CCCB6"/><circle cx="409" cy="86" r="2" fill="#5CCCB6"/><circle cx="409" cy="100" r="2" fill="#5CCCB6"/><circle cx="409" cy="114" r="2" fill="#5CCCB6"/><circle cx="409" cy="128" r="2" fill="#5CCCB6"/><circle cx="423" cy="2" r="2" fill="#5CCCB6"/><circle cx="423" cy="16" r="2" fill="#5CCCB6"/><circle cx="423" cy="30" r="2" fill="#5CCCB6"/><circle cx="423" cy="44" r="2" fill="#5CCCB6"/><circle cx="423" cy="58" r="2" fill="#5CCCB6"/><circle cx="423" cy="72" r="2" fill="#5CCCB6"/><circle cx="423" cy="86" r="2" fill="#5CCCB6"/><circle cx="423" cy="100" r="2" fill="#5CCCB6"/><circle cx="423" cy="114" r="2" fill="#5CCCB6"/><circle cx="423" cy="128" r="2" fill="#5CCCB6"/><circle cx="437" cy="2" r="2" fill="#5CCCB6"/><circle cx="437" cy="16" r="2" fill="#5CCCB6"/><circle cx="437" cy="30" r="2" fill="#5CCCB6"/><circle cx="437" cy="44" r="2" fill="#5CCCB6"/><circle cx="437" cy="58" r="2" fill="#5CCCB6"/><circle cx="437" cy="72" r="2" fill="#5CCCB6"/><circle cx="437" cy="86" r="2" fill="#5CCCB6"/><circle cx="437" cy="100" r="2" fill="#5CCCB6"/><circle cx="437" cy="114" r="2" fill="#5CCCB6"/><circle cx="437" cy="128" r="2" fill="#5CCCB6"/><circle cx="451" cy="2" r="2" fill="#5CCCB6"/><circle cx="451" cy="16" r="2" fill="#5CCCB6"/><circle cx="451" cy="30" r="2" fill="#5CCCB6"/><circle cx="451" cy="44" r="2" fill="#5CCCB6"/><circle cx="451" cy="58" r="2" fill="#5CCCB6"/><circle cx="451" cy="72" r="2" fill="#5CCCB6"/><circle cx="451" cy="86" r="2" fill="#5CCCB6"/><circle cx="451" cy="100" r="2" fill="#5CCCB6"/><circle cx="451" cy="114" r="2" fill="#5CCCB6"/><circle cx="451" cy="128" r="2" fill="#5CCCB6"/><circle cx="465" cy="2" r="2" fill="#5CCCB6"/><circle cx="465" cy="16" r="2" fill="#5CCCB6"/><circle cx="465" cy="30" r="2" fill="#5CCCB6"/><circle cx="465" cy="44" r="2" fill="#5CCCB6"/><circle cx="465" cy="58" r="2" fill="#5CCCB6"/><circle cx="465" cy="72" r="2" fill="#5CCCB6"/><circle cx="465" cy="86" r="2" fill="#5CCCB6"/><circle cx="465" cy="100" r="2" fill="#5CCCB6"/><circle cx="465" cy="114" r="2" fill="#5CCCB6"/><circle cx="465" cy="128" r="2" fill="#5CCCB6"/><circle cx="479" cy="2" r="2" fill="#5CCCB6"/><circle cx="479" cy="16" r="2" fill="#5CCCB6"/><circle cx="479" cy="30" r="2" fill="#5CCCB6"/><circle cx="479" cy="44" r="2" fill="#5CCCB6"/><circle cx="479" cy="58" r="2" fill="#5CCCB6"/><circle cx="479" cy="72" r="2" fill="#5CCCB6"/><circle cx="479" cy="86" r="2" fill="#5CCCB6"/><circle cx="479" cy="100" r="2" fill="#5CCCB6"/><circle cx="479" cy="114" r="2" fill="#5CCCB6"/><circle cx="479" cy="128" r="2" fill="#5CCCB6"/><circle cx="493" cy="2" r="2" fill="#5CCCB6"/><circle cx="493" cy="16" r="2" fill="#5CCCB6"/><circle cx="493" cy="30" r="2" fill="#5CCCB6"/><circle cx="493" cy="44" r="2" fill="#5CCCB6"/><circle cx="493" cy="58" r="2" fill="#5CCCB6"/><circle cx="493" cy="72" r="2" fill="#5CCCB6"/><circle cx="493" cy="86" r="2" fill="#5CCCB6"/><circle cx="493" cy="100" r="2" fill="#5CCCB6"/><circle cx="493" cy="114" r="2" fill="#5CCCB6"/><circle cx="493" cy="128" r="2" fill="#5CCCB6"/><circle cx="507" cy="2" r="2" fill="#5CCCB6"/><circle cx="507" cy="16" r="2" fill="#5CCCB6"/><circle cx="507" cy="30" r="2" fill="#5CCCB6"/><circle cx="507" cy="44" r="2" fill="#5CCCB6"/><circle cx="507" cy="58" r="2" fill="#5CCCB6"/><circle cx="507" cy="72" r="2" fill="#5CCCB6"/><circle cx="507" cy="86" r="2" fill="#5CCCB6"/><circle cx="507" cy="100" r="2" fill="#5CCCB6"/><circle cx="507" cy="114" r="2" fill="#5CCCB6"/><circle cx="507" cy="128" r="2" fill="#5CCCB6"/><circle cx="521" cy="2" r="2" fill="#5CCCB6"/><circle cx="521" cy="16" r="2" fill="#5CCCB6"/><circle cx="521" cy="30" r="2" fill="#5CCCB6"/><circle cx="521" cy="44" r="2" fill="#5CCCB6"/><circle cx="521" cy="58" r="2" fill="#5CCCB6"/><circle cx="521" cy="72" r="2" fill="#5CCCB6"/><circle cx="521" cy="86" r="2" fill="#5CCCB6"/><circle cx="521" cy="100" r="2" fill="#5CCCB6"/><circle cx="521" cy="114" r="2" fill="#5CCCB6"/><circle cx="521" cy="128" r="2" fill="#5CCCB6"/><circle cx="535" cy="2" r="2" fill="#5CCCB6"/><circle cx="535" cy="16" r="2" fill="#5CCCB6"/><circle cx="535" cy="30" r="2" fill="#5CCCB6"/><circle cx="535" cy="44" r="2" fill="#5CCCB6"/><circle cx="535" cy="58" r="2" fill="#5CCCB6"/><circle cx="535" cy="72" r="2" fill="#5CCCB6"/><circle cx="535" cy="86" r="2" fill="#5CCCB6"/><circle cx="535" cy="100" r="2" fill="#5CCCB6"/><circle cx="535" cy="114" r="2" fill="#5CCCB6"/><circle cx="535" cy="128" r="2" fill="#5CCCB6"/><circle cx="549" cy="2" r="2" fill="#5CCCB6"/><circle cx="549" cy="16" r="2" fill="#5CCCB6"/><circle cx="549" cy="30" r="2" fill="#5CCCB6"/><circle cx="549" cy="44" r="2" fill="#5CCCB6"/><circle cx="549" cy="58" r="2" fill="#5CCCB6"/><circle cx="549" cy="72" r="2" fill="#5CCCB6"/><circle cx="549" cy="86" r="2" fill="#5CCCB6"/><circle cx="549" cy="100" r="2" fill="#5CCCB6"/><circle cx="549" cy="114" r="2" fill="#5CCCB6"/><circle cx="549" cy="128" r="2" fill="#5CCCB6"/><circle cx="505" cy="428" r="2" transform="rotate(-180 505 428)" fill="#5CCCB6"/><circle cx="505" cy="414" r="2" transform="rotate(-180 505 414)" fill="#5CCCB6"/><circle cx="505" cy="400" r="2" transform="rotate(-180 505 400)" fill="#5CCCB6"/><circle cx="505" cy="386" r="2" transform="rotate(-180 505 386)" fill="#5CCCB6"/><circle cx="505" cy="372" r="2" transform="rotate(-180 505 372)" fill="#5CCCB6"/><circle cx="505" cy="358" r="2" transform="rotate(-180 505 358)" fill="#5CCCB6"/><circle cx="505" cy="344" r="2" transform="rotate(-180 505 344)" fill="#5CCCB6"/><circle cx="505" cy="330" r="2" transform="rotate(-180 505 330)" fill="#5CCCB6"/><circle cx="505" cy="316" r="2" transform="rotate(-180 505 316)" fill="#5CCCB6"/><circle cx="505" cy="302" r="2" transform="rotate(-180 505 302)" fill="#5CCCB6"/><circle cx="491" cy="428" r="2" transform="rotate(-180 491 428)" fill="#5CCCB6"/><circle cx="491" cy="414" r="2" transform="rotate(-180 491 414)" fill="#5CCCB6"/><circle cx="491" cy="400" r="2" transform="rotate(-180 491 400)" fill="#5CCCB6"/><circle cx="491" cy="386" r="2" transform="rotate(-180 491 386)" fill="#5CCCB6"/><circle cx="491" cy="372" r="2" transform="rotate(-180 491 372)" fill="#5CCCB6"/><circle cx="491" cy="358" r="2" transform="rotate(-180 491 358)" fill="#5CCCB6"/><circle cx="491" cy="344" r="2" transform="rotate(-180 491 344)" fill="#5CCCB6"/><circle cx="491" cy="330" r="2" transform="rotate(-180 491 330)" fill="#5CCCB6"/><circle cx="491" cy="316" r="2" transform="rotate(-180 491 316)" fill="#5CCCB6"/><circle cx="491" cy="302" r="2" transform="rotate(-180 491 302)" fill="#5CCCB6"/><circle cx="477" cy="386" r="2" transform="rotate(-180 477 386)" fill="#5CCCB6"/><circle cx="477" cy="372" r="2" transform="rotate(-180 477 372)" fill="#5CCCB6"/><circle cx="477" cy="358" r="2" transform="rotate(-180 477 358)" fill="#5CCCB6"/><circle cx="477" cy="344" r="2" transform="rotate(-180 477 344)" fill="#5CCCB6"/><circle cx="477" cy="330" r="2" transform="rotate(-180 477 330)" fill="#5CCCB6"/><circle cx="477" cy="316" r="2" transform="rotate(-180 477 316)" fill="#5CCCB6"/><circle cx="477" cy="302" r="2" transform="rotate(-180 477 302)" fill="#5CCCB6"/><circle cx="463" cy="386" r="2" transform="rotate(-180 463 386)" fill="#5CCCB6"/><circle cx="463" cy="372" r="2" transform="rotate(-180 463 372)" fill="#5CCCB6"/><circle cx="463" cy="358" r="2" transform="rotate(-180 463 358)" fill="#5CCCB6"/><circle cx="463" cy="344" r="2" transform="rotate(-180 463 344)" fill="#5CCCB6"/><circle cx="463" cy="330" r="2" transform="rotate(-180 463 330)" fill="#5CCCB6"/><circle cx="463" cy="316" r="2" transform="rotate(-180 463 316)" fill="#5CCCB6"/><circle cx="463" cy="302" r="2" transform="rotate(-180 463 302)" fill="#5CCCB6"/><circle cx="449" cy="386" r="2" transform="rotate(-180 449 386)" fill="#5CCCB6"/><circle cx="449" cy="372" r="2" transform="rotate(-180 449 372)" fill="#5CCCB6"/><circle cx="449" cy="358" r="2" transform="rotate(-180 449 358)" fill="#5CCCB6"/><circle cx="449" cy="344" r="2" transform="rotate(-180 449 344)" fill="#5CCCB6"/><circle cx="449" cy="330" r="2" transform="rotate(-180 449 330)" fill="#5CCCB6"/><circle cx="449" cy="316" r="2" transform="rotate(-180 449 316)" fill="#5CCCB6"/><circle cx="449" cy="302" r="2" transform="rotate(-180 449 302)" fill="#5CCCB6"/><circle cx="435" cy="386" r="2" transform="rotate(-180 435 386)" fill="#5CCCB6"/><circle cx="435" cy="372" r="2" transform="rotate(-180 435 372)" fill="#5CCCB6"/><circle cx="435" cy="358" r="2" transform="rotate(-180 435 358)" fill="#5CCCB6"/><circle cx="435" cy="344" r="2" transform="rotate(-180 435 344)" fill="#5CCCB6"/><circle cx="435" cy="330" r="2" transform="rotate(-180 435 330)" fill="#5CCCB6"/><circle cx="435" cy="316" r="2" transform="rotate(-180 435 316)" fill="#5CCCB6"/><circle cx="435" cy="302" r="2" transform="rotate(-180 435 302)" fill="#5CCCB6"/><circle cx="421" cy="386" r="2" transform="rotate(-180 421 386)" fill="#5CCCB6"/><circle cx="421" cy="372" r="2" transform="rotate(-180 421 372)" fill="#5CCCB6"/><circle cx="421" cy="358" r="2" transform="rotate(-180 421 358)" fill="#5CCCB6"/><circle cx="421" cy="344" r="2" transform="rotate(-180 421 344)" fill="#5CCCB6"/><circle cx="421" cy="330" r="2" transform="rotate(-180 421 330)" fill="#5CCCB6"/><circle cx="421" cy="316" r="2" transform="rotate(-180 421 316)" fill="#5CCCB6"/><circle cx="421" cy="302" r="2" transform="rotate(-180 421 302)" fill="#5CCCB6"/><circle cx="407" cy="386" r="2" transform="rotate(-180 407 386)" fill="#5CCCB6"/><circle cx="407" cy="372" r="2" transform="rotate(-180 407 372)" fill="#5CCCB6"/><circle cx="407" cy="358" r="2" transform="rotate(-180 407 358)" fill="#5CCCB6"/><circle cx="407" cy="344" r="2" transform="rotate(-180 407 344)" fill="#5CCCB6"/><circle cx="407" cy="330" r="2" transform="rotate(-180 407 330)" fill="#5CCCB6"/><circle cx="407" cy="316" r="2" transform="rotate(-180 407 316)" fill="#5CCCB6"/><circle cx="407" cy="302" r="2" transform="rotate(-180 407 302)" fill="#5CCCB6"/><circle cx="393" cy="428" r="2" transform="rotate(-180 393 428)" fill="#5CCCB6"/><circle cx="393" cy="414" r="2" transform="rotate(-180 393 414)" fill="#5CCCB6"/><circle cx="393" cy="400" r="2" transform="rotate(-180 393 400)" fill="#5CCCB6"/><circle cx="393" cy="386" r="2" transform="rotate(-180 393 386)" fill="#5CCCB6"/><circle cx="393" cy="372" r="2" transform="rotate(-180 393 372)" fill="#5CCCB6"/><circle cx="393" cy="358" r="2" transform="rotate(-180 393 358)" fill="#5CCCB6"/><circle cx="393" cy="344" r="2" transform="rotate(-180 393 344)" fill="#5CCCB6"/><circle cx="393" cy="330" r="2" transform="rotate(-180 393 330)" fill="#5CCCB6"/><circle cx="393" cy="316" r="2" transform="rotate(-180 393 316)" fill="#5CCCB6"/><circle cx="393" cy="302" r="2" transform="rotate(-180 393 302)" fill="#5CCCB6"/><circle cx="379" cy="428" r="2" transform="rotate(-180 379 428)" fill="#5CCCB6"/><circle cx="379" cy="414" r="2" transform="rotate(-180 379 414)" fill="#5CCCB6"/><circle cx="379" cy="400" r="2" transform="rotate(-180 379 400)" fill="#5CCCB6"/><circle cx="379" cy="386" r="2" transform="rotate(-180 379 386)" fill="#5CCCB6"/><circle cx="379" cy="372" r="2" transform="rotate(-180 379 372)" fill="#5CCCB6"/><circle cx="379" cy="358" r="2" transform="rotate(-180 379 358)" fill="#5CCCB6"/><circle cx="379" cy="344" r="2" transform="rotate(-180 379 344)" fill="#5CCCB6"/><circle cx="379" cy="330" r="2" transform="rotate(-180 379 330)" fill="#5CCCB6"/><circle cx="379" cy="316" r="2" transform="rotate(-180 379 316)" fill="#5CCCB6"/><circle cx="379" cy="302" r="2" transform="rotate(-180 379 302)" fill="#5CCCB6"/><circle cx="365" cy="428" r="2" transform="rotate(-180 365 428)" fill="#5CCCB6"/><circle cx="365" cy="414" r="2" transform="rotate(-180 365 414)" fill="#5CCCB6"/><circle cx="365" cy="400" r="2" transform="rotate(-180 365 400)" fill="#5CCCB6"/><circle cx="365" cy="386" r="2" transform="rotate(-180 365 386)" fill="#5CCCB6"/><circle cx="365" cy="372" r="2" transform="rotate(-180 365 372)" fill="#5CCCB6"/><circle cx="365" cy="358" r="2" transform="rotate(-180 365 358)" fill="#5CCCB6"/><circle cx="365" cy="344" r="2" transform="rotate(-180 365 344)" fill="#5CCCB6"/><circle cx="365" cy="330" r="2" transform="rotate(-180 365 330)" fill="#5CCCB6"/><circle cx="365" cy="316" r="2" transform="rotate(-180 365 316)" fill="#5CCCB6"/><circle cx="365" cy="302" r="2" transform="rotate(-180 365 302)" fill="#5CCCB6"/><circle cx="351" cy="428" r="2" transform="rotate(-180 351 428)" fill="#5CCCB6"/><circle cx="351" cy="414" r="2" transform="rotate(-180 351 414)" fill="#5CCCB6"/><circle cx="351" cy="400" r="2" transform="rotate(-180 351 400)" fill="#5CCCB6"/><circle cx="351" cy="386" r="2" transform="rotate(-180 351 386)" fill="#5CCCB6"/><circle cx="351" cy="372" r="2" transform="rotate(-180 351 372)" fill="#5CCCB6"/><circle cx="351" cy="358" r="2" transform="rotate(-180 351 358)" fill="#5CCCB6"/><circle cx="351" cy="344" r="2" transform="rotate(-180 351 344)" fill="#5CCCB6"/><circle cx="351" cy="330" r="2" transform="rotate(-180 351 330)" fill="#5CCCB6"/><circle cx="351" cy="316" r="2" transform="rotate(-180 351 316)" fill="#5CCCB6"/><circle cx="351" cy="302" r="2" transform="rotate(-180 351 302)" fill="#5CCCB6"/><circle cx="337" cy="428" r="2" transform="rotate(-180 337 428)" fill="#5CCCB6"/><circle cx="337" cy="414" r="2" transform="rotate(-180 337 414)" fill="#5CCCB6"/><circle cx="337" cy="400" r="2" transform="rotate(-180 337 400)" fill="#5CCCB6"/><circle cx="337" cy="386" r="2" transform="rotate(-180 337 386)" fill="#5CCCB6"/><circle cx="337" cy="372" r="2" transform="rotate(-180 337 372)" fill="#5CCCB6"/><circle cx="337" cy="358" r="2" transform="rotate(-180 337 358)" fill="#5CCCB6"/><circle cx="337" cy="344" r="2" transform="rotate(-180 337 344)" fill="#5CCCB6"/><circle cx="337" cy="330" r="2" transform="rotate(-180 337 330)" fill="#5CCCB6"/><circle cx="337" cy="316" r="2" transform="rotate(-180 337 316)" fill="#5CCCB6"/><circle cx="337" cy="302" r="2" transform="rotate(-180 337 302)" fill="#5CCCB6"/><circle cx="323" cy="428" r="2" transform="rotate(-180 323 428)" fill="#5CCCB6"/><circle cx="323" cy="414" r="2" transform="rotate(-180 323 414)" fill="#5CCCB6"/><circle cx="323" cy="400" r="2" transform="rotate(-180 323 400)" fill="#5CCCB6"/><circle cx="323" cy="386" r="2" transform="rotate(-180 323 386)" fill="#5CCCB6"/><circle cx="323" cy="372" r="2" transform="rotate(-180 323 372)" fill="#5CCCB6"/><circle cx="323" cy="358" r="2" transform="rotate(-180 323 358)" fill="#5CCCB6"/><circle cx="323" cy="344" r="2" transform="rotate(-180 323 344)" fill="#5CCCB6"/><circle cx="323" cy="330" r="2" transform="rotate(-180 323 330)" fill="#5CCCB6"/><circle cx="323" cy="316" r="2" transform="rotate(-180 323 316)" fill="#5CCCB6"/><circle cx="323" cy="302" r="2" transform="rotate(-180 323 302)" fill="#5CCCB6"/><circle cx="309" cy="428" r="2" transform="rotate(-180 309 428)" fill="#5CCCB6"/><circle cx="309" cy="414" r="2" transform="rotate(-180 309 414)" fill="#5CCCB6"/><circle cx="309" cy="400" r="2" transform="rotate(-180 309 400)" fill="#5CCCB6"/><circle cx="309" cy="386" r="2" transform="rotate(-180 309 386)" fill="#5CCCB6"/><circle cx="309" cy="372" r="2" transform="rotate(-180 309 372)" fill="#5CCCB6"/><circle cx="309" cy="358" r="2" transform="rotate(-180 309 358)" fill="#5CCCB6"/><circle cx="309" cy="344" r="2" transform="rotate(-180 309 344)" fill="#5CCCB6"/><circle cx="309" cy="330" r="2" transform="rotate(-180 309 330)" fill="#5CCCB6"/><circle cx="309" cy="316" r="2" transform="rotate(-180 309 316)" fill="#5CCCB6"/><circle cx="309" cy="302" r="2" transform="rotate(-180 309 302)" fill="#5CCCB6"/><circle cx="295" cy="428" r="2" transform="rotate(-180 295 428)" fill="#5CCCB6"/><circle cx="295" cy="414" r="2" transform="rotate(-180 295 414)" fill="#5CCCB6"/><circle cx="295" cy="400" r="2" transform="rotate(-180 295 400)" fill="#5CCCB6"/><circle cx="295" cy="386" r="2" transform="rotate(-180 295 386)" fill="#5CCCB6"/><circle cx="295" cy="372" r="2" transform="rotate(-180 295 372)" fill="#5CCCB6"/><circle cx="295" cy="358" r="2" transform="rotate(-180 295 358)" fill="#5CCCB6"/><circle cx="295" cy="344" r="2" transform="rotate(-180 295 344)" fill="#5CCCB6"/><circle cx="295" cy="330" r="2" transform="rotate(-180 295 330)" fill="#5CCCB6"/><circle cx="295" cy="316" r="2" transform="rotate(-180 295 316)" fill="#5CCCB6"/><circle cx="295" cy="302" r="2" transform="rotate(-180 295 302)" fill="#5CCCB6"/><circle cx="281" cy="428" r="2" transform="rotate(-180 281 428)" fill="#5CCCB6"/><circle cx="281" cy="414" r="2" transform="rotate(-180 281 414)" fill="#5CCCB6"/><circle cx="281" cy="400" r="2" transform="rotate(-180 281 400)" fill="#5CCCB6"/><circle cx="281" cy="386" r="2" transform="rotate(-180 281 386)" fill="#5CCCB6"/><circle cx="281" cy="372" r="2" transform="rotate(-180 281 372)" fill="#5CCCB6"/><circle cx="281" cy="358" r="2" transform="rotate(-180 281 358)" fill="#5CCCB6"/><circle cx="281" cy="344" r="2" transform="rotate(-180 281 344)" fill="#5CCCB6"/><circle cx="281" cy="330" r="2" transform="rotate(-180 281 330)" fill="#5CCCB6"/><circle cx="281" cy="316" r="2" transform="rotate(-180 281 316)" fill="#5CCCB6"/><circle cx="281" cy="302" r="2" transform="rotate(-180 281 302)" fill="#5CCCB6"/><circle cx="267" cy="428" r="2" transform="rotate(-180 267 428)" fill="#5CCCB6"/><circle cx="267" cy="414" r="2" transform="rotate(-180 267 414)" fill="#5CCCB6"/><circle cx="267" cy="400" r="2" transform="rotate(-180 267 400)" fill="#5CCCB6"/><circle cx="267" cy="386" r="2" transform="rotate(-180 267 386)" fill="#5CCCB6"/><circle cx="267" cy="372" r="2" transform="rotate(-180 267 372)" fill="#5CCCB6"/><circle cx="267" cy="358" r="2" transform="rotate(-180 267 358)" fill="#5CCCB6"/><circle cx="267" cy="344" r="2" transform="rotate(-180 267 344)" fill="#5CCCB6"/><circle cx="267" cy="330" r="2" transform="rotate(-180 267 330)" fill="#5CCCB6"/><circle cx="267" cy="316" r="2" transform="rotate(-180 267 316)" fill="#5CCCB6"/><circle cx="267" cy="302" r="2" transform="rotate(-180 267 302)" fill="#5CCCB6"/><circle cx="253" cy="428" r="2" transform="rotate(-180 253 428)" fill="#5CCCB6"/><circle cx="253" cy="414" r="2" transform="rotate(-180 253 414)" fill="#5CCCB6"/><circle cx="253" cy="400" r="2" transform="rotate(-180 253 400)" fill="#5CCCB6"/><circle cx="253" cy="386" r="2" transform="rotate(-180 253 386)" fill="#5CCCB6"/><circle cx="253" cy="372" r="2" transform="rotate(-180 253 372)" fill="#5CCCB6"/><circle cx="253" cy="358" r="2" transform="rotate(-180 253 358)" fill="#5CCCB6"/><circle cx="253" cy="344" r="2" transform="rotate(-180 253 344)" fill="#5CCCB6"/><circle cx="253" cy="330" r="2" transform="rotate(-180 253 330)" fill="#5CCCB6"/><circle cx="253" cy="316" r="2" transform="rotate(-180 253 316)" fill="#5CCCB6"/><circle cx="253" cy="302" r="2" transform="rotate(-180 253 302)" fill="#5CCCB6"/><circle cx="239" cy="428" r="2" transform="rotate(-180 239 428)" fill="#5CCCB6"/><circle cx="239" cy="414" r="2" transform="rotate(-180 239 414)" fill="#5CCCB6"/><circle cx="239" cy="400" r="2" transform="rotate(-180 239 400)" fill="#5CCCB6"/><circle cx="239" cy="386" r="2" transform="rotate(-180 239 386)" fill="#5CCCB6"/><circle cx="239" cy="372" r="2" transform="rotate(-180 239 372)" fill="#5CCCB6"/><circle cx="239" cy="358" r="2" transform="rotate(-180 239 358)" fill="#5CCCB6"/><circle cx="239" cy="344" r="2" transform="rotate(-180 239 344)" fill="#5CCCB6"/><circle cx="239" cy="330" r="2" transform="rotate(-180 239 330)" fill="#5CCCB6"/><circle cx="239" cy="316" r="2" transform="rotate(-180 239 316)" fill="#5CCCB6"/><circle cx="239" cy="302" r="2" transform="rotate(-180 239 302)" fill="#5CCCB6"/><circle cx="2" cy="72" r="2" fill="#5CCCB6"/><circle cx="2" cy="86" r="2" fill="#5CCCB6"/><circle cx="2" cy="100" r="2" fill="#5CCCB6"/><circle cx="2" cy="114" r="2" fill="#5CCCB6"/><circle cx="2" cy="128" r="2" fill="#5CCCB6"/><circle cx="16" cy="72" r="2" fill="#5CCCB6"/><circle cx="16" cy="86" r="2" fill="#5CCCB6"/><circle cx="16" cy="100" r="2" fill="#5CCCB6"/><circle cx="16" cy="114" r="2" fill="#5CCCB6"/><circle cx="16" cy="128" r="2" fill="#5CCCB6"/><circle cx="30" cy="72" r="2" fill="#5CCCB6"/><circle cx="30" cy="86" r="2" fill="#5CCCB6"/><circle cx="30" cy="100" r="2" fill="#5CCCB6"/><circle cx="30" cy="114" r="2" fill="#5CCCB6"/><circle cx="30" cy="128" r="2" fill="#5CCCB6"/><circle cx="44" cy="72" r="2" fill="#5CCCB6"/><circle cx="44" cy="86" r="2" fill="#5CCCB6"/><circle cx="44" cy="100" r="2" fill="#5CCCB6"/><circle cx="44" cy="114" r="2" fill="#5CCCB6"/><circle cx="58" cy="72" r="2" fill="#5CCCB6"/><circle cx="58" cy="86" r="2" fill="#5CCCB6"/><circle cx="58" cy="100" r="2" fill="#5CCCB6"/><circle cx="58" cy="114" r="2" fill="#5CCCB6"/><circle cx="72" cy="72" r="2" fill="#5CCCB6"/><circle cx="72" cy="86" r="2" fill="#5CCCB6"/><circle cx="72" cy="100" r="2" fill="#5CCCB6"/><circle cx="72" cy="114" r="2" fill="#5CCCB6"/><circle cx="86" cy="2" r="2" fill="#5CCCB6"/><circle cx="86" cy="16" r="2" fill="#5CCCB6"/><circle cx="86" cy="30" r="2" fill="#5CCCB6"/><circle cx="86" cy="44" r="2" fill="#5CCCB6"/><circle cx="86" cy="58" r="2" fill="#5CCCB6"/><circle cx="86" cy="72" r="2" fill="#5CCCB6"/><circle cx="86" cy="86" r="2" fill="#5CCCB6"/><circle cx="86" cy="100" r="2" fill="#5CCCB6"/><circle cx="86" cy="114" r="2" fill="#5CCCB6"/><circle cx="100" cy="2" r="2" fill="#5CCCB6"/><circle cx="100" cy="16" r="2" fill="#5CCCB6"/><circle cx="100" cy="30" r="2" fill="#5CCCB6"/><circle cx="100" cy="44" r="2" fill="#5CCCB6"/><circle cx="100" cy="58" r="2" fill="#5CCCB6"/><circle cx="100" cy="72" r="2" fill="#5CCCB6"/><circle cx="100" cy="86" r="2" fill="#5CCCB6"/><circle cx="100" cy="100" r="2" fill="#5CCCB6"/><circle cx="100" cy="114" r="2" fill="#5CCCB6"/><circle cx="114" cy="2" r="2" fill="#5CCCB6"/><circle cx="114" cy="16" r="2" fill="#5CCCB6"/><circle cx="114" cy="30" r="2" fill="#5CCCB6"/><circle cx="114" cy="44" r="2" fill="#5CCCB6"/><circle cx="114" cy="58" r="2" fill="#5CCCB6"/><circle cx="114" cy="72" r="2" fill="#5CCCB6"/><circle cx="114" cy="86" r="2" fill="#5CCCB6"/><circle cx="114" cy="100" r="2" fill="#5CCCB6"/><circle cx="114" cy="114" r="2" fill="#5CCCB6"/><circle cx="128" cy="2" r="2" fill="#5CCCB6"/><circle cx="128" cy="16" r="2" fill="#5CCCB6"/><circle cx="128" cy="30" r="2" fill="#5CCCB6"/><circle cx="128" cy="44" r="2" fill="#5CCCB6"/><circle cx="128" cy="58" r="2" fill="#5CCCB6"/><circle cx="128" cy="72" r="2" fill="#5CCCB6"/><circle cx="128" cy="86" r="2" fill="#5CCCB6"/><circle cx="128" cy="100" r="2" fill="#5CCCB6"/><circle cx="128" cy="114" r="2" fill="#5CCCB6"/><circle cx="142" cy="2" r="2" fill="#5CCCB6"/><circle cx="142" cy="16" r="2" fill="#5CCCB6"/><circle cx="142" cy="30" r="2" fill="#5CCCB6"/><circle cx="142" cy="44" r="2" fill="#5CCCB6"/><circle cx="142" cy="58" r="2" fill="#5CCCB6"/><circle cx="142" cy="72" r="2" fill="#5CCCB6"/><circle cx="142" cy="86" r="2" fill="#5CCCB6"/><circle cx="142" cy="100" r="2" fill="#5CCCB6"/><circle cx="142" cy="114" r="2" fill="#5CCCB6"/><circle cx="156" cy="2" r="2" fill="#5CCCB6"/><circle cx="156" cy="16" r="2" fill="#5CCCB6"/><circle cx="156" cy="30" r="2" fill="#5CCCB6"/><circle cx="156" cy="44" r="2" fill="#5CCCB6"/><circle cx="156" cy="58" r="2" fill="#5CCCB6"/><circle cx="156" cy="72" r="2" fill="#5CCCB6"/><circle cx="156" cy="86" r="2" fill="#5CCCB6"/><circle cx="156" cy="100" r="2" fill="#5CCCB6"/><circle cx="156" cy="114" r="2" fill="#5CCCB6"/><circle cx="170" cy="2" r="2" fill="#5CCCB6"/><circle cx="170" cy="16" r="2" fill="#5CCCB6"/><circle cx="170" cy="30" r="2" fill="#5CCCB6"/><circle cx="170" cy="44" r="2" fill="#5CCCB6"/><circle cx="170" cy="58" r="2" fill="#5CCCB6"/><circle cx="170" cy="72" r="2" fill="#5CCCB6"/><circle cx="170" cy="86" r="2" fill="#5CCCB6"/><circle cx="170" cy="100" r="2" fill="#5CCCB6"/><circle cx="170" cy="114" r="2" fill="#5CCCB6"/><circle cx="170" cy="128" r="2" fill="#5CCCB6"/><circle cx="184" cy="2" r="2" fill="#5CCCB6"/><circle cx="184" cy="16" r="2" fill="#5CCCB6"/><circle cx="184" cy="30" r="2" fill="#5CCCB6"/><circle cx="184" cy="44" r="2" fill="#5CCCB6"/><circle cx="184" cy="58" r="2" fill="#5CCCB6"/><circle cx="184" cy="72" r="2" fill="#5CCCB6"/><circle cx="184" cy="86" r="2" fill="#5CCCB6"/><circle cx="184" cy="100" r="2" fill="#5CCCB6"/><circle cx="184" cy="114" r="2" fill="#5CCCB6"/><circle cx="184" cy="128" r="2" fill="#5CCCB6"/><circle cx="198" cy="2" r="2" fill="#5CCCB6"/><circle cx="198" cy="16" r="2" fill="#5CCCB6"/><circle cx="198" cy="30" r="2" fill="#5CCCB6"/><circle cx="198" cy="44" r="2" fill="#5CCCB6"/><circle cx="198" cy="58" r="2" fill="#5CCCB6"/><circle cx="198" cy="72" r="2" fill="#5CCCB6"/><circle cx="198" cy="86" r="2" fill="#5CCCB6"/><circle cx="198" cy="100" r="2" fill="#5CCCB6"/><circle cx="198" cy="114" r="2" fill="#5CCCB6"/><circle cx="198" cy="128" r="2" fill="#5CCCB6"/><circle cx="212" cy="2" r="2" fill="#5CCCB6"/><circle cx="212" cy="16" r="2" fill="#5CCCB6"/><circle cx="212" cy="30" r="2" fill="#5CCCB6"/><circle cx="212" cy="44" r="2" fill="#5CCCB6"/><circle cx="212" cy="58" r="2" fill="#5CCCB6"/><circle cx="212" cy="72" r="2" fill="#5CCCB6"/><circle cx="212" cy="86" r="2" fill="#5CCCB6"/><circle cx="212" cy="100" r="2" fill="#5CCCB6"/><circle cx="212" cy="114" r="2" fill="#5CCCB6"/><circle cx="212" cy="128" r="2" fill="#5CCCB6"/><circle cx="226" cy="2" r="2" fill="#5CCCB6"/><circle cx="226" cy="16" r="2" fill="#5CCCB6"/><circle cx="226" cy="30" r="2" fill="#5CCCB6"/><circle cx="226" cy="44" r="2" fill="#5CCCB6"/><circle cx="226" cy="58" r="2" fill="#5CCCB6"/><circle cx="226" cy="72" r="2" fill="#5CCCB6"/><circle cx="226" cy="86" r="2" fill="#5CCCB6"/><circle cx="226" cy="100" r="2" fill="#5CCCB6"/><circle cx="226" cy="114" r="2" fill="#5CCCB6"/><circle cx="226" cy="128" r="2" fill="#5CCCB6"/><circle cx="240" cy="2" r="2" fill="#5CCCB6"/><circle cx="240" cy="16" r="2" fill="#5CCCB6"/><circle cx="240" cy="30" r="2" fill="#5CCCB6"/><circle cx="240" cy="44" r="2" fill="#5CCCB6"/><circle cx="240" cy="58" r="2" fill="#5CCCB6"/><circle cx="240" cy="72" r="2" fill="#5CCCB6"/><circle cx="240" cy="86" r="2" fill="#5CCCB6"/><circle cx="240" cy="100" r="2" fill="#5CCCB6"/><circle cx="240" cy="114" r="2" fill="#5CCCB6"/><circle cx="240" cy="128" r="2" fill="#5CCCB6"/><circle cx="254" cy="2" r="2" fill="#5CCCB6"/><circle cx="254" cy="16" r="2" fill="#5CCCB6"/><circle cx="254" cy="30" r="2" fill="#5CCCB6"/><circle cx="254" cy="44" r="2" fill="#5CCCB6"/><circle cx="254" cy="58" r="2" fill="#5CCCB6"/><circle cx="254" cy="72" r="2" fill="#5CCCB6"/><circle cx="254" cy="86" r="2" fill="#5CCCB6"/><circle cx="254" cy="100" r="2" fill="#5CCCB6"/><circle cx="254" cy="114" r="2" fill="#5CCCB6"/><circle cx="254" cy="128" r="2" fill="#5CCCB6"/><circle cx="268" cy="2" r="2" fill="#5CCCB6"/><circle cx="268" cy="16" r="2" fill="#5CCCB6"/><circle cx="268" cy="30" r="2" fill="#5CCCB6"/><circle cx="268" cy="44" r="2" fill="#5CCCB6"/><circle cx="268" cy="58" r="2" fill="#5CCCB6"/><circle cx="268" cy="72" r="2" fill="#5CCCB6"/><circle cx="268" cy="86" r="2" fill="#5CCCB6"/><circle cx="268" cy="100" r="2" fill="#5CCCB6"/><circle cx="268" cy="114" r="2" fill="#5CCCB6"/><circle cx="268" cy="128" r="2" fill="#5CCCB6"/></symbol><symbol id="calc-text" viewBox="0 0 479 113"><path fill="#000" d="M0 0h479v53H0z"/><path d="M37.88 41.32h14.8L34.8 25.08l17.32-13.52H38L23.36 23.32V11.56H12v29.76h11.36V28l14.52 13.32z" fill="#fff"/><path d="M78.712 29.08h-9.88l4.88-10.24 5 10.24zm5.96 12.24h12.44l-15.56-29.76h-15.28l-14.72 29.76h11.52l2.28-4.8h17l2.32 4.8z" fill="#fff"/><path d="M124.976 41.32h11.36V11.56h-34c0 15.48-.4 18.76-1.52 20.2-.68.92-1.6 1.08-3.2 1.08h-.6v8.48h3.68c5.44 0 7.96-1.28 9.56-3.96 1.6-2.56 2.4-6.32 2.4-18.16h12.32v22.12zm26.314-21v-8.76h-11.36v29.76h23.88c12.04 0 15.04-4.68 15.04-10.24v-.64c0-5.56-3.04-10.12-15.04-10.12h-12.52zm0 13.6v-6.2h11.08c3.68 0 4.72 1.32 4.72 3v.12c0 1.6-1.04 3.08-4.72 3.08h-11.08zm55.77 7.4h14.8l-17.88-16.24 17.32-13.52h-14.12l-14.64 11.76V11.56h-11.36v29.76h11.36V28l14.52 13.32z" fill="#fff"/><path d="M260.994 11.56h-11.56l-7.92 12.92-8.76-12.92h-13.16l14.64 19.84c.36.44.52.88.52 1.24v.04c0 .44-.24.68-1.04.68h-5.24v7.96h5.96c6.6 0 7.96-1.64 11.36-6.76l15.2-23zm24.45 29.76h11.36V11.56h-34c0 15.48-.4 18.76-1.52 20.2-.68.92-1.6 1.08-3.2 1.08h-.6v8.48h3.68c5.44 0 7.96-1.28 9.56-3.96 1.6-2.56 2.4-6.32 2.4-18.16h12.32v22.12zm42.554-9.56v9.56h11.36V11.56h-26.16c-10.28 0-13.52 4.76-13.52 9.76v.64c0 4.56 3 8.2 10.24 9.16l-11.32 10.2h14l10.16-9.56h5.24zm0-7.12h-12.92c-2.6 0-3.64-1.24-3.64-2.8v-.08c0-1.48 1-2.76 3.6-2.76h12.96v5.64zm27.019 16.68h11.36V19.68h12.84v-8.12h-37.04v8.12h12.84v21.64zM401.59 11c-19.28 0-21.72 9.16-21.72 14.76v1.2c0 5.56 2.44 14.92 21.72 14.92h1.8c19.24 0 21.68-9.36 21.68-14.92v-1.2c0-5.6-2.48-14.76-21.68-14.76h-1.8zm11.72 15.6c0 3.2-2.04 7.24-10.84 7.24s-10.84-4.2-10.84-7.32v-.48c0-3.16 1.88-7.04 10.84-7.04 8.8 0 10.84 3.88 10.84 7.04v.56zm39.157 5.4c10.88 0 14.12-4.56 14.12-9.96v-.64c0-5.48-3.12-9.84-14.12-9.84h-24.8v29.76h11.36V32h13.44zm-13.44-13h12.08c2.68 0 3.76 1 3.76 2.72v.12c0 1.64-1.16 2.72-3.76 2.72h-12.08V19z" fill="#fff"/><path fill="#000" d="M0 60h272v53H0z"/><path d="M12 101.32h11.36V79.48H40.6v21.84h11.32V71.56H12v29.76zM76.356 71c-19.28 0-21.72 9.16-21.72 14.76v1.2c0 5.56 2.44 14.92 21.72 14.92h1.8c19.24 0 21.68-9.36 21.68-14.92v-1.2c0-5.6-2.48-14.76-21.68-14.76h-1.8zm11.72 15.6c0 3.2-2.04 7.24-10.84 7.24s-10.84-4.2-10.84-7.32v-.48c0-3.16 1.88-7.04 10.84-7.04 8.8 0 10.84 3.88 10.84 7.04v.56zm35.956 15.28c17.92 0 20.721-8.4 20.721-12.28v-.64h-11.76c-.161.68-1.041 4.88-9.801 4.88-8 0-10-4.2-10-7.4v-.48c0-3.32 1.76-6.96 9.96-6.96 8.64 0 9.561 3.76 9.8 4.56h11.801v-.52c0-3.84-2.64-12.04-20.721-12.04h-1.56c-18.56 0-21.04 9.08-21.04 14.76v1.16c0 5.64 2.76 14.96 21.04 14.96h1.56zm48.99-.56h11.36V71.56h-34c0 15.48-.4 18.76-1.519 20.2-.68.92-1.601 1.08-3.201 1.08h-.6v8.48h3.68c5.44 0 7.96-1.28 9.56-3.96 1.6-2.56 2.4-6.32 2.4-18.16h12.32v22.12zm53.715-29.76h-11.56l-7.92 12.92-8.76-12.92h-13.16l14.64 19.84c.36.44.52.88.52 1.24v.04c0 .44-.24.68-1.04.68h-5.24v7.96h5.96c6.6 0 7.96-1.64 11.36-6.76l15.2-23zm.966 29.76h11.36V79.48h20.08v-7.92h-31.44v29.76z" fill="#fff"/></symbol><symbol id="calc" viewBox="0 0 18 20"><path d="M4.333 6h9.334m-9.334 5.333h1.334m2.666 0h1.334m2.666 0h1.334m-9.334 4h1.334m2.666 0h1.334m2.666 0h1.334m-11.334 4h13.334c.736 0 1.333-.597 1.333-1.333V2c0-.736-.597-1.333-1.333-1.333H2.333C1.597.667 1 1.264 1 2v16c0 .736.597 1.333 1.333 1.333z" fill="transparent"/></symbol><symbol id="cases" viewBox="0 0 20 20"><path fill="transparent" d="M7.333 4v-.667a2.667 2.667 0 015.334 0V4m-12 4.667c4.94 5.647 13.725 5.647 18.666 0M2 4.667h16c.736 0 1.333.597 1.333 1.333v12c0 .736-.596 1.333-1.333 1.333H2A1.333 1.333 0 01.667 18V6c0-.736.597-1.333 1.333-1.333z"/></symbol><symbol id="color" viewBox="0 0 48 48"><path d="M40.02 6.105C34.83 1.42 28.249-.604 21.287.155 10.276 1.422 1.29 10.282.15 21.294c-.76 6.962 1.392 13.67 5.949 18.733C10.655 45.089 17.237 48 24.072 48h2.911c1.645 0 3.164-.886 4.05-2.405.76-1.519.76-3.164-.126-4.683a1.943 1.943 0 010-2.025 2.02 2.02 0 011.772-1.013h1.392a13.883 13.883 0 0013.923-13.923c0-6.708-2.911-13.29-7.974-17.846zm-5.949 29.364h-1.645c-1.646 0-3.165.886-4.05 2.405-.76 1.52-.76 3.164.126 4.683.38.633.38 1.393 0 2.026a2.02 2.02 0 01-1.772 1.012h-2.785c-6.075 0-11.898-2.658-16.074-7.215-4.05-4.556-5.95-10.505-5.316-16.707C3.694 11.8 11.668 3.826 21.54 2.687c.76-.126 1.646-.126 2.405-.126 5.316 0 10.38 1.898 14.303 5.442 4.557 4.177 7.215 10 7.215 16.075A11.344 11.344 0 0134.07 35.469z" fill="#5E51B0"/><path d="M23.945 11.42a3.797 3.797 0 100-7.594 3.797 3.797 0 000 7.595zm8.86 3.798a3.797 3.797 0 100-7.594 3.797 3.797 0 000 7.594zm-17.72 0a3.797 3.797 0 100-7.594 3.797 3.797 0 000 7.594zm-6.328 6.329a3.797 3.797 0 100-7.595 3.797 3.797 0 000 7.595zm30.377 0a3.797 3.797 0 100-7.595 3.797 3.797 0 000 7.595zm-20.884 8.86a5.672 5.672 0 00-5.696 5.695 5.672 5.672 0 005.696 5.696 5.672 5.672 0 005.695-5.696 5.672 5.672 0 00-5.695-5.695zm0 8.86a3.134 3.134 0 01-3.165-3.165 3.134 3.134 0 013.165-3.164 3.134 3.134 0 013.164 3.164 3.134 3.134 0 01-3.165 3.165z" fill="#5E51B0"/></symbol><symbol id="crowd" viewBox="0 0 48 48"><path d="M24 26.23c3.96 0 7.2-3.24 7.2-7.2s-3.24-7.2-7.2-7.2-7.2 3.24-7.2 7.2 3.24 7.2 7.2 7.2zm0-12c2.64 0 4.8 2.16 4.8 4.8 0 2.64-2.16 4.8-4.8 4.8-2.64 0-4.8-2.16-4.8-4.8 0-2.64 2.16-4.8 4.8-4.8zM7.8 33.43c3 0 5.4-2.4 5.4-5.4 0-3-2.4-5.4-5.4-5.4-3 0-5.4 2.4-5.4 5.4 0 3 2.4 5.4 5.4 5.4zm0-8.4c1.68 0 3 1.32 3 3s-1.32 3-3 3-3-1.32-3-3 1.32-3 3-3zm27 3c0 3 2.4 5.4 5.4 5.4 3 0 5.4-2.4 5.4-5.4 0-3-2.4-5.4-5.4-5.4-3 0-5.4 2.4-5.4 5.4zm5.4-3c1.68 0 3 1.32 3 3s-1.32 3-3 3-3-1.32-3-3 1.32-3 3-3z" fill="#5E51B0"/><path d="M44.4 35.83h-9.6c-.48 0-.84.12-1.2.24v-5.04c0-2.04-1.56-3.6-3.6-3.6H18c-2.04 0-3.6 1.56-3.6 3.6v5.04c-.36-.12-.72-.24-1.2-.24H3.6c-2.04 0-3.6 1.56-3.6 3.6v4.8h2.4v-4.8c0-.72.48-1.2 1.2-1.2h9.6c.72 0 1.2.48 1.2 1.2v4.8h2.4v-13.2c0-.72.48-1.2 1.2-1.2h12c.72 0 1.2.48 1.2 1.2v13.2h2.4v-4.8c0-.72.48-1.2 1.2-1.2h9.6c.72 0 1.2.48 1.2 1.2v4.8H48v-4.8c0-2.04-1.56-3.6-3.6-3.6zM24 9.43c.72 0 1.2-.48 1.2-1.2v-3.6c0-.72-.48-1.2-1.2-1.2s-1.2.48-1.2 1.2v3.6c0 .72.48 1.2 1.2 1.2zm9.6 9.6c0 .72.48 1.2 1.2 1.2h3.6c.72 0 1.2-.48 1.2-1.2s-.48-1.2-1.2-1.2h-3.6c-.72 0-1.2.48-1.2 1.2zm-24 1.2h3.6c.72 0 1.2-.48 1.2-1.2s-.48-1.2-1.2-1.2H9.6c-.72 0-1.2.48-1.2 1.2s.48 1.2 1.2 1.2zm5.88-8.04c.24.24.6.36.84.36s.6-.12.84-.36c.48-.48.48-1.2 0-1.68l-2.52-2.52a1.16 1.16 0 00-1.68 0c-.48.48-.48 1.2 0 1.68l2.52 2.52zm16.2.36c.36 0 .6-.12.84-.36l2.52-2.52c.48-.48.48-1.2 0-1.68a1.16 1.16 0 00-1.68 0l-2.52 2.52c-.48.48-.48 1.2 0 1.68.24.24.48.36.84.36z" fill="#5E51B0"/></symbol><symbol id="design-icon-1" viewBox="0 0 64 64"><path d="M42.655 42.673h-.009L31.991 53.328 21.328 42.673v-.017L10.673 32l10.655-10.655v-.018H10.69L0 32.01l10.664 10.664h10.655v10.638L32 64l10.655-10.664V42.673zM21.362 21.328l10.655-10.655 10.655 10.655v.017L53.327 32 42.672 42.655v.017H53.32L64 31.982 53.346 21.328H42.69V10.68L32 0 21.345 10.655v10.673h.017z"/></symbol><symbol id="design-icon-2" viewBox="0 0 32 33"><path d="M16 32.5h16V16.519l-16 15.98zM0 .5v15.981L16 .5H0zm23.995 8.014h-16v15.981h16V8.514z"/></symbol><symbol id="design-text" viewBox="0 0 218 87"><path fill="#000" d="M0 0h163.5v26.5H0zm0 29.5h214V56H0zM0 60h217.5v26.5H0z"/><path d="M8.25 16.6c1-1.65 1.2-4.35 1.2-10.9h19.8v10.9H32v6.55h-6.1v-2.6H12.1v2.6H6V16.6h2.25zm14.5 0V9.65H15.3c0 3-.3 5.7-1.05 6.95h8.5zm27.6-5.35l-10.7 9.35h-6.5V5.7h6.5v9.35l10.7-9.35h6.5v14.9h-6.5v-9.35zM82 16.05c0 2.55-2.35 4.75-11.15 4.75h-1.1c-7.4 0-11.35-1.95-11.35-5.6v-.3h6.75c.05 1.45 1.65 2.2 5.35 2.2 3.4 0 4.7-.5 4.7-1.3v-.05c0-.8-1.2-1.15-3.7-1.15h-5v-3.4h5c2.3 0 3.35-.25 3.35-.95v-.05c0-.7-1.35-1.1-4.45-1.1-3 0-5.1.5-5.2 2h-6.75v-.3c0-2.8 3.4-5.25 11.2-5.25h1.05c8.45 0 10.75 1.8 10.75 3.8v.15c0 1.5-1.45 2.75-4.2 3 3.05.25 4.75 1.6 4.75 3.35v.2zm17.2 2.15h-9.75l-1.3 2.4h-6.6L90 5.7h8.75l8.9 14.9h-7.15l-1.3-2.4zm-4.95-8.85l-2.8 5.1h5.65l-2.85-5.1zm31.15 1.9l-10.7 9.35h-6.5V5.7h6.5v9.35l10.7-9.35h6.5v14.9h-6.5v-9.35zm-5.7-6.3c-4.45 0-5.2-2.35-5.2-3.4V1.5h4.2c0 .25.2 1 1.45 1s1.4-.75 1.4-1h4.1v.05c0 1.05-1.05 3.4-5.1 3.4h-.85zm14.25.75h6.5v5.25h10.65V5.7h6.5v14.9h-6.5v-5.7h-10.65v5.65h-6.5V5.7zM22.35 39.5H15.3c0 5.9-.45 7.8-1.35 9.1-.9 1.35-2.35 2-5.45 2H6.35v-4.25h.35c.9 0 1.45-.1 1.85-.55.65-.7.85-2.35.85-10.1h19.45v14.9h-6.5V39.5zm21.55-4.1c11 0 12.4 4.6 12.4 7.4v.6c0 2.8-1.4 7.45-12.4 7.45h-1.05c-11.05 0-12.45-4.7-12.45-7.45v-.6c0-2.8 1.4-7.4 12.45-7.4h1.05zm5.65 7.55c0-1.6-1.15-3.5-6.2-3.5-5.15 0-6.2 1.95-6.2 3.5v.25c0 1.55 1.15 3.65 6.2 3.65 5.05 0 6.2-2 6.2-3.6v-.3zm8.15-7.25h18v3.95H64.2v10.9h-6.5V35.7zm32.4-.3c11 0 12.4 4.6 12.4 7.4v.6c0 2.8-1.4 7.45-12.4 7.45h-1.05c-11.05 0-12.45-4.7-12.45-7.45v-.6c0-2.8 1.4-7.4 12.45-7.4h1.05zm5.65 7.55c0-1.6-1.15-3.5-6.2-3.5-5.15 0-6.2 1.95-6.2 3.5v.25c0 1.55 1.15 3.65 6.2 3.65 5.05 0 6.2-2 6.2-3.6v-.3zm14.45-3.2h-7.35V35.7h21.2v4.05h-7.35v10.8h-6.5v-10.8zm32.55 1.5l-10.7 9.35h-6.5V35.7h6.5v9.35l10.7-9.35h6.5v14.9h-6.5v-9.35zm8.6-5.55h22.85v14.9h-6.5V39.65h-9.85v10.9h-6.5V35.7zm31.45 14.9h-6.5V35.7h6.5v14.9zm2.05-14.9h16.05c4.95 0 6.3 1.7 6.3 3.4v.2c0 1.85-1.8 2.7-2.95 2.9 1.5.3 3.9 1.2 3.9 3.8v.25c0 2.35-1.65 4.3-7.2 4.3h-16.1V35.7zm6.5 3.4v2.1h7.55c1.35 0 1.75-.5 1.75-1.05v-.05c0-.6-.4-1-1.75-1h-7.55zm0 5.4v2.55h7.95c1.7 0 2-.7 2-1.3v-.05c0-.65-.35-1.2-2-1.2h-7.95zM13.8 69.75H6.45V65.7h21.2v4.05H20.3v10.8h-6.5v-10.8zm28.15 8.45H32.2l-1.3 2.4h-6.6l8.45-14.9h8.75l8.9 14.9h-7.15l-1.3-2.4zM37 69.35l-2.8 5.1h5.65L37 69.35zm20.95-3.65h8.95l5.2 8.35 5.3-8.35H86v14.9h-6.45v-9.3l-6 9.3h-3.3l-5.95-9.3v9.3h-6.35V65.7zm46.25 12.5h-9.7l-1.3 2.4h-6.6l8.45-14.9h8.75l8.9 14.9h-7.1l-1.4-2.4zm-4.95-8.85l-2.8 5.1h5.65l-2.85-5.1zm20.45 4.55v6.65h-6.5v-14.9h6.5v5.9l8.4-5.9h8.1l-9.9 6.75 10.25 8.1H128l-8.3-6.6zm36.25-8.2v3.65H143.5v1.85h12.2v3.6h-12.2v2.05h12.6v3.7h-19.05v-14.9h18.9v.05zm8.55 4.05h-7.35V65.7h21.2v4.05H171v10.8h-6.5v-10.8zm21.9 10.85h-6.5V65.7h6.5v14.9zm2.1-14.9h16c4.95 0 6.3 1.7 6.3 3.4v.2c0 1.85-1.8 2.7-2.95 2.9 1.5.3 3.9 1.2 3.9 3.8v.25c0 2.35-1.65 4.3-7.2 4.3H188.5V65.7zm6.5 3.4v2.1h7.55c1.35 0 1.75-.5 1.75-1.05v-.05c0-.6-.4-1-1.75-1H195zm0 5.4v2.55h7.95c1.7 0 2-.7 2-1.3v-.05c0-.65-.35-1.2-2-1.2H195z" fill="#fff"/></symbol><symbol id="dotted-rect-small" viewBox="0 0 130 60"><g fill="#5CCCB6"><circle cx="128" cy="2" r="2" transform="rotate(90 128 2)"/><circle cx="114" cy="2" r="2" transform="rotate(90 114 2)"/><circle cx="100" cy="2" r="2" transform="rotate(90 100 2)"/><circle cx="86" cy="2" r="2" transform="rotate(90 86 2)"/><circle cx="72" cy="2" r="2" transform="rotate(90 72 2)"/><circle cx="58" cy="2" r="2" transform="rotate(90 58 2)"/><circle cx="44" cy="2" r="2" transform="rotate(90 44 2)"/><circle cx="30" cy="2" r="2" transform="rotate(90 30 2)"/><circle cx="16" cy="2" r="2" transform="rotate(90 16 2)"/><circle cx="2" cy="2" r="2" transform="rotate(90 2 2)"/><circle cx="128" cy="16" r="2" transform="rotate(90 128 16)"/><circle cx="114" cy="16" r="2" transform="rotate(90 114 16)"/><circle cx="100" cy="16" r="2" transform="rotate(90 100 16)"/><circle cx="86" cy="16" r="2" transform="rotate(90 86 16)"/><circle cx="72" cy="16" r="2" transform="rotate(90 72 16)"/><circle cx="58" cy="16" r="2" transform="rotate(90 58 16)"/><circle cx="44" cy="16" r="2" transform="rotate(90 44 16)"/><circle cx="30" cy="16" r="2" transform="rotate(90 30 16)"/><circle cx="16" cy="16" r="2" transform="rotate(90 16 16)"/><circle cx="2" cy="16" r="2" transform="rotate(90 2 16)"/><circle cx="128" cy="30" r="2" transform="rotate(90 128 30)"/><circle cx="114" cy="30" r="2" transform="rotate(90 114 30)"/><circle cx="100" cy="30" r="2" transform="rotate(90 100 30)"/><circle cx="86" cy="30" r="2" transform="rotate(90 86 30)"/><circle cx="72" cy="30" r="2" transform="rotate(90 72 30)"/><circle cx="58" cy="30" r="2" transform="rotate(90 58 30)"/><circle cx="44" cy="30" r="2" transform="rotate(90 44 30)"/><circle cx="30" cy="30" r="2" transform="rotate(90 30 30)"/><circle cx="16" cy="30" r="2" transform="rotate(90 16 30)"/><circle cx="2" cy="30" r="2" transform="rotate(90 2 30)"/><circle cx="128" cy="44" r="2" transform="rotate(90 128 44)"/><circle cx="114" cy="44" r="2" transform="rotate(90 114 44)"/><circle cx="100" cy="44" r="2" transform="rotate(90 100 44)"/><circle cx="86" cy="44" r="2" transform="rotate(90 86 44)"/><circle cx="72" cy="44" r="2" transform="rotate(90 72 44)"/><circle cx="58" cy="44" r="2" transform="rotate(90 58 44)"/><circle cx="44" cy="44" r="2" transform="rotate(90 44 44)"/><circle cx="30" cy="44" r="2" transform="rotate(90 30 44)"/><circle cx="16" cy="44" r="2" transform="rotate(90 16 44)"/><circle cx="2" cy="44" r="2" transform="rotate(90 2 44)"/><circle cx="128" cy="58" r="2" transform="rotate(90 128 58)"/><circle cx="114" cy="58" r="2" transform="rotate(90 114 58)"/><circle cx="100" cy="58" r="2" transform="rotate(90 100 58)"/><circle cx="86" cy="58" r="2" transform="rotate(90 86 58)"/><circle cx="72" cy="58" r="2" transform="rotate(90 72 58)"/><circle cx="58" cy="58" r="2" transform="rotate(90 58 58)"/><circle cx="44" cy="58" r="2" transform="rotate(90 44 58)"/><circle cx="30" cy="58" r="2" transform="rotate(90 30 58)"/><circle cx="16" cy="58" r="2" transform="rotate(90 16 58)"/><circle cx="2" cy="58" r="2" transform="rotate(90 2 58)"/></g></symbol><symbol id="dotted-rect-vertical" viewBox="0 0 130 270"><g fill="#5CCCB6"><circle cx="128" cy="2" r="2" transform="rotate(90 128 2)"/><circle cx="114" cy="2" r="2" transform="rotate(90 114 2)"/><circle cx="100" cy="2" r="2" transform="rotate(90 100 2)"/><circle cx="86" cy="2" r="2" transform="rotate(90 86 2)"/><circle cx="72" cy="2" r="2" transform="rotate(90 72 2)"/><circle cx="58" cy="2" r="2" transform="rotate(90 58 2)"/><circle cx="44" cy="2" r="2" transform="rotate(90 44 2)"/><circle cx="30" cy="2" r="2" transform="rotate(90 30 2)"/><circle cx="16" cy="2" r="2" transform="rotate(90 16 2)"/><circle cx="2" cy="2" r="2" transform="rotate(90 2 2)"/><circle cx="128" cy="16" r="2" transform="rotate(90 128 16)"/><circle cx="114" cy="16" r="2" transform="rotate(90 114 16)"/><circle cx="100" cy="16" r="2" transform="rotate(90 100 16)"/><circle cx="86" cy="16" r="2" transform="rotate(90 86 16)"/><circle cx="72" cy="16" r="2" transform="rotate(90 72 16)"/><circle cx="58" cy="16" r="2" transform="rotate(90 58 16)"/><circle cx="44" cy="16" r="2" transform="rotate(90 44 16)"/><circle cx="30" cy="16" r="2" transform="rotate(90 30 16)"/><circle cx="16" cy="16" r="2" transform="rotate(90 16 16)"/><circle cx="2" cy="16" r="2" transform="rotate(90 2 16)"/><circle cx="128" cy="30" r="2" transform="rotate(90 128 30)"/><circle cx="114" cy="30" r="2" transform="rotate(90 114 30)"/><circle cx="100" cy="30" r="2" transform="rotate(90 100 30)"/><circle cx="86" cy="30" r="2" transform="rotate(90 86 30)"/><circle cx="72" cy="30" r="2" transform="rotate(90 72 30)"/><circle cx="58" cy="30" r="2" transform="rotate(90 58 30)"/><circle cx="44" cy="30" r="2" transform="rotate(90 44 30)"/><circle cx="30" cy="30" r="2" transform="rotate(90 30 30)"/><circle cx="16" cy="30" r="2" transform="rotate(90 16 30)"/><circle cx="2" cy="30" r="2" transform="rotate(90 2 30)"/><circle cx="128" cy="44" r="2" transform="rotate(90 128 44)"/><circle cx="114" cy="44" r="2" transform="rotate(90 114 44)"/><circle cx="100" cy="44" r="2" transform="rotate(90 100 44)"/><circle cx="86" cy="44" r="2" transform="rotate(90 86 44)"/><circle cx="72" cy="44" r="2" transform="rotate(90 72 44)"/><circle cx="58" cy="44" r="2" transform="rotate(90 58 44)"/><circle cx="44" cy="44" r="2" transform="rotate(90 44 44)"/><circle cx="30" cy="44" r="2" transform="rotate(90 30 44)"/><circle cx="16" cy="44" r="2" transform="rotate(90 16 44)"/><circle cx="2" cy="44" r="2" transform="rotate(90 2 44)"/><circle cx="128" cy="58" r="2" transform="rotate(90 128 58)"/><circle cx="114" cy="58" r="2" transform="rotate(90 114 58)"/><circle cx="100" cy="58" r="2" transform="rotate(90 100 58)"/><circle cx="86" cy="58" r="2" transform="rotate(90 86 58)"/><circle cx="72" cy="58" r="2" transform="rotate(90 72 58)"/><circle cx="58" cy="58" r="2" transform="rotate(90 58 58)"/><circle cx="44" cy="58" r="2" transform="rotate(90 44 58)"/><circle cx="30" cy="58" r="2" transform="rotate(90 30 58)"/><circle cx="16" cy="58" r="2" transform="rotate(90 16 58)"/><circle cx="2" cy="58" r="2" transform="rotate(90 2 58)"/><circle cx="128" cy="72" r="2" transform="rotate(90 128 72)"/><circle cx="114" cy="72" r="2" transform="rotate(90 114 72)"/><circle cx="100" cy="72" r="2" transform="rotate(90 100 72)"/><circle cx="86" cy="72" r="2" transform="rotate(90 86 72)"/><circle cx="72" cy="72" r="2" transform="rotate(90 72 72)"/><circle cx="58" cy="72" r="2" transform="rotate(90 58 72)"/><circle cx="44" cy="72" r="2" transform="rotate(90 44 72)"/><circle cx="30" cy="72" r="2" transform="rotate(90 30 72)"/><circle cx="16" cy="72" r="2" transform="rotate(90 16 72)"/><circle cx="2" cy="72" r="2" transform="rotate(90 2 72)"/><circle cx="128" cy="86" r="2" transform="rotate(90 128 86)"/><circle cx="114" cy="86" r="2" transform="rotate(90 114 86)"/><circle cx="100" cy="86" r="2" transform="rotate(90 100 86)"/><circle cx="86" cy="86" r="2" transform="rotate(90 86 86)"/><circle cx="72" cy="86" r="2" transform="rotate(90 72 86)"/><circle cx="58" cy="86" r="2" transform="rotate(90 58 86)"/><circle cx="44" cy="86" r="2" transform="rotate(90 44 86)"/><circle cx="30" cy="86" r="2" transform="rotate(90 30 86)"/><circle cx="16" cy="86" r="2" transform="rotate(90 16 86)"/><circle cx="2" cy="86" r="2" transform="rotate(90 2 86)"/><circle cx="128" cy="100" r="2" transform="rotate(90 128 100)"/><circle cx="114" cy="100" r="2" transform="rotate(90 114 100)"/><circle cx="100" cy="100" r="2" transform="rotate(90 100 100)"/><circle cx="86" cy="100" r="2" transform="rotate(90 86 100)"/><circle cx="72" cy="100" r="2" transform="rotate(90 72 100)"/><circle cx="58" cy="100" r="2" transform="rotate(90 58 100)"/><circle cx="44" cy="100" r="2" transform="rotate(90 44 100)"/><circle cx="30" cy="100" r="2" transform="rotate(90 30 100)"/><circle cx="16" cy="100" r="2" transform="rotate(90 16 100)"/><circle cx="2" cy="100" r="2" transform="rotate(90 2 100)"/><circle cx="128" cy="114" r="2" transform="rotate(90 128 114)"/><circle cx="114" cy="114" r="2" transform="rotate(90 114 114)"/><circle cx="100" cy="114" r="2" transform="rotate(90 100 114)"/><circle cx="86" cy="114" r="2" transform="rotate(90 86 114)"/><circle cx="72" cy="114" r="2" transform="rotate(90 72 114)"/><circle cx="58" cy="114" r="2" transform="rotate(90 58 114)"/><circle cx="44" cy="114" r="2" transform="rotate(90 44 114)"/><circle cx="30" cy="114" r="2" transform="rotate(90 30 114)"/><circle cx="16" cy="114" r="2" transform="rotate(90 16 114)"/><circle cx="2" cy="114" r="2" transform="rotate(90 2 114)"/><circle cx="128" cy="128" r="2" transform="rotate(90 128 128)"/><circle cx="114" cy="128" r="2" transform="rotate(90 114 128)"/><circle cx="100" cy="128" r="2" transform="rotate(90 100 128)"/><circle cx="86" cy="128" r="2" transform="rotate(90 86 128)"/><circle cx="72" cy="128" r="2" transform="rotate(90 72 128)"/><circle cx="58" cy="128" r="2" transform="rotate(90 58 128)"/><circle cx="44" cy="128" r="2" transform="rotate(90 44 128)"/><circle cx="30" cy="128" r="2" transform="rotate(90 30 128)"/><circle cx="16" cy="128" r="2" transform="rotate(90 16 128)"/><circle cx="2" cy="128" r="2" transform="rotate(90 2 128)"/><circle cx="128" cy="142" r="2" transform="rotate(90 128 142)"/><circle cx="114" cy="142" r="2" transform="rotate(90 114 142)"/><circle cx="100" cy="142" r="2" transform="rotate(90 100 142)"/><circle cx="86" cy="142" r="2" transform="rotate(90 86 142)"/><circle cx="72" cy="142" r="2" transform="rotate(90 72 142)"/><circle cx="58" cy="142" r="2" transform="rotate(90 58 142)"/><circle cx="44" cy="142" r="2" transform="rotate(90 44 142)"/><circle cx="30" cy="142" r="2" transform="rotate(90 30 142)"/><circle cx="16" cy="142" r="2" transform="rotate(90 16 142)"/><circle cx="2" cy="142" r="2" transform="rotate(90 2 142)"/><circle cx="128" cy="156" r="2" transform="rotate(90 128 156)"/><circle cx="114" cy="156" r="2" transform="rotate(90 114 156)"/><circle cx="100" cy="156" r="2" transform="rotate(90 100 156)"/><circle cx="86" cy="156" r="2" transform="rotate(90 86 156)"/><circle cx="72" cy="156" r="2" transform="rotate(90 72 156)"/><circle cx="58" cy="156" r="2" transform="rotate(90 58 156)"/><circle cx="44" cy="156" r="2" transform="rotate(90 44 156)"/><circle cx="30" cy="156" r="2" transform="rotate(90 30 156)"/><circle cx="16" cy="156" r="2" transform="rotate(90 16 156)"/><circle cx="2" cy="156" r="2" transform="rotate(90 2 156)"/><circle cx="128" cy="170" r="2" transform="rotate(90 128 170)"/><circle cx="114" cy="170" r="2" transform="rotate(90 114 170)"/><circle cx="100" cy="170" r="2" transform="rotate(90 100 170)"/><circle cx="86" cy="170" r="2" transform="rotate(90 86 170)"/><circle cx="72" cy="170" r="2" transform="rotate(90 72 170)"/><circle cx="58" cy="170" r="2" transform="rotate(90 58 170)"/><circle cx="44" cy="170" r="2" transform="rotate(90 44 170)"/><circle cx="30" cy="170" r="2" transform="rotate(90 30 170)"/><circle cx="16" cy="170" r="2" transform="rotate(90 16 170)"/><circle cx="2" cy="170" r="2" transform="rotate(90 2 170)"/><circle cx="128" cy="184" r="2" transform="rotate(90 128 184)"/><circle cx="114" cy="184" r="2" transform="rotate(90 114 184)"/><circle cx="100" cy="184" r="2" transform="rotate(90 100 184)"/><circle cx="86" cy="184" r="2" transform="rotate(90 86 184)"/><circle cx="72" cy="184" r="2" transform="rotate(90 72 184)"/><circle cx="58" cy="184" r="2" transform="rotate(90 58 184)"/><circle cx="44" cy="184" r="2" transform="rotate(90 44 184)"/><circle cx="30" cy="184" r="2" transform="rotate(90 30 184)"/><circle cx="16" cy="184" r="2" transform="rotate(90 16 184)"/><circle cx="2" cy="184" r="2" transform="rotate(90 2 184)"/><circle cx="128" cy="198" r="2" transform="rotate(90 128 198)"/><circle cx="114" cy="198" r="2" transform="rotate(90 114 198)"/><circle cx="100" cy="198" r="2" transform="rotate(90 100 198)"/><circle cx="86" cy="198" r="2" transform="rotate(90 86 198)"/><circle cx="72" cy="198" r="2" transform="rotate(90 72 198)"/><circle cx="58" cy="198" r="2" transform="rotate(90 58 198)"/><circle cx="44" cy="198" r="2" transform="rotate(90 44 198)"/><circle cx="30" cy="198" r="2" transform="rotate(90 30 198)"/><circle cx="16" cy="198" r="2" transform="rotate(90 16 198)"/><circle cx="2" cy="198" r="2" transform="rotate(90 2 198)"/><circle cx="128" cy="212" r="2" transform="rotate(90 128 212)"/><circle cx="114" cy="212" r="2" transform="rotate(90 114 212)"/><circle cx="100" cy="212" r="2" transform="rotate(90 100 212)"/><circle cx="86" cy="212" r="2" transform="rotate(90 86 212)"/><circle cx="72" cy="212" r="2" transform="rotate(90 72 212)"/><circle cx="58" cy="212" r="2" transform="rotate(90 58 212)"/><circle cx="44" cy="212" r="2" transform="rotate(90 44 212)"/><circle cx="30" cy="212" r="2" transform="rotate(90 30 212)"/><circle cx="16" cy="212" r="2" transform="rotate(90 16 212)"/><circle cx="2" cy="212" r="2" transform="rotate(90 2 212)"/><circle cx="128" cy="226" r="2" transform="rotate(90 128 226)"/><circle cx="114" cy="226" r="2" transform="rotate(90 114 226)"/><circle cx="100" cy="226" r="2" transform="rotate(90 100 226)"/><circle cx="86" cy="226" r="2" transform="rotate(90 86 226)"/><circle cx="72" cy="226" r="2" transform="rotate(90 72 226)"/><circle cx="58" cy="226" r="2" transform="rotate(90 58 226)"/><circle cx="44" cy="226" r="2" transform="rotate(90 44 226)"/><circle cx="30" cy="226" r="2" transform="rotate(90 30 226)"/><circle cx="16" cy="226" r="2" transform="rotate(90 16 226)"/><circle cx="2" cy="226" r="2" transform="rotate(90 2 226)"/><circle cx="128" cy="240" r="2" transform="rotate(90 128 240)"/><circle cx="114" cy="240" r="2" transform="rotate(90 114 240)"/><circle cx="100" cy="240" r="2" transform="rotate(90 100 240)"/><circle cx="86" cy="240" r="2" transform="rotate(90 86 240)"/><circle cx="72" cy="240" r="2" transform="rotate(90 72 240)"/><circle cx="58" cy="240" r="2" transform="rotate(90 58 240)"/><circle cx="44" cy="240" r="2" transform="rotate(90 44 240)"/><circle cx="30" cy="240" r="2" transform="rotate(90 30 240)"/><circle cx="16" cy="240" r="2" transform="rotate(90 16 240)"/><circle cx="2" cy="240" r="2" transform="rotate(90 2 240)"/><circle cx="128" cy="254" r="2" transform="rotate(90 128 254)"/><circle cx="114" cy="254" r="2" transform="rotate(90 114 254)"/><circle cx="100" cy="254" r="2" transform="rotate(90 100 254)"/><circle cx="86" cy="254" r="2" transform="rotate(90 86 254)"/><circle cx="72" cy="254" r="2" transform="rotate(90 72 254)"/><circle cx="58" cy="254" r="2" transform="rotate(90 58 254)"/><circle cx="44" cy="254" r="2" transform="rotate(90 44 254)"/><circle cx="30" cy="254" r="2" transform="rotate(90 30 254)"/><circle cx="16" cy="254" r="2" transform="rotate(90 16 254)"/><circle cx="2" cy="254" r="2" transform="rotate(90 2 254)"/><circle cx="128" cy="268" r="2" transform="rotate(90 128 268)"/><circle cx="114" cy="268" r="2" transform="rotate(90 114 268)"/><circle cx="100" cy="268" r="2" transform="rotate(90 100 268)"/><circle cx="86" cy="268" r="2" transform="rotate(90 86 268)"/><circle cx="72" cy="268" r="2" transform="rotate(90 72 268)"/><circle cx="58" cy="268" r="2" transform="rotate(90 58 268)"/><circle cx="44" cy="268" r="2" transform="rotate(90 44 268)"/><circle cx="30" cy="268" r="2" transform="rotate(90 30 268)"/><circle cx="16" cy="268" r="2" transform="rotate(90 16 268)"/><circle cx="2" cy="268" r="2" transform="rotate(90 2 268)"/></g></symbol><symbol id="dotted-rectangle" viewBox="0 0 270 130"><g fill="#5CCCB6"><circle cx="2" cy="2" r="2"/><circle cx="2" cy="16" r="2"/><circle cx="2" cy="30" r="2"/><circle cx="2" cy="44" r="2"/><circle cx="2" cy="58" r="2"/><circle cx="2" cy="72" r="2"/><circle cx="2" cy="86" r="2"/><circle cx="2" cy="100" r="2"/><circle cx="2" cy="114" r="2"/><circle cx="2" cy="128" r="2"/><circle cx="16" cy="2" r="2"/><circle cx="16" cy="16" r="2"/><circle cx="16" cy="30" r="2"/><circle cx="16" cy="44" r="2"/><circle cx="16" cy="58" r="2"/><circle cx="16" cy="72" r="2"/><circle cx="16" cy="86" r="2"/><circle cx="16" cy="100" r="2"/><circle cx="16" cy="114" r="2"/><circle cx="16" cy="128" r="2"/><circle cx="30" cy="2" r="2"/><circle cx="30" cy="16" r="2"/><circle cx="30" cy="30" r="2"/><circle cx="30" cy="44" r="2"/><circle cx="30" cy="58" r="2"/><circle cx="30" cy="72" r="2"/><circle cx="30" cy="86" r="2"/><circle cx="30" cy="100" r="2"/><circle cx="30" cy="114" r="2"/><circle cx="30" cy="128" r="2"/><circle cx="44" cy="2" r="2"/><circle cx="44" cy="16" r="2"/><circle cx="44" cy="30" r="2"/><circle cx="44" cy="44" r="2"/><circle cx="44" cy="58" r="2"/><circle cx="44" cy="72" r="2"/><circle cx="44" cy="86" r="2"/><circle cx="44" cy="100" r="2"/><circle cx="44" cy="114" r="2"/><circle cx="44" cy="128" r="2"/><circle cx="58" cy="2" r="2"/><circle cx="58" cy="16" r="2"/><circle cx="58" cy="30" r="2"/><circle cx="58" cy="44" r="2"/><circle cx="58" cy="58" r="2"/><circle cx="58" cy="72" r="2"/><circle cx="58" cy="86" r="2"/><circle cx="58" cy="100" r="2"/><circle cx="58" cy="114" r="2"/><circle cx="58" cy="128" r="2"/><circle cx="72" cy="2" r="2"/><circle cx="72" cy="16" r="2"/><circle cx="72" cy="30" r="2"/><circle cx="72" cy="44" r="2"/><circle cx="72" cy="58" r="2"/><circle cx="72" cy="72" r="2"/><circle cx="72" cy="86" r="2"/><circle cx="72" cy="100" r="2"/><circle cx="72" cy="114" r="2"/><circle cx="72" cy="128" r="2"/><circle cx="86" cy="2" r="2"/><circle cx="86" cy="16" r="2"/><circle cx="86" cy="30" r="2"/><circle cx="86" cy="44" r="2"/><circle cx="86" cy="58" r="2"/><circle cx="86" cy="72" r="2"/><circle cx="86" cy="86" r="2"/><circle cx="86" cy="100" r="2"/><circle cx="86" cy="114" r="2"/><circle cx="86" cy="128" r="2"/><circle cx="100" cy="2" r="2"/><circle cx="100" cy="16" r="2"/><circle cx="100" cy="30" r="2"/><circle cx="100" cy="44" r="2"/><circle cx="100" cy="58" r="2"/><circle cx="100" cy="72" r="2"/><circle cx="100" cy="86" r="2"/><circle cx="100" cy="100" r="2"/><circle cx="100" cy="114" r="2"/><circle cx="100" cy="128" r="2"/><circle cx="114" cy="2" r="2"/><circle cx="114" cy="16" r="2"/><circle cx="114" cy="30" r="2"/><circle cx="114" cy="44" r="2"/><circle cx="114" cy="58" r="2"/><circle cx="114" cy="72" r="2"/><circle cx="114" cy="86" r="2"/><circle cx="114" cy="100" r="2"/><circle cx="114" cy="114" r="2"/><circle cx="114" cy="128" r="2"/><circle cx="128" cy="2" r="2"/><circle cx="128" cy="16" r="2"/><circle cx="128" cy="30" r="2"/><circle cx="128" cy="44" r="2"/><circle cx="128" cy="58" r="2"/><circle cx="128" cy="72" r="2"/><circle cx="128" cy="86" r="2"/><circle cx="128" cy="100" r="2"/><circle cx="128" cy="114" r="2"/><circle cx="128" cy="128" r="2"/><circle cx="142" cy="2" r="2"/><circle cx="142" cy="16" r="2"/><circle cx="142" cy="30" r="2"/><circle cx="142" cy="44" r="2"/><circle cx="142" cy="58" r="2"/><circle cx="142" cy="72" r="2"/><circle cx="142" cy="86" r="2"/><circle cx="142" cy="100" r="2"/><circle cx="142" cy="114" r="2"/><circle cx="142" cy="128" r="2"/><circle cx="156" cy="2" r="2"/><circle cx="156" cy="16" r="2"/><circle cx="156" cy="30" r="2"/><circle cx="156" cy="44" r="2"/><circle cx="156" cy="58" r="2"/><circle cx="156" cy="72" r="2"/><circle cx="156" cy="86" r="2"/><circle cx="156" cy="100" r="2"/><circle cx="156" cy="114" r="2"/><circle cx="156" cy="128" r="2"/><circle cx="170" cy="2" r="2"/><circle cx="170" cy="16" r="2"/><circle cx="170" cy="30" r="2"/><circle cx="170" cy="44" r="2"/><circle cx="170" cy="58" r="2"/><circle cx="170" cy="72" r="2"/><circle cx="170" cy="86" r="2"/><circle cx="170" cy="100" r="2"/><circle cx="170" cy="114" r="2"/><circle cx="170" cy="128" r="2"/><circle cx="184" cy="2" r="2"/><circle cx="184" cy="16" r="2"/><circle cx="184" cy="30" r="2"/><circle cx="184" cy="44" r="2"/><circle cx="184" cy="58" r="2"/><circle cx="184" cy="72" r="2"/><circle cx="184" cy="86" r="2"/><circle cx="184" cy="100" r="2"/><circle cx="184" cy="114" r="2"/><circle cx="184" cy="128" r="2"/><circle cx="198" cy="2" r="2"/><circle cx="198" cy="16" r="2"/><circle cx="198" cy="30" r="2"/><circle cx="198" cy="44" r="2"/><circle cx="198" cy="58" r="2"/><circle cx="198" cy="72" r="2"/><circle cx="198" cy="86" r="2"/><circle cx="198" cy="100" r="2"/><circle cx="198" cy="114" r="2"/><circle cx="198" cy="128" r="2"/><circle cx="212" cy="2" r="2"/><circle cx="212" cy="16" r="2"/><circle cx="212" cy="30" r="2"/><circle cx="212" cy="44" r="2"/><circle cx="212" cy="58" r="2"/><circle cx="212" cy="72" r="2"/><circle cx="212" cy="86" r="2"/><circle cx="212" cy="100" r="2"/><circle cx="212" cy="114" r="2"/><circle cx="212" cy="128" r="2"/><circle cx="226" cy="2" r="2"/><circle cx="226" cy="16" r="2"/><circle cx="226" cy="30" r="2"/><circle cx="226" cy="44" r="2"/><circle cx="226" cy="58" r="2"/><circle cx="226" cy="72" r="2"/><circle cx="226" cy="86" r="2"/><circle cx="226" cy="100" r="2"/><circle cx="226" cy="114" r="2"/><circle cx="226" cy="128" r="2"/><circle cx="240" cy="2" r="2"/><circle cx="240" cy="16" r="2"/><circle cx="240" cy="30" r="2"/><circle cx="240" cy="44" r="2"/><circle cx="240" cy="58" r="2"/><circle cx="240" cy="72" r="2"/><circle cx="240" cy="86" r="2"/><circle cx="240" cy="100" r="2"/><circle cx="240" cy="114" r="2"/><circle cx="240" cy="128" r="2"/><circle cx="254" cy="2" r="2"/><circle cx="254" cy="16" r="2"/><circle cx="254" cy="30" r="2"/><circle cx="254" cy="44" r="2"/><circle cx="254" cy="58" r="2"/><circle cx="254" cy="72" r="2"/><circle cx="254" cy="86" r="2"/><circle cx="254" cy="100" r="2"/><circle cx="254" cy="114" r="2"/><circle cx="254" cy="128" r="2"/><circle cx="268" cy="2" r="2"/><circle cx="268" cy="16" r="2"/><circle cx="268" cy="30" r="2"/><circle cx="268" cy="44" r="2"/><circle cx="268" cy="58" r="2"/><circle cx="268" cy="72" r="2"/><circle cx="268" cy="86" r="2"/><circle cx="268" cy="100" r="2"/><circle cx="268" cy="114" r="2"/><circle cx="268" cy="128" r="2"/></g></symbol><symbol id="double-arrow-to-bottom" viewBox="0 0 86 154"><path d="M86 43.03V0h-.057L43.002 42.973.057 0H0v42.917L43.059 86 86 43.03z" fill="#5CCCB6"/><path d="M86 111.03V68h-.057l-42.941 42.973L.057 68H0v42.917L43.059 154 86 111.03z" fill="#5CCCB6"/></symbol><symbol id="double-arrow" viewBox="0 0 169 85"><path d="M84.5 84.944L42.276 42.502 84.5.056V0H42.332L0 42.558 42.22 85H84.5v-.056zm42.22.056H169v-.056l-42.224-42.442L169 .056V0h-42.168L84.5 42.558 126.72 85z"/></symbol><symbol id="eye" viewBox="0 0 24 24"><path d="M23.848 11.181C23.633 10.889 18.524 4 12 4S.366 10.888.152 11.181a.792.792 0 000 .934c.214.293 5.323 7.182 11.848 7.182 6.524 0 11.633-6.889 11.848-7.182a.791.791 0 000-.934zM12 17.715c-4.806 0-8.969-4.572-10.2-6.066C3.03 10.152 7.183 5.582 12 5.582c4.806 0 8.968 4.571 10.2 6.067-1.23 1.496-5.384 6.065-10.2 6.065z" fill="#5CCCB6"/><path d="M12 6.901a4.753 4.753 0 00-4.748 4.747A4.753 4.753 0 0012 16.396a4.753 4.753 0 004.747-4.748A4.753 4.753 0 0012 6.901zm0 7.912a3.168 3.168 0 01-3.165-3.165A3.168 3.168 0 0112 8.484a3.168 3.168 0 013.165 3.164A3.168 3.168 0 0112 14.813z" fill="#5CCCB6"/></symbol><symbol id="fast" viewBox="0 0 48 48"><path d="M38.84 15.406l-10.186 2.928V0L9.428 33.485l11.46-2.928v17.316L38.84 15.406zM14.649 29.538L26.108 9.55v12.223l7.639-2.165L23.56 38.07V27.374l-8.912 2.165z" fill="#5E51B0"/></symbol><symbol id="hero-shape" viewBox="0 0 438 446"><path d="M0 0h438v446L0 402.549V0z" fill="#F9F9F9"/></symbol><symbol id="home" viewBox="0 0 18 19"><path fill="transparent" d="M6.387 18.136V9.601h5.12v8.534M1.267 7.042l7.68-5.973 7.68 5.973v9.387a1.706 1.706 0 01-1.707 1.707H2.973a1.707 1.707 0 01-1.706-1.707V7.042z"/></symbol><symbol id="i" viewBox="0 0 22 22"><path d="M11.011 21.823c5.919 0 10.816-4.89 10.816-10.808S16.922.208 11.003.208c-5.91 0-10.8 4.889-10.8 10.807 0 5.919 4.898 10.808 10.809 10.808zm0-1.544a9.24 9.24 0 01-9.255-9.264 9.232 9.232 0 019.247-9.264 9.253 9.253 0 019.272 9.264 9.236 9.236 0 01-9.263 9.264zm-.074-13.223c.705 0 1.253-.556 1.253-1.254 0-.705-.548-1.261-1.253-1.261a1.25 1.25 0 00-1.254 1.261c0 .698.556 1.254 1.254 1.254zm-1.826 9.82h4.382a.656.656 0 00.673-.656c0-.365-.299-.648-.673-.648h-1.469v-5.81c0-.482-.249-.814-.714-.814H9.268a.654.654 0 00-.672.648c0 .373.29.655.672.655h1.304v5.321H9.11c-.382 0-.673.283-.673.648 0 .373.29.655.673.655z"/></symbol><symbol id="list-arrow" viewBox="0 0 16 16"><path d="M10.66 5.35L0 5.373 5.34.023 16 0l-.022 10.662L10.638 16l.022-10.65z"/></symbol><symbol id="logo" viewBox="0 0 162 37"><path d="M30.4 19.09a4.173 4.173 0 00-1.212-.682 6.806 6.806 0 00-1.506-.363c1.064-.155 1.859-.455 2.39-.893a2.4 2.4 0 00.791-1.946v-.42a2.864 2.864 0 00-.376-1.472 3.193 3.193 0 00-1.106-1.092 5.68 5.68 0 00-1.78-.679 11.002 11.002 0 00-2.398-.235H10.971v14.506h14.093c.85.005 1.698-.058 2.538-.187a6.754 6.754 0 002.049-.63 3.607 3.607 0 001.367-1.191 3.31 3.31 0 00.498-1.869v-.512a2.84 2.84 0 00-.297-1.327 3.102 3.102 0 00-.818-1.009zm-14.074-4.562h7.75c.362-.028.722.066 1.023.268a.816.816 0 01.335.66v.194a.92.92 0 01-.335.717 1.638 1.638 0 01-1.082.297h-7.691v-2.136zm9.767 6.677a.895.895 0 01-.137.548.974.974 0 01-.397.33c-.189.084-.388.14-.593.167a4.818 4.818 0 01-.703.047h-7.937v-2.404h7.84a3.25 3.25 0 011.363.24.89.89 0 01.564.813v.26zm13.571-6.285h12.88v-3.612h-18.19v14.506h18.25V22.22h-12.94v-1.887h12.94v-3.592h-12.94v-1.82zm41.988-3.612h-5.939l-3.745 5.24H61.193v-5.24h-5.37v14.506h5.37v-5.442H72.2l4.041 5.442h6.078l-5.77-7.377 5.103-7.13zm1.886 3.612h7.333v10.894h5.381V14.92h7.333v-3.612H83.538v3.612zm67.275-.907a4.345 4.345 0 00-1.352-1.47 6.572 6.572 0 00-2.097-.92 10.808 10.808 0 00-2.71-.315h-13.799v14.506h5.337v-3.91h8.682a9.819 9.819 0 002.615-.324 6.062 6.062 0 002.025-.958 4.297 4.297 0 001.313-1.577 4.89 4.89 0 00.466-2.182v-.892a4.002 4.002 0 00-.48-1.958zm-4.961 2.755a1.45 1.45 0 01-.16.705 1.376 1.376 0 01-.436.48 1.908 1.908 0 01-.628.273 3.168 3.168 0 01-.742.087h-7.67V14.91h7.78c.255-.002.511.02.762.066.211.035.413.113.593.229a1.1 1.1 0 01.374.443c.098.22.145.46.136.7l-.009.42zm-20.308-4.008a8.59 8.59 0 00-2.965-1.328 16.302 16.302 0 00-3.997-.455h-3.478a16.495 16.495 0 00-4.059.45 8.658 8.658 0 00-2.965 1.315 5.685 5.685 0 00-1.823 2.142 6.591 6.591 0 00-.623 2.931v1.488a6.55 6.55 0 00.623 2.928 5.692 5.692 0 001.823 2.137 8.683 8.683 0 002.965 1.315c1.329.318 2.691.469 4.056.45h3.461c1.35.015 2.696-.138 4.008-.456a8.795 8.795 0 002.966-1.336 5.78 5.78 0 001.826-2.14 6.492 6.492 0 00.623-2.895v-1.488a6.53 6.53 0 00-.623-2.907 5.793 5.793 0 00-1.818-2.151zm-2.965 6.624a2.794 2.794 0 01-.358 1.458 2.94 2.94 0 01-.949.97c-.4.256-.842.44-1.305.544-.47.111-.952.168-1.435.17h-3.439a6.228 6.228 0 01-1.462-.17 4.084 4.084 0 01-1.299-.544 2.86 2.86 0 01-.928-.982 2.803 2.803 0 01-.356-1.458v-1.637a2.816 2.816 0 01.359-1.461c.233-.394.551-.73.931-.982.397-.26.838-.444 1.302-.545a6.4 6.4 0 011.464-.166h3.437c.484 0 .966.055 1.438.163.463.103.904.285 1.305.539.383.248.704.582.937.976.253.454.377.968.358 1.488v1.637z"/><path d="M145.44 5.553l5.521-5.538L162 0v11.108l-5.521 5.523V5.553H145.44zM5.518 31.444h11.039l-5.518 5.553H0v-11.09l5.518-5.541v11.078z" fill="#5CCCB6"/></symbol><symbol id="more" viewBox="0 0 22 6"><path d="M3.8 3a.8.8 0 11-1.6 0 .8.8 0 011.6 0zm8 0a.8.8 0 11-1.6 0 .8.8 0 011.6 0zm8 0a.8.8 0 11-1.6 0 .8.8 0 011.6 0z"/><path d="M3.8 3a.8.8 0 11-1.6 0 .8.8 0 011.6 0zm8 0a.8.8 0 11-1.6 0 .8.8 0 011.6 0zm8 0a.8.8 0 11-1.6 0 .8.8 0 011.6 0z"/></symbol><symbol id="place" viewBox="0 0 48 48"><path d="M23.655 0C13.473 0 5.143 8.33 5.143 18.512c0 15.075 16.925 28.298 17.719 28.827l.793.661.794-.661c.793-.53 17.719-13.752 17.719-28.827C42.168 8.331 33.837 0 23.655 0zm0 44.562C20.35 41.785 7.787 30.413 7.787 18.512c0-8.727 7.14-15.867 15.868-15.867 8.727 0 15.868 7.14 15.868 15.867 0 11.901-12.562 23.273-15.868 26.05z" fill="#5E51B0"/><path d="M24.977 11.901h-5.289v2.645h2.645v13.223h-2.645v2.645h7.934v-2.645h-2.645V11.901z" fill="#5E51B0"/></symbol><symbol id="printing-icon-2" viewBox="0 0 40 40"><path d="M15.996 15.99l.02.02H0v15.985L8.001 40l.014-.013V24.003H23.99l.02-.02V7.999h15.976L40 7.985 32.019 0H16.003l-.007 15.99z"/></symbol><symbol id="printing-text" viewBox="0 0 245 87"><path fill="#000" d="M0 0h193v26.5H0zm0 29.5h244.5V56H0zM0 60h105.5v26.5H0z"/><path d="M7.25 76.7c1-1.65 1.2-4.35 1.2-10.9h19.8v10.9H31v6.55h-6.1v-2.6H11.1v2.6H5V76.7h2.25zm14.5 0v-6.95H14.3c0 3-.3 5.7-1.05 6.95h8.5zM38.7 76v4.65h-6.5v-14.9h14.2c6.3 0 8.1 2.2 8.1 4.9v.3c0 2.7-1.85 5-8.1 5h-7.7V76zm0-3.7h6.9c1.5 0 2.15-.55 2.15-1.35v-.05c0-.85-.6-1.35-2.15-1.35h-6.9v2.75z" fill="#fff"/><path d="M68.1 77.3c-1.95 2.55-2.75 3.4-6.5 3.4h-3.4v-4h3c.45 0 .6-.1.6-.35 0-.2-.1-.4-.3-.6l-8.4-9.9h7.55l5 6.45 4.55-6.45h6.6L68.1 77.3zM83.9 74v6.65h-6.5v-14.9h6.5v5.9l8.4-5.9h8.1l-9.9 6.75 10.25 8.1H92.3L83.9 74zM18.2 35.6h6.5v1.35H29c5.4 0 8.75 2.05 8.75 5.8v.3c0 3.75-3.35 5.9-8.75 5.9h-4.3v1.9h-6.5v-1.9h-4.3c-5.4 0-8.75-2.1-8.75-5.85v-.3c0-3.7 3.4-5.8 8.75-5.8h4.3v-1.4zm-2.9 5.1c-2.45 0-3.55.9-3.55 2.15V43c0 1.3 1.1 2.2 3.55 2.2h3v-4.5h-3zm9.35 4.5h3c2.45 0 3.55-.95 3.55-2.2v-.1c0-1.25-1.1-2.15-3.55-2.15h-3v4.45zm27.4-9.7c11 0 12.4 4.6 12.4 7.4v.6c0 2.8-1.4 7.45-12.4 7.45H51c-11.05 0-12.45-4.7-12.45-7.45v-.6c.05-2.8 1.4-7.4 12.45-7.4h1.05zM57.7 43c0-1.6-1.15-3.5-6.2-3.5-5.15 0-6.2 1.95-6.2 3.5v.25c0 1.55 1.15 3.65 6.2 3.65 5.05 0 6.2-2 6.2-3.6V43zm14.751 3v4.65h-6.5V35.8h14.2c6.3 0 8.1 2.2 8.1 4.9v.3c0 2.7-1.85 5-8.1 5h-7.7zm0-3.7h6.9c1.5 0 2.15-.55 2.15-1.35v-.05c0-.85-.6-1.35-2.15-1.35h-6.9v2.75zm17.099-6.5h8.95l5.2 8.35 5.3-8.35h8.55v14.9h-6.45v-9.3l-6 9.3h-3.3l-5.95-9.3v9.3H89.5V35.8h.05zm46.301 12.45h-9.75l-1.3 2.4h-6.6l8.45-14.9h8.75l8.9 14.9h-7.1l-1.35-2.4zm-4.95-8.85l-2.8 5.1h5.65l-2.85-5.1zm17.25.45h-7.35V35.8h21.2v4.05h-7.35v10.8h-6.5v-10.8zM163.5 35.8h6.5v5.25h10.65V35.8h6.5v14.9h-6.5V45H170v5.65h-6.5V35.8zm42.901 5.5l-10.7 9.35h-6.5V35.8h6.5v9.35l10.7-9.35h6.5v14.9h-6.5v-9.4zm25.799 0l-10.7 9.35H215V35.8h6.5v9.35l10.7-9.35h6.5v14.9h-6.5v-9.4zm-5.65-6.3c-4.45 0-5.2-2.35-5.2-3.4v-.05h4.2c0 .25.2 1 1.45 1s1.4-.75 1.4-1h4.1v.05c0 1.05-1.05 3.4-5.1 3.4h-.85zM6 5.8h6.65v10.9h6.6V5.8h6.65v10.9h6.6V5.8h6.65v14.9H6V5.8zm52.4 5.5l-10.7 9.35h-6.5V5.8h6.5v9.35L58.4 5.8h6.5v14.9h-6.5v-9.4zM73.55 16v4.65h-6.5V5.8h14.2c6.3 0 8.1 2.2 8.1 4.9v.3c0 2.7-1.85 5-8.1 5h-7.7zm0-3.7h6.9c1.5 0 2.15-.55 2.15-1.35v-.05c0-.85-.6-1.35-2.15-1.35h-6.9v2.75zm30.001-6.8c11 0 12.4 4.6 12.4 7.4v.6c0 2.8-1.4 7.45-12.4 7.45h-1.05c-11.05 0-12.45-4.7-12.45-7.45v-.6c0-2.8 1.4-7.4 12.45-7.4h1.05zm5.65 7.5c0-1.6-1.15-3.5-6.2-3.5-5.15 0-6.2 1.95-6.2 3.5v.25c0 1.55 1.15 3.65 6.2 3.65 5.05 0 6.2-2 6.2-3.6V13zm14.699 1v6.65h-6.5V5.8h6.5v5.9l8.4-5.9h8.1l-9.9 6.75 10.25 8.1h-8.45L123.9 14z" fill="#fff"/><path d="M151.7 5.5c11 0 12.4 4.6 12.4 7.4v.6c0 2.8-1.4 7.45-12.4 7.45h-1.05c-11.05 0-12.45-4.7-12.45-7.45v-.6c0-2.8 1.4-7.4 12.45-7.4h1.05zm5.7 7.5c0-1.6-1.15-3.5-6.2-3.5-5.15 0-6.2 1.95-6.2 3.5v.25c0 1.55 1.15 3.65 6.2 3.65 5.05 0 6.2-2 6.2-3.6V13zm29.8.3v2.85h-19.95V13.3h19.95z" fill="#fff"/></symbol><symbol id="quality" viewBox="0 0 48 48"><path d="M35.617 29.702l3.133-.752v-6.767l4.136-4.136-4.136-5.514v-5.64l-5.64-1.379L28.976 0l-5.39 2.632L18.198 0 14.06 5.514 8.547 6.893v5.514L4.41 17.922l4.136 4.135v6.768l3.133.752-7.394 9.9 8.522 1.129L16.693 48l7.018-9.4 6.893 9.4 3.885-7.52 8.523-1.127-7.395-9.65zm-24.564-2.757V21.18L7.67 17.796l3.384-4.511V8.773l4.512-1.003 3.384-4.512 4.637 2.382 4.637-2.382 3.384 4.512 4.511 1.003v4.512l3.384 4.511-3.384 3.384v5.765l-4.511 1.128-3.384 4.512-4.637-2.381-4.637 2.38-3.384-4.51-4.512-1.129zm6.016 16.418l-2.632-5.013-5.64-.752 5.39-7.144 4.01 5.39 2.506-1.254 1.504 2.005-5.138 6.768zM32.86 38.35l-2.632 5.013-7.269-10.026.627-.25 5.389 2.631 4.01-5.389 5.39 7.144-5.515.877z" fill="#5E51B0"/><path d="M23.586 29.201c6.266 0 11.28-5.013 11.28-11.279s-5.014-11.28-11.28-11.28a11.232 11.232 0 00-11.28 11.28c0 6.266 5.139 11.28 11.28 11.28zm0-20.052a8.719 8.719 0 018.773 8.773 8.719 8.719 0 01-8.773 8.773 8.719 8.719 0 01-8.773-8.773c0-4.888 4.01-8.773 8.773-8.773z" fill="#5E51B0"/><path d="M19.952 22.935l3.634-1.88 3.76 1.88-.752-4.136 3.008-2.883-4.136-.626-1.88-3.635-1.754 3.635-4.136.626 3.008 2.883-.752 4.136z" fill="#5E51B0"/></symbol><symbol id="rect-1" viewBox="0 0 1672 1142"><path opacity=".1" d="M0 976.086L1672 1142V165.914L0 0v976.086z" fill="#5CCCB6"/></symbol><symbol id="rect-2" viewBox="0 0 1672 870"><path opacity=".1" d="M1672 703.5L0 869.414v-703.5L1672 0v703.5z" fill="#5CCCB6"/></symbol><symbol id="rect-3" viewBox="0 0 1672 1142"><path opacity=".1" d="M1672 976.086L0 1142V165.914L1672 0v976.086z" fill="#5CCCB6"/></symbol><symbol id="screen" viewBox="0 0 56 56"><path d="M31.063 15.284l-3.979-8.105-3.979 8.105L15 19.263l8.105 3.979 3.98 8.105 3.978-8.105 8.105-3.98-8.105-3.978zM29 21.179l-1.916 3.684-1.916-3.684-3.684-1.916 3.684-1.916 1.916-3.684L29 17.347l3.684 1.916L29 21.179zm6.927-6.337l1.474-2.947 2.947-1.474-2.947-1.474L35.927 6l-1.474 2.947-2.947 1.474 2.947 1.474 1.474 2.947z" fill="#5E51B0"/><path d="M56 36.368V1H0v35.368h23.579v14.737h-2.947v2.948h14.736v-2.948h-2.947V36.368H56zM29.474 51.105h-2.948V36.368h2.948v14.737zm-5.895-17.684H2.947V3.947h50.106v29.474H23.579z" fill="#5E51B0"/></symbol><symbol id="search" viewBox="0 0 48 48"><path d="M29.171 4.836H7.408v2.419h21.763V4.836zm0 4.837H7.408v2.418h21.763V9.673zm0 4.836H7.408v2.418h21.763v-2.418z" fill="#5E51B0"/><path d="M36.667 38.328c1.33-1.935 2.176-4.353 2.176-6.892 0-3.99-1.934-7.497-4.836-9.673V0H2.571v41.108h16.927c2.056 1.451 4.474 2.418 7.255 2.418 2.78 0 5.199-.967 7.254-2.418.363-.241.726-.604 1.088-.967L44.042 48l1.572-1.814-8.947-7.858zm-31.678.362V2.418h26.6v17.894c-.726-.362-1.572-.604-2.418-.725v-.242H7.408v2.418h12.09a11.464 11.464 0 00-2.418 2.418H7.408V26.6h8.221c-.362.726-.604 1.572-.725 2.419H7.408v2.418h7.254c0 .846.12 1.693.242 2.418H7.408v2.418h8.221c.363.846.847 1.693 1.451 2.418H4.99zm21.764 2.418c-4.957 0-8.948-3.748-9.552-8.463 0-.363-.12-.847-.12-1.21 0-.604 0-1.087.12-1.692.726-4.232 4.232-7.496 8.584-7.98H27.6c4.957.363 8.826 4.595 8.826 9.673 0 5.32-4.352 9.672-9.672 9.672z" fill="#5E51B0"/><path d="M20.828 37.481h8.343v-4.836H18.41c.241 1.934 1.087 3.506 2.417 4.836zm-1.692-9.673H29.17v-4.473c-.725-.242-1.572-.363-2.418-.363-3.386 0-6.287 1.935-7.617 4.836z" fill="#5E51B0"/></symbol><symbol id="size" viewBox="0 0 48 48"><path d="M36.371 0L0 36.003l11.629 11.511L48 11.511 36.371 0zM3.464 36.003l1.36-1.347.99.98 1.732-1.715-.99-.98 1.362-1.346 2.845 2.816 1.732-1.714-2.846-2.817 1.361-1.347.99.98 1.732-1.715-.99-.98 1.361-1.346 2.845 2.816 1.732-1.714-2.845-2.817 1.36-1.347.99.98 1.733-1.715-.99-.98 1.36-1.346 2.846 2.816 1.732-1.714-2.845-2.817 1.36-1.347.99.98 1.732-1.715-.99-.98 1.361-1.346 2.846 2.816 1.732-1.714-2.846-2.817 1.361-1.347.99.98 1.732-1.715-.99-.98 1.36-1.346 2.846 2.816 1.732-1.714-2.845-2.817 1.98-1.96 8.164 8.083L11.63 44.086l-8.165-8.083zm35.381 2.45h-4.948v2.449h7.422v-7.348h-2.474v4.899zM9.155 9.062h4.948v-2.45H6.681v7.348h2.474V9.062z" fill="#5E51B0"/></symbol><symbol id="star" viewBox="0 0 80 80"><path d="M9.223 14.214l8.555 3.543-3.544-8.544.01-.01 15.703 6.5L36.457.01l.01-.01 3.543 8.555L43.554.01l.01.01 6.5 15.703 15.712-6.51.01.01-3.544 8.555 8.545-3.544.01.01-6.5 15.703 15.693 6.5.01.02-8.555 3.543 8.545 3.544-.01.01-15.703 6.5 6.51 15.702-.01.01-8.555-3.544 3.544 8.545-.01.01-15.703-6.5-6.5 15.703-.01.01L40 71.445l-3.543 8.545-.01-.01-6.5-15.703-15.702 6.5-.01-.01 3.543-8.555-8.545 3.543-.01-.01 6.49-15.692-15.703-6.5-.01-.01L8.555 40 .01 36.457l.01-.01 15.703-6.5-6.5-15.702v-.03zM13.667 40l13.172 5.457-5.457 13.161 13.171-5.457 5.457 13.161 5.457-13.17 13.161 5.456-5.457-13.161 13.162-5.457-13.162-5.457 5.457-13.161-13.181 5.457-5.457-13.162-5.447 13.162-13.161-5.457 5.457 13.171L13.667 40z"/></symbol><symbol id="success" viewBox="0 0 56 56"><path d="M40.77 16.27l2.46 2.46-20.48 20.48-9.98-9.98 2.46-2.46 7.52 7.52 18.02-18.02zM28 0c2.57 0 5.05.328 7.438.984a27.58 27.58 0 016.699 2.817 28.122 28.122 0 015.66 4.375 27.79 27.79 0 014.375 5.687 28.2 28.2 0 012.816 6.7c.657 2.37.994 4.849 1.012 7.437 0 2.57-.328 5.05-.984 7.438a27.576 27.576 0 01-2.817 6.699 28.12 28.12 0 01-4.375 5.66 27.79 27.79 0 01-5.687 4.375 28.2 28.2 0 01-6.7 2.816c-2.37.657-4.848.994-7.437 1.012-2.57 0-5.05-.328-7.438-.984a27.576 27.576 0 01-6.699-2.817 28.12 28.12 0 01-5.66-4.375 27.788 27.788 0 01-4.375-5.687 28.318 28.318 0 01-2.816-6.672C.355 33.113.018 30.625 0 28c0-2.57.328-5.05.984-7.438a27.58 27.58 0 012.817-6.699 28.123 28.123 0 014.375-5.66 27.789 27.789 0 015.687-4.375 28.318 28.318 0 016.672-2.816C22.887.355 25.375.018 28 0zm0 52.5c2.242 0 4.402-.292 6.48-.875a25.166 25.166 0 005.852-2.46 23.646 23.646 0 004.977-3.856 25.517 25.517 0 003.828-4.95 24.703 24.703 0 002.488-5.851c.602-2.115.893-4.284.875-6.508 0-2.242-.292-4.402-.875-6.48a25.166 25.166 0 00-2.46-5.852 23.646 23.646 0 00-3.856-4.977 25.517 25.517 0 00-4.95-3.828 24.702 24.702 0 00-5.851-2.488A22.973 22.973 0 0028 3.5c-2.242 0-4.402.292-6.48.875a25.167 25.167 0 00-5.852 2.46 23.645 23.645 0 00-4.977 3.856 25.517 25.517 0 00-3.828 4.95 24.702 24.702 0 00-2.488 5.851A22.973 22.973 0 003.5 28c0 2.242.292 4.402.875 6.48a25.167 25.167 0 002.46 5.852 23.645 23.645 0 003.856 4.977 25.517 25.517 0 004.95 3.828 24.703 24.703 0 005.851 2.488c2.115.602 4.284.893 6.508.875z" fill="#5CCCB6"/></symbol><symbol id="tel" viewBox="0 0 39 39"><path d="M37.333 11.667v-10h-10m-1.667 11.667L37.333 1.667M35.666 28.2v5a3.332 3.332 0 01-3.633 3.334 32.983 32.983 0 01-14.383-5.116 32.5 32.5 0 01-10-10 32.984 32.984 0 01-5.117-14.45A3.333 3.333 0 015.85 3.333h5A3.333 3.333 0 0114.183 6.2a21.4 21.4 0 001.167 4.683 3.333 3.333 0 01-.75 3.517l-2.117 2.116a26.666 26.666 0 0010 10L24.6 24.4a3.333 3.333 0 013.516-.75 21.4 21.4 0 004.684 1.166 3.334 3.334 0 012.866 3.384z" stroke="#5CCCB6" stroke-width="3.333" stroke-linecap="round" stroke-linejoin="round" fill="transparent"/></symbol><symbol id="tel2" viewBox="0 0 24 24"><path d="M5.168 14.215a2.62 2.62 0 00-.984.187 2.497 2.497 0 00-.844.563L.762 17.543c-.243.242-.426.52-.551.832a2.829 2.829 0 00-.2.996c0 .344.063.672.188.985a2.5 2.5 0 00.563.843l.164.164c.422.422.808.797 1.16 1.125a5.93 5.93 0 001.101.82c.383.22.809.391 1.278.516s1.027.184 1.676.176c.976 0 1.98-.152 3.011-.457a16.548 16.548 0 003.07-1.266 22.542 22.542 0 003-1.922c.985-.742 1.91-1.55 2.778-2.425a27.348 27.348 0 002.414-2.79 20.882 20.882 0 001.898-3 17.694 17.694 0 001.243-3.058c.304-1.023.453-2.008.445-2.953 0-.649-.055-1.203-.164-1.664a4.517 4.517 0 00-.504-1.266 6.323 6.323 0 00-.82-1.09A46.32 46.32 0 0021.387.95l-.188-.187A2.611 2.611 0 0020.367.2a2.52 2.52 0 00-.996-.2 2.49 2.49 0 00-.984.2c-.313.132-.594.32-.844.562L14.965 3.34c-.242.242-.426.52-.551.832a2.829 2.829 0 00-.2.996c0 .344.06.648.177.914a3.73 3.73 0 00.996 1.336c.203.172.394.348.574.527.18.18.324.352.434.516.109.164.168.355.175.574 0 .297-.105.55-.316.762l-6.457 6.457c-.211.21-.465.316-.762.316a.978.978 0 01-.562-.175 4.165 4.165 0 01-.528-.434 7.296 7.296 0 01-.527-.563 4.19 4.19 0 00-.598-.574 3.138 3.138 0 00-.726-.433 2.506 2.506 0 00-.926-.176zM6.14 22.5c-.563 0-1.032-.05-1.407-.152a3.61 3.61 0 01-1.03-.457 4.933 4.933 0 01-.892-.75 38.604 38.604 0 00-.996-1.008 1.038 1.038 0 01-.316-.762c0-.14.055-.305.164-.492.11-.188.258-.39.445-.61.188-.218.387-.433.598-.644.21-.21.43-.422.656-.633.227-.21.426-.394.598-.55.172-.157.316-.294.433-.41.211-.212.47-.317.774-.317.203 0 .39.058.562.176.172.117.344.261.516.433.172.172.348.36.527.563.18.203.383.394.61.574.226.18.469.324.726.434a2.626 2.626 0 001.91-.012c.313-.125.594-.313.844-.563l6.457-6.457c.242-.242.426-.52.551-.832.125-.312.192-.644.2-.996 0-.344-.06-.648-.177-.914a3.74 3.74 0 00-.996-1.336 7.55 7.55 0 01-.574-.539 4.47 4.47 0 01-.433-.516 1.052 1.052 0 01.14-1.336c.102-.101.235-.242.399-.421.164-.18.347-.38.55-.598.203-.219.415-.438.633-.656.219-.219.438-.422.657-.61.218-.187.418-.332.597-.433a1.3 1.3 0 01.504-.176c.297 0 .55.105.762.316l.996.996c.289.29.539.586.75.891.21.305.367.645.469 1.02.101.375.156.843.164 1.406a9.33 9.33 0 01-.422 2.707c-.282.93-.676 1.86-1.184 2.789a21.384 21.384 0 01-1.793 2.742 25.808 25.808 0 01-2.25 2.567 23.701 23.701 0 01-2.566 2.226 21.92 21.92 0 01-2.742 1.758 14.8 14.8 0 01-2.766 1.16 9.532 9.532 0 01-2.648.422z" fill="#5CCCB6"/></symbol><symbol id="text-menu" viewBox="0 0 475 67"><path d="M0 1.3h38.806l22.547 36.211 22.98-36.21h37.073v64.615h-27.75v-40.33L67.64 65.916H53.332l-25.799-40.33v40.33H0V1.3zm212.243 0v15.83h-53.982v8.022h52.898v15.612h-52.898v8.89h54.633v16.045h-82.383V1.3h81.732zm8.022 0h28.183v22.768h46.178V1.3h28.183v64.615h-28.183V41.197h-46.178V65.7h-28.183V1.3zM475 34.693C475 46.835 468.279 67 423.836 67h-3.685c-36.856 0-47.912-14.094-50.297-25.803h-9.973V65.7h-28.183V1.301h28.183v22.767h10.19C373.323 12.793 384.162 0 419.934 0h3.685c44.66 0 51.164 19.948 51.164 32.09v2.603H475zm-29.267-2.169c0-6.938-5.204-15.178-23.848-15.178-19.078 0-23.848 8.457-23.848 15.178v1.084c0 6.722 5.204 15.829 23.848 15.829 18.861 0 23.848-8.673 23.848-15.612v-1.3z" fill="#E9E9E9"/></symbol></svg>